<?xml version="1.0" encoding="UTF-8" standalone="no"?>
<!-- Created with Inkscape (http://www.inkscape.org/) -->

<svg
   width="112.80000305175781mm"
   height="114.9000015258789mm"
   viewBox="0 0 112.80000305175781 114.9000015258789"
   version="1.1"
   id="svg5"
   inkscape:version="1.4.2 (f4327f4, 2025-05-13)"
   sodipodi:docname="Wbaum.svg"
   xmlns:inkscape="http://www.inkscape.org/namespaces/inkscape"
   xmlns:sodipodi="http://sodipodi.sourceforge.net/DTD/sodipodi-0.dtd"
   xmlns="http://www.w3.org/2000/svg"
   xmlns:svg="http://www.w3.org/2000/svg">
  <sodipodi:namedview
     id="namedview7"
     pagecolor="#ffffff"
     bordercolor="#666666"
     borderopacity="1.0"
     inkscape:pageshadow="2"
     inkscape:pageopacity="0.0"
     inkscape:pagecheckerboard="0"
     inkscape:document-units="mm"
     showgrid="false"
     showguides="false"
     inkscape:guide-bbox="true"
     inkscape:zoom="1.8797057"
     inkscape:cx="259.34911"
     inkscape:cy="271.05307"
     inkscape:window-width="1920"
     inkscape:window-height="1009"
     inkscape:window-x="-8"
     inkscape:window-y="-8"
     inkscape:window-maximized="1"
     inkscape:current-layer="g12488"
     inkscape:snap-global="false"
     inkscape:showpageshadow="2"
     inkscape:deskcolor="#d1d1d1">
    <sodipodi:guide
       position="120.06645,237.03716"
       orientation="1,0"
       id="guide928"
       inkscape:locked="false" />
    <sodipodi:guide
       position="105.14612,238.16322"
       orientation="1,0"
       id="guide10796"
       inkscape:locked="false" />
    <sodipodi:guide
       position="134.98678,231.26608"
       orientation="1,0"
       id="guide10798"
       inkscape:locked="false" />
    <sodipodi:guide
       position="99.938072,222.25759"
       orientation="1,0"
       id="guide10800"
       inkscape:locked="false" />
    <sodipodi:guide
       position="140.05406,230.84382"
       orientation="1,0"
       id="guide10802"
       inkscape:locked="false" />
  </sodipodi:namedview>
  <defs
     id="defs2" />
  <g
     inkscape:label="Ebene 1"
     inkscape:groupmode="layer"
     id="layer1"
     style="display:inline" />
  <g
     inkscape:label="[fixed] BG"
     inkscape:groupmode="layer"
     sodipodi:insensitive="true"
     id="g12474"
     style="display:inline">
    <rect
       x="0"
       y="0"
       width="112.8"
       height="114.9"
       style="fill:#ffffff;fill-opacity:1;stroke:none"
       id="rect12472" />
  </g>
  <g
     inkscape:label="Edge.Cuts"
     inkscape:groupmode="layer"
     id="g12476"
     style="display:inline">
    <path
       style="display:inline;fill:#009500;fill-opacity:1;stroke:#030000;stroke-width:0.2;stroke-linecap:butt;stroke-linejoin:miter;stroke-miterlimit:4;stroke-dasharray:none;stroke-opacity:1"
       d="m 34.784238,-60.386112 13.2311,-0.0508 0.3458,0.0044 0.3075,-0.0143 0.2694,-0.0323 0.2318,-0.0497 0.1944,-0.0665 0.1571,-0.0827 0.121,-0.098 0.085,-0.113 0.049,-0.1271 0.013,-0.1407 -0.022,-0.1536 -0.057,-0.1658 -0.091,-0.1775 -0.125,-0.1884 -0.1591,-0.1988 -0.1924,-0.2085 -0.2255,-0.2175 -0.2581,-0.2259 -0.6129,-0.4745 -0.7393,-0.5005 -0.8629,-0.5212 -0.9836,-0.5369 -1.1015,-0.5473 -1.2166,-0.5528 -1.3287,-0.5529 -11.1964,-5.2317 7.0623,0.4384 0.4218,-0.0269 0.3925,-0.0458 0.3632,-0.0637 0.334,-0.0808 0.3047,-0.097 0.2754,-0.1123 0.246,-0.1269 0.2167,-0.1404 0.1874,-0.1532 0.1581,-0.165 0.1286,-0.176 0.0993,-0.1862 0.0699,-0.1954 0.0404,-0.2038 0.0111,-0.2114 -0.0184,-0.218 -0.0478,-0.2238 -0.0773,-0.2287 -0.1068,-0.2327 -0.1363,-0.236 -0.1657,-0.2382 -0.1953,-0.2397 -0.2248,-0.2403 -0.2544,-0.24 -0.2839,-0.2388 -0.3134,-0.2368 -0.3431,-0.2339 -0.3726,-0.2302 -0.4022,-0.2255 -0.4319,-0.2199 -0.4615,-0.2137 -0.4911,-0.2063 -10.3173,-5.0525 8.2513,0.1132 0.3238,-0.0113 0.3111,-0.0256 0.2976,-0.0394 0.2834,-0.0525 0.2683,-0.0651 0.2527,-0.0772 0.2361,-0.0888 0.219,-0.0996 0.201,-0.1101 0.1823,-0.1199 0.1629,-0.1292 0.1427,-0.1379 0.1217,-0.1461 0.1002,-0.1537 0.0777,-0.1608 0.0546,-0.1673 0.0307,-0.1732 0.0061,-0.1786 -0.0193,-0.1834 -0.0454,-0.1877 -0.0722,-0.1915 -0.0998,-0.1946 -0.1282,-0.1972 -0.1572,-0.1992 -0.1871,-0.2008 -0.2175,-0.2017 -0.2489,-0.202 -0.2809,-0.2019 -0.3137,-0.2012 -0.3472,-0.1998 -0.3815,-0.1981 -0.4165,-0.1956 -11.4863,-5.6672 4.2652,-0.18 0.8381,-0.0297 0.3662,-0.0343 0.3323,-0.0463 0.2993,-0.0578 0.2673,-0.0686 0.2362,-0.0788 0.2062,-0.0883 0.177,-0.0972 0.1489,-0.1055 0.1216,-0.1131 0.0954,-0.12 0.0702,-0.1264 0.0458,-0.1321 0.0224,-0.1371 v -0.1416 l -0.0213,-0.1453 -0.0419,-0.1485 -0.0614,-0.1509 -0.0799,-0.1529 -0.2117,-0.3086 -0.2744,-0.3085 -0.3294,-0.303 -0.3767,-0.2927 -0.4162,-0.277 -0.4482,-0.2564 -9.9914,-5.747698 4.4625,-0.2336 0.36,-0.0209 0.3071,-0.0626 0.2554,-0.0999 0.2049,-0.1329 0.1557,-0.1617 0.1078,-0.1863 0.0611,-0.2064 0.0157,-0.2223 -0.0284,-0.2339 -0.0713,-0.2413 -0.113,-0.2443 -0.1534,-0.2431 -0.1925,-0.2376 -0.2304,-0.2277 -0.2669,-0.2137 -0.3024,-0.1952 -9.3465,-5.9218 4.3425,0.5228 0.2808,0.007 0.2565,-0.0342 0.2314,-0.0711 0.2057,-0.1041 0.1793,-0.1331 0.1519,-0.1581 0.124,-0.1791 0.0953,-0.1962 0.0657,-0.2094 0.0356,-0.2185 0.0046,-0.2236 -0.0271,-0.2249 -0.0595,-0.2221 -0.0927,-0.2154 -0.1266,-0.2047 -0.1614,-0.1901 -14.7977998,-12.7008 -14.2348,12.6708 -0.1613,0.19 -0.1266,0.2047 -0.0928,0.2154 -0.0595,0.2222 -0.0271,0.2248 0.0046,0.2237 0.0356,0.2185 0.0658,0.2093 0.0953,0.1963 0.1239,0.1791 0.152,0.1581 0.1792,0.1331 0.2057,0.104 0.2315,0.0712 0.2565,0.0342 0.2807,-0.007 4.3426,-0.5228 -9.3466002,5.9217 -0.3023,0.1953 -0.267,0.2137 -0.2304,0.2277 -0.1925,0.2376 -0.1533,0.2431 -0.113,0.2443 -0.0713,0.2413 -0.0285,0.2339 0.0157,0.2223 0.0611,0.2064 0.1079,0.1862 0.1557,0.1618 0.2049,0.1329 0.2554,0.0999 0.307,0.0626 0.3601,0.0209 4.4625002,0.2335 -9.9914002,5.747798 -0.4482,0.2564 -0.4163,0.277 -0.3767,0.2926 -0.3293,0.3031 -0.2744,0.3085 -0.2117,0.3086 -0.08,0.1528 -0.0614,0.151 -0.0418,0.1485 -0.0214,0.1453 v 0.1416 l 0.0225,0.1371 0.0458,0.1321 0.0701,0.1264 0.0954,0.12 0.1217,0.1131 0.1488,0.1054 0.1771,0.0972 0.2061,0.0884 0.2363,0.0787 0.2673,0.0687 0.2993,0.0578 0.3323,0.0463 0.3662,0.0343 0.8381,0.0297 4.2652,0.1799 -11.4864,5.6673 -0.4165,0.1956 -0.3815,0.198 -0.3472,0.1999 -0.3137,0.2012 -0.2809,0.2019 -0.2489,0.202 -0.2176,0.2017 -0.187,0.2007 -0.1572,0.1993 -0.1282,0.1972 -0.0998,0.1946 -0.0722,0.1914 -0.0454,0.1878 -0.0193,0.1834 0.0061,0.1786 0.0307,0.1732 0.0546,0.1673 0.0777,0.1607 0.1002,0.1538 0.1217,0.1461 0.1427,0.1379 0.1629,0.1292 0.1823,0.1199 0.201,0.1101 0.219,0.0996 0.2361,0.0887 0.2527,0.0772 0.2683,0.0652 0.2834,0.0525 0.2976,0.0393 0.3111,0.0256 0.3238,0.0113 8.2514,-0.1131 -10.3174,5.0524 -0.4912,0.2063 -0.4618,0.2133 -0.4323,0.2194 -0.4029,0.2247 -0.3735,0.2291 -0.3439,0.2326 -0.3146,0.2352 -0.2851,0.2369 -0.2556,0.2377 -0.2262,0.2378 -0.1967,0.2368 -0.1673,0.235 -0.1378,0.2324 -0.1084,0.2288 -0.0789,0.2244 -0.0495,0.219 -0.0201,0.2129 0.0095,0.2057 0.0388,0.1978 0.0683,0.189 0.0978,0.1792 0.1272,0.1686 0.1566,0.1572 0.1861,0.1447 0.2156,0.1315 0.245,0.1174 0.2744,0.1023 0.3039,0.0865 0.3333,0.0697 0.3628,0.052 0.3922,0.0335 0.4217,0.014 6.7104,-0.3328 -10.8094,5.3021 -1.3287,0.5529 -1.2165,0.5527 -1.1015,0.5474 -0.9836,0.5369 -0.8629,0.5212 -0.7393,0.5004 -0.6129,0.4746 -0.2582,0.2259 -0.2254,0.2175 -0.1924,0.2085 -0.1591,0.1988 -0.1253,0.1884 -0.0912,0.1775 -0.0567,0.1658 -0.0219,0.1536 0.0133,0.1407 0.0487,0.1271 0.0847,0.1129 0.1209,0.0981 0.1575,0.0826 0.1945,0.0665 0.2317,0.0498 0.2695,0.0323 0.3074,0.0143 0.3459,-0.0044 13.2311,0.0508 14.6491,0.0582 -3.7612,4.657 -0.416,0.556 -0.1585,0.2391 -0.1236,0.2145 -0.0875,0.1909 -0.05,0.1682 -0.0112,0.1464 0.0288,0.1255 0.0704,0.1057 0.1131,0.0868 0.1572,0.0688 0.2026,0.0517 0.2493,0.0357 0.2975,0.0206 0.7443,-6e-4 h 34.9078 l 0.3546,0.0305 0.3133,0.0103 0.2725,-0.0099 0.2323,-0.0303 0.1925,-0.0508 0.1533,-0.0712 0.1146,-0.0918 0.0764,-0.1124 0.0388,-0.1331 0.0016,-0.1539 -0.0351,-0.1748 -0.0712,-0.1957 -0.1069,-0.2167 -0.1419,-0.2378 -0.1765,-0.259 -0.2107,-0.2802 -3.3301,-4.6344 15.3566,-0.0833"
       id="path963-7"
       sodipodi:nodetypes="cccccccccccccccccccccccccccccccccccccccccccc" />
    <path
       id="path963-7-9"
       style="display:inline;fill:none;fill-opacity:1;stroke:#030000;stroke-width:0.2;stroke-linecap:butt;stroke-linejoin:miter;stroke-miterlimit:4;stroke-dasharray:none;stroke-opacity:1"
       d="m 63.386719,16.824219 c -4.974104,4.46502 -10.028754,8.846073 -14.942208,13.377798 -1.224849,1.42235 -0.02899,4.105231 1.921074,3.883041 0.92163,-0.143393 -0.09334,0.297893 -0.395611,0.530579 -1.992167,1.284087 -4.064082,2.469596 -5.944583,3.909754 -0.900709,0.899323 -1.174337,2.667476 0.0059,3.458984 0.845996,0.512851 1.870963,0.495622 2.826172,0.501953 -2.888683,1.712034 -5.895094,3.243885 -8.668555,5.138183 -0.944267,0.721477 -1.760238,2.178227 -0.942998,3.278484 1.013361,1.314 2.837222,1.14939 4.310772,1.26888 -3.289217,1.662359 -6.6661,3.167465 -9.869038,4.989202 -1.179848,0.751287 -2.200381,2.358749 -1.405029,3.724748 0.939255,1.630014 3.043925,1.857542 4.741626,1.779396 1.070709,-0.01471 2.141419,-0.02942 3.212128,-0.04413 -2.957732,1.491649 -6.003867,2.819778 -8.90038,4.425446 -1.357227,0.855694 -2.75343,2.334292 -2.410471,4.069837 0.445539,1.633709 2.341511,2.223592 3.862362,2.175294 0.790701,0.02422 1.58103,-0.0204 2.370364,-0.06511 -3.345286,1.685625 -6.744147,3.262956 -10.132406,4.85601 -1.817874,0.928174 -3.738282,1.972008 -4.863688,3.73774 -0.512658,1.033852 0.336433,2.395661 1.508392,2.326159 1.763799,0.230008 3.514531,0.01844 5.265038,0.109439 7.235029,0.02863 14.470057,0.05726 21.705086,0.08589 -1.208382,1.553718 -2.689737,3.005417 -3.554687,4.800781 -0.264035,1.083497 0.875524,2.051099 1.916705,1.824389 5.019564,0.110314 10.044642,0.01078 15.066498,0.04745 7.37701,-0.01375 14.759365,0.03171 22.133043,-0.01896 1.19494,-0.167372 1.700993,-1.829819 0.863932,-2.67469 -0.870642,-1.364143 -1.832356,-2.667679 -2.808304,-3.955531 8.942964,0.0029 17.886085,-0.06212 26.828748,-0.120828 0.92188,0.08422 2.03647,-0.06321 2.50914,-0.976828 0.56147,-1.008719 -0.35245,-2.015751 -1.02069,-2.699612 -2.44449,-2.09298 -5.51154,-3.239051 -8.4024,-4.566999 -1.883068,-0.81505 -3.709217,-1.75015 -5.576907,-2.598623 1.838148,0.121845 4.013536,0.36194 5.488297,-0.98512 1.02336,-0.842972 1.0029,-2.383608 0.3077,-3.426087 -1.318466,-2.100847 -3.852953,-2.845869 -5.936927,-3.937636 -1.644366,-0.796664 -3.283604,-1.602932 -4.923523,-2.40897 1.96872,-0.0019 3.982907,0.226914 5.919747,-0.203396 1.356457,-0.344677 2.692046,-1.675884 2.238456,-3.169651 -0.544656,-1.893419 -2.562819,-2.66355 -4.157175,-3.469621 -2.440447,-1.202835 -4.880894,-2.405669 -7.32134,-3.608504 1.394182,-0.06531 3.004137,-0.01924 4.11914,-0.988281 0.775112,-0.77596 0.682969,-2.095059 -0.08398,-2.845703 -1.307101,-1.61906 -3.376506,-2.258517 -5.057069,-3.389247 -1.415222,-0.814912 -2.830444,-1.629825 -4.245666,-2.444737 1.125354,-0.07241 2.614506,0.06406 3.300042,-1.02878 0.68432,-1.114969 0.111121,-2.563447 -0.893792,-3.272002 -1.349681,-1.062128 -2.907221,-1.817133 -4.312159,-2.801376 -0.683907,-0.435575 -1.396985,-0.87961 -2.062841,-1.309952 1.165119,0.179668 2.452331,-0.462726 2.739699,-1.662746 0.366964,-1.191375 -0.268213,-2.483414 -1.311101,-3.100996 -4.936386,-4.237072 -9.873568,-8.473217 -14.809457,-12.710867 -0.06901,0.06185 -0.138021,0.123698 -0.207031,0.185547 z" />
  </g>
  <g
     inkscape:label="B.Cu"
     inkscape:groupmode="layer"
     id="g12478"
     style="display:inline" />
  <g
     inkscape:label="B.Mask"
     inkscape:groupmode="layer"
     id="g12480"
     style="display:inline" />
  <g
     inkscape:label="B.SilkS"
     inkscape:groupmode="layer"
     id="g12482"
     style="display:inline" />
  <g
     inkscape:label="F.Cu"
     inkscape:groupmode="layer"
     id="g12484"
     style="display:inline" />
  <g
     inkscape:label="F.Mask"
     inkscape:groupmode="layer"
     id="g12486"
     style="display:inline" />
  <g
     inkscape:label="F.SilkS"
     inkscape:groupmode="layer"
     id="g12488"
     style="display:inline">
    <path
       id="path1325-1"
       style="display:inline;fill:none;stroke:#030000;stroke-width:0.2;stroke-linejoin:bevel;stroke-miterlimit:4;stroke-dasharray:none"
       d="m 1.6416409,-105.28124 a 2.253861,2.253861 0 0 1 -3.0342534,0.97626 2.253861,2.253861 0 0 1 -0.9762607,-3.03425 2.253861,2.253861 0 0 1 3.0342534,-0.97626 2.253861,2.253861 0 0 1 0.9762607,3.03425 z" />
    <path
       id="path1325-4"
       style="display:inline;fill:none;stroke:#030000;stroke-width:0.2;stroke-linejoin:bevel;stroke-miterlimit:4;stroke-dasharray:none"
       d="m -3.4635288,-95.332538 a 2.253861,2.253861 0 0 1 -3.0342534,0.976261 2.253861,2.253861 0 0 1 -0.9762606,-3.034254 2.253861,2.253861 0 0 1 3.0342534,-0.976261 2.253861,2.253861 0 0 1 0.9762606,3.034254 z" />
    <path
       id="path1325-10"
       style="display:inline;fill:none;stroke:#030000;stroke-width:0.2;stroke-linejoin:bevel;stroke-miterlimit:4;stroke-dasharray:none"
       d="m -8.5687528,-85.383731 a 2.253861,2.253861 0 0 1 -3.0342532,0.97626 2.253861,2.253861 0 0 1 -0.976261,-3.034253 2.253861,2.253861 0 0 1 3.0342536,-0.976261 2.253861,2.253861 0 0 1 0.9762606,3.034254 z" />
    <path
       id="path1325-5"
       style="display:inline;fill:none;stroke:#030000;stroke-width:0.2;stroke-linejoin:bevel;stroke-miterlimit:4;stroke-dasharray:none"
       d="m -13.673976,-75.434926 a 2.253861,2.253861 0 0 1 -3.034254,0.976261 2.253861,2.253861 0 0 1 -0.97626,-3.034253 2.253861,2.253861 0 0 1 3.034253,-0.976261 2.253861,2.253861 0 0 1 0.976261,3.034253 z" />
    <path
       id="path1325-9"
       style="display:inline;fill:none;stroke:#030000;stroke-width:0.2;stroke-linejoin:bevel;stroke-miterlimit:4;stroke-dasharray:none"
       d="m 2.8007507,-115.23149 a 2.2538604,2.2538604 0 0 0 3.0342527,0.97625 2.2538604,2.2538604 0 0 0 0.9762576,-3.03425 2.2538604,2.2538604 0 0 0 -3.0342536,-0.97626 2.2538604,2.2538604 0 0 0 -0.9762567,3.03426 z" />
    <path
       id="path1325-1-0"
       style="display:inline;fill:none;stroke:#030000;stroke-width:0.2;stroke-linejoin:bevel;stroke-miterlimit:4;stroke-dasharray:none"
       d="m 7.9058965,-105.28286 a 2.2538604,2.2538604 0 0 0 3.0342525,0.97626 2.2538604,2.2538604 0 0 0 0.976258,-3.03426 2.2538604,2.2538604 0 0 0 -3.0342537,-0.97625 2.2538604,2.2538604 0 0 0 -0.9762568,3.03425 z" />
    <path
       id="path1325-4-2"
       style="display:inline;fill:none;stroke:#030000;stroke-width:0.2;stroke-linejoin:bevel;stroke-miterlimit:4;stroke-dasharray:none"
       d="m 13.011212,-95.333899 a 2.2538604,2.2538604 0 0 0 3.034252,0.976259 2.2538604,2.2538604 0 0 0 0.976258,-3.034254 2.2538604,2.2538604 0 0 0 -3.034253,-0.976258 2.2538604,2.2538604 0 0 0 -0.976257,3.034253 z" />
    <path
       id="path1325-10-9"
       style="display:inline;fill:none;stroke:#030000;stroke-width:0.2;stroke-linejoin:bevel;stroke-miterlimit:4;stroke-dasharray:none"
       d="m 18.11645,-85.385086 a 2.2538604,2.2538604 0 0 0 3.034253,0.976258 2.2538604,2.2538604 0 0 0 0.976258,-3.034253 2.2538604,2.2538604 0 0 0 -3.034254,-0.976258 2.2538604,2.2538604 0 0 0 -0.976257,3.034253 z" />
    <path
       id="path1325-5-8"
       style="display:inline;fill:none;stroke:#030000;stroke-width:0.2;stroke-linejoin:bevel;stroke-miterlimit:4;stroke-dasharray:none"
       d="m 23.221758,-75.436137 a 2.2538604,2.2538604 0 0 0 3.034253,0.976258 2.2538604,2.2538604 0 0 0 0.976258,-3.034254 2.2538604,2.2538604 0 0 0 -3.034254,-0.976257 2.2538604,2.2538604 0 0 0 -0.976257,3.034253 z" />
    <path
       id="path963-7-8"
       style="display:inline;fill:#009500;fill-opacity:1;stroke:#030000;stroke-width:0.2;stroke-linecap:butt;stroke-linejoin:miter;stroke-miterlimit:4;stroke-dasharray:none;stroke-opacity:1"
       d="m 63.839405,17.991588 -14.23479,12.671062 -0.16175,0.189652 -0.1266,0.205155 -0.09251,0.214974 -0.05942,0.222209 -0.02739,0.224793 0.0052,0.223759 0.03565,0.218591 0.06563,0.209289 0.0956,0.196371 0.12351,0.179317 0.15244,0.157613 0.17881,0.133325 0.20567,0.10387 0.23151,0.07131 0.25683,0.03411 0.2806,-0.0067 4.34237,-0.522449 -9.3462,5.921603 -0.3023,0.195337 -0.26717,0.213423 -0.23048,0.227893 -0.19223,0.237712 -0.15348,0.242879 -0.11317,0.24443 -0.07132,0.241329 -0.02842,0.233577 0.0155,0.222725 0.0615,0.206189 0.108,0.186036 0.15555,0.161747 0.20464,0.133325 0.2558,0.09974 0.30695,0.06253 0.35967,0.02067 4.46278,0.233577 -9.99164,5.74797 -0.44804,0.256315 -0.41651,0.276985 -0.3762,0.292489 -0.3297,0.303341 -0.2744,0.308508 -0.21136,0.308508 -0.08009,0.152962 -0.0615,0.150896 -0.04186,0.148311 -0.02118,0.145728 v 0.141593 l 0.02222,0.136943 0.04599,0.131774 0.07028,0.126608 0.09508,0.119889 0.12196,0.113171 0.14883,0.10542 0.17673,0.09715 0.20619,0.08837 0.23616,0.07906 0.26769,0.06873 0.2992,0.05736 0.33228,0.04651 0.36639,0.03411 0.83767,0.02997 4.26537,0.179834 -11.48663,5.667354 -0.41651,0.195337 -0.38138,0.197921 -0.34726,0.199987 -0.31368,0.201539 -0.2806,0.201538 -0.24908,0.202055 -0.21756,0.202054 -0.18707,0.200505 -0.15709,0.199471 -0.12816,0.196887 -0.09974,0.19482 -0.07234,0.191203 -0.04548,0.188102 -0.01912,0.182935 0.0057,0.1788 0.03101,0.173116 0.05426,0.167432 0.07803,0.160714 0.10025,0.153996 0.12144,0.145727 0.14263,0.137976 0.1633,0.129191 0.1819,0.11989 0.20102,0.11007 0.21911,0.09974 0.23616,0.08888 0.2527,0.077 0.2682,0.06511 0.2837,0.05271 0.29766,0.03928 0.31109,0.02532 0.32349,0.01137 8.2517,-0.113172 -10.31772,5.052405 -0.49092,0.206706 -0.46199,0.212907 -0.43253,0.219625 -0.40256,0.224792 -0.37362,0.228927 -0.34365,0.232544 -0.31471,0.235127 -0.28526,0.237195 -0.25579,0.237712 -0.22583,0.237711 -0.19689,0.236679 -0.16743,0.235127 -0.13746,0.232544 -0.10852,0.22841 -0.07906,0.224793 -0.04961,0.218591 -0.01964,0.212907 0.0098,0.205672 0.03876,0.197921 0.06821,0.189135 0.09767,0.179318 0.12764,0.168465 0.15658,0.157096 0.18603,0.144694 0.21549,0.131775 0.24495,0.117306 0.2744,0.102319 0.30386,0.0863 0.33331,0.06976 0.36277,0.05219 0.39222,0.03359 0.42168,0.01395 6.71071,-0.332796 -10.80968,5.302002 -1.3286,0.552938 -1.21646,0.552421 -1.10175,0.54777 -0.9834,0.536918 -0.863,0.520899 -0.73948,0.500227 -0.61289,0.474903 -0.25786,0.22583 -0.22531,0.21756 -0.19276,0.20825 -0.15916,0.19896 -0.12506,0.18862 -0.09146,0.17725 -0.05633,0.16588 -0.02222,0.15348 0.01344,0.14056 0.04857,0.12712 0.08475,0.11317 0.12092,0.09819 0.15762,0.08268 0.1943,0.06615 0.23203,0.05012 0.26923,0.03204 0.30748,0.01447 0.34571,-0.0041 13.23123,0.05064 14.64924,0.05839 -3.76101,4.65708 -0.416,0.556039 -0.15864,0.23875 -0.12351,0.21497 -0.08785,0.19069 -0.04961,0.16795 -0.01137,0.14676 0.02894,0.12557 0.07028,0.10542 0.11317,0.0868 0.1571,0.0687 0.20257,0.0517 0.24908,0.0357 0.29766,0.0207 0.74414,-5.2e-4 H 81.01048 l 0.3545,0.0305 0.313676,0.0103 0.272335,-0.01 0.232027,-0.0305 0.192753,-0.0506 0.153479,-0.0713 0.114205,-0.092 0.07648,-0.11214 0.03876,-0.13332 0.0016,-0.154 -0.03514,-0.17466 -0.0708,-0.19586 -0.10697,-0.21652 -0.142111,-0.23771 -0.176216,-0.2589 -0.21084,-0.280089 -3.330029,-4.63486 15.355651,-0.0832 13.23123,-0.05064 0.34572,0.0041 0.30747,-0.01447 0.26924,-0.03204 0.23202,-0.0496 0.19431,-0.06667 0.15709,-0.08268 0.12093,-0.09818 0.0853,-0.11318 0.0491,-0.1266 0.0129,-0.14108 -0.0222,-0.15348 -0.0568,-0.16588 -0.0909,-0.17725 -0.12506,-0.18862 -0.15916,-0.19895 -0.19224,-0.20826 -0.22582,-0.21756 -0.25787,-0.22582 -0.61288,-0.474393 -0.73949,-0.500745 -0.863,-0.520898 -0.9834,-0.536919 -1.10174,-0.547253 -1.21646,-0.552938 -1.32861,-0.552938 -11.19621,-5.231722 7.062101,0.438216 0.42168,-0.02687 0.392741,-0.04548 0.363285,-0.06408 0.33383,-0.08062 0.304891,-0.09715 0.275435,-0.112138 0.24598,-0.127124 0.216524,-0.140043 0.187585,-0.153479 0.157614,-0.164848 0.128674,-0.176217 0.09973,-0.186035 0.0698,-0.195337 0.0403,-0.203605 0.0109,-0.211873 -0.0181,-0.217558 -0.0481,-0.223759 -0.077,-0.228927 L 99.938179,69.777972 99.801754,69.541811 99.636389,69.303583 99.441052,69.063804 99.21626,68.823509 98.961495,68.58373 98.677791,68.344985 98.364632,68.10779 98.0215,67.874213 97.648913,67.643736 97.246354,67.418427 96.814856,67.198285 96.352868,66.984861 95.861942,66.778672 85.544743,61.725751 l 8.251176,0.113688 0.324011,-0.01137 0.311092,-0.02584 0.297656,-0.03927 0.283187,-0.05271 0.268201,-0.06511 0.252698,-0.077 0.236161,-0.08888 0.219108,-0.09974 0.201021,-0.110071 0.182418,-0.119889 0.162781,-0.129192 0.142627,-0.137976 0.121956,-0.145727 0.09974,-0.153996 0.07803,-0.160714 0.05426,-0.167431 0.03101,-0.173116 0.0062,-0.178284 -0.01964,-0.183451 -0.04496,-0.188103 -0.07235,-0.191202 -0.09974,-0.194821 -0.128157,-0.196887 -0.157613,-0.199471 -0.187069,-0.200504 -0.217558,-0.202055 -0.248564,-0.202055 -0.281119,-0.201538 -0.313676,-0.201538 -0.347266,-0.199471 -0.381372,-0.198438 -0.416512,-0.195337 -11.486121,-5.667354 4.264856,-0.179834 0.838192,-0.02997 0.366386,-0.03411 0.332279,-0.04651 0.299207,-0.05736 0.267167,-0.06873 0.236161,-0.07906 0.206189,-0.08837 0.177251,-0.09715 0.148828,-0.10542 0.121439,-0.113172 0.0956,-0.119889 0.07028,-0.12609 0.04547,-0.132292 0.02274,-0.136943 v -0.141593 l -0.02119,-0.145728 -0.04186,-0.148311 -0.0615,-0.150895 -0.0801,-0.152962 L 89.741881,49.018 89.467479,48.709492 89.1383,48.406668 88.761579,48.113663 88.345583,47.836677 87.897032,47.580362 77.90591,41.832909 l 4.46226,-0.233577 0.360185,-0.02119 0.306958,-0.06253 0.255282,-0.09974 0.205155,-0.133325 0.155546,-0.16123 0.108004,-0.186552 0.06098,-0.206189 0.0155,-0.222726 -0.02842,-0.233577 -0.07131,-0.241329 -0.112655,-0.24443 -0.153479,-0.242879 -0.192753,-0.237711 -0.22996,-0.227893 -0.267167,-0.213424 -0.302308,-0.195337 -9.346718,-5.921602 4.342889,0.522448 0.280604,0.0067 0.256315,-0.03411 0.23151,-0.0708 0.205672,-0.104386 0.179317,-0.132809 0.151929,-0.15813 0.124024,-0.179317 0.09508,-0.19637 0.06615,-0.20929 0.03566,-0.218591 0.0041,-0.223242 -0.02687,-0.22531 -0.05943,-0.221691 -0.09302,-0.215491 -0.126608,-0.204639 -0.16123,-0.190169 z m 0.33745,7.33547 a 2.2538604,2.2538604 0 0 1 1.89394,1.222148 2.2538604,2.2538604 0 0 1 -0.97617,3.033923 2.2538604,2.2538604 0 0 1 -3.03444,-0.976168 2.2538604,2.2538604 0 0 1 0.97617,-3.03444 2.2538604,2.2538604 0 0 1 1.1405,-0.245463 z m 5.10511,9.948747 a 2.2538604,2.2538604 0 0 1 1.89394,1.221631 2.2538604,2.2538604 0 0 1 -0.97617,3.03444 2.2538604,2.2538604 0 0 1 -3.03444,-0.976168 2.2538604,2.2538604 0 0 1 0.97669,-3.03444 2.2538604,2.2538604 0 0 1 1.13998,-0.245463 z m -10.49755,0.0016 a 2.253861,2.253861 0 0 1 1.1405,0.245463 2.253861,2.253861 0 0 1 0.97617,3.03444 2.253861,2.253861 0 0 1 -3.03393,0.976168 2.253861,2.253861 0 0 1 -0.97668,-3.033923 2.253861,2.253861 0 0 1 1.89394,-1.222148 z m 15.60318,9.947196 a 2.2538604,2.2538604 0 0 1 1.893944,1.222148 2.2538604,2.2538604 0 0 1 -0.976684,3.033923 2.2538604,2.2538604 0 0 1 -3.03392,-0.976167 2.2538604,2.2538604 0 0 1 0.97616,-3.033924 2.2538604,2.2538604 0 0 1 1.1405,-0.24598 z m -20.70829,0.0016 a 2.253861,2.253861 0 0 1 1.1405,0.245463 2.253861,2.253861 0 0 1 0.97616,3.03444 2.253861,2.253861 0 0 1 -3.03392,0.976168 2.253861,2.253861 0 0 1 -0.97669,-3.033924 2.253861,2.253861 0 0 1 1.89395,-1.222147 z m 25.813408,9.947196 a 2.2538604,2.2538604 0 0 1 1.893941,1.222148 2.2538604,2.2538604 0 0 1 -0.976168,3.03444 2.2538604,2.2538604 0 0 1 -3.03444,-0.976685 2.2538604,2.2538604 0 0 1 0.976168,-3.033923 2.2538604,2.2538604 0 0 1 1.140499,-0.24598 z m -30.918528,0.0015 a 2.253861,2.253861 0 0 1 1.1405,0.245463 2.253861,2.253861 0 0 1 0.97617,3.034441 2.253861,2.253861 0 0 1 -3.03444,0.976167 2.253861,2.253861 0 0 1 -0.97617,-3.033923 2.253861,2.253861 0 0 1 1.89394,-1.222148 z m 36.023642,9.947197 a 2.2538604,2.2538604 0 0 1 1.893942,1.222147 2.2538604,2.2538604 0 0 1 -0.976168,3.034441 2.2538604,2.2538604 0 0 1 -3.03444,-0.976168 2.2538604,2.2538604 0 0 1 0.976684,-3.03444 2.2538604,2.2538604 0 0 1 1.139982,-0.24598 z m -41.128752,0.0016 a 2.253861,2.253861 0 0 1 1.1405,0.24598 2.253861,2.253861 0 0 1 0.97616,3.033923 2.253861,2.253861 0 0 1 -3.03444,0.976168 2.253861,2.253861 0 0 1 -0.97616,-3.033923 2.253861,2.253861 0 0 1 1.89394,-1.222148 z" />
  </g>
  <g
     inkscape:label="Dwgs.User"
     inkscape:groupmode="layer"
     id="g12490"
     style="display:inline" />
  <g
     inkscape:label="Drill"
     inkscape:groupmode="layer"
     id="g12492"
     style="display:inline" />
</svg>
