M48
; DRILL file {KiCad (5.1.9)-1} date 06/22/22 15:09:05
; FORMAT={3:3/ absolute / metric / suppress leading zeros}
; #@! TF.CreationDate,2022-06-22T15:09:05+02:00
; #@! TF.GenerationSoftware,Kicad,Pcbnew,(5.1.9)-1
FMAT,2
METRIC,TZ
T1C0.900
T2C1.000
%
G90
G05
T1
X124430Y-108050
X126970Y-108050
X129570Y-98090
X132110Y-98090
X134650Y-88110
X137190Y-88110
X139770Y-78200
X142310Y-78200
X144870Y-68240
X147410Y-68240
X150080Y-78210
X152620Y-78210
X155100Y-88120
X157640Y-88120
X160240Y-97970
X162780Y-97970
X165340Y-108010
X167880Y-108010
T2
X131620Y-115959
X134564Y-115959
X137509Y-115959
X140453Y-115959
X142990Y-101720
X143398Y-115959
X146342Y-115959
X148900Y-101720
X149287Y-115959
X152231Y-115959
X155176Y-115959
X158120Y-115959
X161065Y-115959
T0
M30
