%TF.GenerationSoftware,KiCad,Pcbnew,(5.1.9)-1*%
%TF.CreationDate,2022-06-22T15:09:01+02:00*%
%TF.ProjectId,Wbaum,57626175-6d2e-46b6-9963-61645f706362,rev?*%
%TF.SameCoordinates,Original*%
%TF.FileFunction,Copper,L1,Top*%
%TF.FilePolarity,Positive*%
%FSLAX46Y46*%
G04 Gerber Fmt 4.6, Leading zero omitted, Abs format (unit mm)*
G04 Created by KiCad (PCBNEW (5.1.9)-1) date 2022-06-22 15:09:01*
%MOMM*%
%LPD*%
G01*
G04 APERTURE LIST*
%TA.AperFunction,ComponentPad*%
%ADD10R,2.000000X2.000000*%
%TD*%
%TA.AperFunction,ComponentPad*%
%ADD11R,1.800000X1.800000*%
%TD*%
%TA.AperFunction,ComponentPad*%
%ADD12C,1.800000*%
%TD*%
%TA.AperFunction,Conductor*%
%ADD13C,0.250000*%
%TD*%
G04 APERTURE END LIST*
D10*
%TO.P,GND,1*%
%TO.N,Net-(D1-Pad1)*%
X131620000Y-115959000D03*
%TD*%
D11*
%TO.P,D1,1*%
%TO.N,Net-(D1-Pad1)*%
X124430000Y-108050000D03*
D12*
%TO.P,D1,2*%
%TO.N,Net-(D1-Pad2)*%
X126970000Y-108050000D03*
%TD*%
%TO.P,D2,2*%
%TO.N,Net-(D2-Pad2)*%
X132110000Y-98090000D03*
D11*
%TO.P,D2,1*%
%TO.N,Net-(D1-Pad1)*%
X129570000Y-98090000D03*
%TD*%
%TO.P,D3,1*%
%TO.N,Net-(D1-Pad1)*%
X134650000Y-88110000D03*
D12*
%TO.P,D3,2*%
%TO.N,Net-(D3-Pad2)*%
X137190000Y-88110000D03*
%TD*%
%TO.P,D4,2*%
%TO.N,Net-(D4-Pad2)*%
X142310000Y-78200000D03*
D11*
%TO.P,D4,1*%
%TO.N,Net-(D1-Pad1)*%
X139770000Y-78200000D03*
%TD*%
%TO.P,D5,1*%
%TO.N,Net-(D1-Pad1)*%
X144870000Y-68240000D03*
D12*
%TO.P,D5,2*%
%TO.N,Net-(D5-Pad2)*%
X147410000Y-68240000D03*
%TD*%
%TO.P,D6,2*%
%TO.N,Net-(D6-Pad2)*%
X152620000Y-78210000D03*
D11*
%TO.P,D6,1*%
%TO.N,Net-(D1-Pad1)*%
X150080000Y-78210000D03*
%TD*%
%TO.P,D7,1*%
%TO.N,Net-(D1-Pad1)*%
X155100000Y-88120000D03*
D12*
%TO.P,D7,2*%
%TO.N,Net-(D7-Pad2)*%
X157640000Y-88120000D03*
%TD*%
%TO.P,D8,2*%
%TO.N,Net-(D8-Pad2)*%
X162780000Y-97970000D03*
D11*
%TO.P,D8,1*%
%TO.N,Net-(D1-Pad1)*%
X160240000Y-97970000D03*
%TD*%
%TO.P,D9,1*%
%TO.N,Net-(D1-Pad1)*%
X165340000Y-108010000D03*
D12*
%TO.P,D9,2*%
%TO.N,Net-(D9-Pad2)*%
X167880000Y-108010000D03*
%TD*%
D10*
%TO.P,Bu-,1*%
%TO.N,Net-(D1-Pad1)*%
X148900000Y-101720000D03*
%TD*%
%TO.P,U2,1*%
%TO.N,Net-(D1-Pad2)*%
X134564454Y-115959000D03*
%TD*%
%TO.P,U3,1*%
%TO.N,Net-(D2-Pad2)*%
X137508908Y-115959000D03*
%TD*%
%TO.P,U4,1*%
%TO.N,Net-(D3-Pad2)*%
X140453362Y-115959000D03*
%TD*%
%TO.P,U5,1*%
%TO.N,Net-(D4-Pad2)*%
X143397816Y-115959000D03*
%TD*%
%TO.P,U6,1*%
%TO.N,Net-(D5-Pad2)*%
X146342270Y-115959000D03*
%TD*%
%TO.P,U7,1*%
%TO.N,Net-(D6-Pad2)*%
X149286724Y-115959000D03*
%TD*%
%TO.P,U8,1*%
%TO.N,Net-(D7-Pad2)*%
X152231178Y-115959000D03*
%TD*%
%TO.P,U9,1*%
%TO.N,Net-(D8-Pad2)*%
X155175632Y-115959000D03*
%TD*%
%TO.P,U10,1*%
%TO.N,Net-(D9-Pad2)*%
X158120086Y-115959000D03*
%TD*%
%TO.P,Bu,1*%
%TO.N,Net-(U11-Pad1)*%
X161064540Y-115959000D03*
%TD*%
%TO.P,Bu+,1*%
%TO.N,Net-(U11-Pad1)*%
X142990000Y-101720000D03*
%TD*%
D13*
%TO.N,Net-(D1-Pad1)*%
X124430000Y-108050000D02*
X124430000Y-106420000D01*
X129570000Y-101280000D02*
X129570000Y-98090000D01*
X124430000Y-106420000D02*
X129570000Y-101280000D01*
X129570000Y-98090000D02*
X129570000Y-96630000D01*
X134650000Y-91550000D02*
X134650000Y-88110000D01*
X129570000Y-96630000D02*
X134650000Y-91550000D01*
X134650000Y-88110000D02*
X134650000Y-87830000D01*
X139770000Y-82710000D02*
X139770000Y-78200000D01*
X134650000Y-87830000D02*
X139770000Y-82710000D01*
X139770000Y-78200000D02*
X139770000Y-77430000D01*
X144870000Y-72330000D02*
X144870000Y-68240000D01*
X139770000Y-77430000D02*
X144870000Y-72330000D01*
X144870000Y-72330000D02*
X144870000Y-74990000D01*
X148090000Y-78210000D02*
X150080000Y-78210000D01*
X144870000Y-74990000D02*
X148090000Y-78210000D01*
X150080000Y-78210000D02*
X150080000Y-84340000D01*
X153860000Y-88120000D02*
X155100000Y-88120000D01*
X150080000Y-84340000D02*
X153860000Y-88120000D01*
X158530000Y-97970000D02*
X160240000Y-97970000D01*
X160240000Y-97970000D02*
X160240000Y-104170000D01*
X164080000Y-108010000D02*
X165340000Y-108010000D01*
X160240000Y-104170000D02*
X164080000Y-108010000D01*
X158100000Y-97540000D02*
X158530000Y-97970000D01*
X155100000Y-94540000D02*
X158100000Y-97540000D01*
X155100000Y-88120000D02*
X155100000Y-94370000D01*
X155100000Y-94370000D02*
X155100000Y-94540000D01*
X131620000Y-115959000D02*
X125539000Y-115959000D01*
X124430000Y-114850000D02*
X124430000Y-113450000D01*
X125539000Y-115959000D02*
X124430000Y-114850000D01*
X124430000Y-113450000D02*
X124430000Y-108050000D01*
X124430000Y-113770000D02*
X124430000Y-113450000D01*
X155100000Y-100530000D02*
X155100000Y-98750000D01*
X148900000Y-101720000D02*
X153910000Y-101720000D01*
X155100000Y-98750000D02*
X155100000Y-99030000D01*
X153910000Y-101720000D02*
X155100000Y-100530000D01*
X155100000Y-94370000D02*
X155100000Y-98750000D01*
%TO.N,Net-(D1-Pad2)*%
X126970000Y-108050000D02*
X126970000Y-110840000D01*
X126970000Y-108050000D02*
X126970000Y-112490000D01*
X126970000Y-112490000D02*
X127480000Y-113000000D01*
X127480000Y-113000000D02*
X133300000Y-113000000D01*
X134564454Y-114264454D02*
X134564454Y-115959000D01*
X133300000Y-113000000D02*
X134564454Y-114264454D01*
%TO.N,Net-(D2-Pad2)*%
X132110000Y-98090000D02*
X132110000Y-106160000D01*
X137508908Y-111558908D02*
X135335000Y-109385000D01*
X137508908Y-115959000D02*
X137508908Y-111558908D01*
X135335000Y-109385000D02*
X135722000Y-109772000D01*
X132110000Y-106160000D02*
X135335000Y-109385000D01*
%TO.N,Net-(D3-Pad2)*%
X137190000Y-96790000D02*
X137190000Y-109890000D01*
X137190000Y-97260000D02*
X137190000Y-96790000D01*
X137190000Y-96790000D02*
X137190000Y-88110000D01*
X140453362Y-113153362D02*
X140453362Y-115959000D01*
X137190000Y-109890000D02*
X140453362Y-113153362D01*
%TO.N,Net-(D4-Pad2)*%
X142310000Y-78200000D02*
X142310000Y-90980000D01*
X142310000Y-90980000D02*
X139400000Y-93890000D01*
X139400000Y-93890000D02*
X139400000Y-109350000D01*
X143397816Y-113347816D02*
X143397816Y-115959000D01*
X139400000Y-109350000D02*
X143397816Y-113347816D01*
%TO.N,Net-(D9-Pad2)*%
X158120086Y-120120086D02*
X158120086Y-115959000D01*
X159030000Y-121030000D02*
X158120086Y-120120086D01*
X166530000Y-121030000D02*
X159030000Y-121030000D01*
X167880000Y-119680000D02*
X166530000Y-121030000D01*
X167880000Y-108010000D02*
X167880000Y-119680000D01*
%TO.N,Net-(U11-Pad1)*%
X147290000Y-110110000D02*
X158510000Y-110110000D01*
X161064540Y-112664540D02*
X161064540Y-115959000D01*
X158510000Y-110110000D02*
X161064540Y-112664540D01*
X142990000Y-105810000D02*
X144390000Y-107210000D01*
X142990000Y-101720000D02*
X142990000Y-105810000D01*
X144390000Y-107210000D02*
X147290000Y-110110000D01*
X143910000Y-106730000D02*
X144390000Y-107210000D01*
%TD*%
M02*
