%TF.GenerationSoftware,KiCad,Pcbnew,(5.1.9)-1*%
%TF.CreationDate,2022-06-22T15:09:01+02:00*%
%TF.ProjectId,Wbaum,57626175-6d2e-46b6-9963-61645f706362,rev?*%
%TF.SameCoordinates,Original*%
%TF.FileFunction,Copper,L2,Bot*%
%TF.FilePolarity,Positive*%
%FSLAX46Y46*%
G04 Gerber Fmt 4.6, Leading zero omitted, Abs format (unit mm)*
G04 Created by KiCad (PCBNEW (5.1.9)-1) date 2022-06-22 15:09:01*
%MOMM*%
%LPD*%
G01*
G04 APERTURE LIST*
%TA.AperFunction,ComponentPad*%
%ADD10R,2.000000X2.000000*%
%TD*%
%TA.AperFunction,ComponentPad*%
%ADD11R,1.800000X1.800000*%
%TD*%
%TA.AperFunction,ComponentPad*%
%ADD12C,1.800000*%
%TD*%
%TA.AperFunction,Conductor*%
%ADD13C,0.250000*%
%TD*%
G04 APERTURE END LIST*
D10*
%TO.P,GND,1*%
%TO.N,Net-(D1-Pad1)*%
X131620000Y-115959000D03*
%TD*%
D11*
%TO.P,D1,1*%
%TO.N,Net-(D1-Pad1)*%
X124430000Y-108050000D03*
D12*
%TO.P,D1,2*%
%TO.N,Net-(D1-Pad2)*%
X126970000Y-108050000D03*
%TD*%
%TO.P,D2,2*%
%TO.N,Net-(D2-Pad2)*%
X132110000Y-98090000D03*
D11*
%TO.P,D2,1*%
%TO.N,Net-(D1-Pad1)*%
X129570000Y-98090000D03*
%TD*%
%TO.P,D3,1*%
%TO.N,Net-(D1-Pad1)*%
X134650000Y-88110000D03*
D12*
%TO.P,D3,2*%
%TO.N,Net-(D3-Pad2)*%
X137190000Y-88110000D03*
%TD*%
%TO.P,D4,2*%
%TO.N,Net-(D4-Pad2)*%
X142310000Y-78200000D03*
D11*
%TO.P,D4,1*%
%TO.N,Net-(D1-Pad1)*%
X139770000Y-78200000D03*
%TD*%
%TO.P,D5,1*%
%TO.N,Net-(D1-Pad1)*%
X144870000Y-68240000D03*
D12*
%TO.P,D5,2*%
%TO.N,Net-(D5-Pad2)*%
X147410000Y-68240000D03*
%TD*%
%TO.P,D6,2*%
%TO.N,Net-(D6-Pad2)*%
X152620000Y-78210000D03*
D11*
%TO.P,D6,1*%
%TO.N,Net-(D1-Pad1)*%
X150080000Y-78210000D03*
%TD*%
%TO.P,D7,1*%
%TO.N,Net-(D1-Pad1)*%
X155100000Y-88120000D03*
D12*
%TO.P,D7,2*%
%TO.N,Net-(D7-Pad2)*%
X157640000Y-88120000D03*
%TD*%
%TO.P,D8,2*%
%TO.N,Net-(D8-Pad2)*%
X162780000Y-97970000D03*
D11*
%TO.P,D8,1*%
%TO.N,Net-(D1-Pad1)*%
X160240000Y-97970000D03*
%TD*%
%TO.P,D9,1*%
%TO.N,Net-(D1-Pad1)*%
X165340000Y-108010000D03*
D12*
%TO.P,D9,2*%
%TO.N,Net-(D9-Pad2)*%
X167880000Y-108010000D03*
%TD*%
D10*
%TO.P,Bu-,1*%
%TO.N,Net-(D1-Pad1)*%
X148900000Y-101720000D03*
%TD*%
%TO.P,U2,1*%
%TO.N,Net-(D1-Pad2)*%
X134564454Y-115959000D03*
%TD*%
%TO.P,U3,1*%
%TO.N,Net-(D2-Pad2)*%
X137508908Y-115959000D03*
%TD*%
%TO.P,U4,1*%
%TO.N,Net-(D3-Pad2)*%
X140453362Y-115959000D03*
%TD*%
%TO.P,U5,1*%
%TO.N,Net-(D4-Pad2)*%
X143397816Y-115959000D03*
%TD*%
%TO.P,U6,1*%
%TO.N,Net-(D5-Pad2)*%
X146342270Y-115959000D03*
%TD*%
%TO.P,U7,1*%
%TO.N,Net-(D6-Pad2)*%
X149286724Y-115959000D03*
%TD*%
%TO.P,U8,1*%
%TO.N,Net-(D7-Pad2)*%
X152231178Y-115959000D03*
%TD*%
%TO.P,U9,1*%
%TO.N,Net-(D8-Pad2)*%
X155175632Y-115959000D03*
%TD*%
%TO.P,U10,1*%
%TO.N,Net-(D9-Pad2)*%
X158120086Y-115959000D03*
%TD*%
%TO.P,Bu,1*%
%TO.N,Net-(U11-Pad1)*%
X161064540Y-115959000D03*
%TD*%
%TO.P,Bu+,1*%
%TO.N,Net-(U11-Pad1)*%
X142990000Y-101720000D03*
%TD*%
D13*
%TO.N,Net-(D5-Pad2)*%
X146040000Y-69610000D02*
X147410000Y-68240000D01*
X146040000Y-84330000D02*
X146040000Y-83550000D01*
X146040000Y-83550000D02*
X146040000Y-69610000D01*
X146040000Y-98940000D02*
X146040000Y-113420000D01*
X146040000Y-83550000D02*
X146040000Y-98940000D01*
X146040000Y-98940000D02*
X146040000Y-100170000D01*
X146342270Y-113722270D02*
X146342270Y-115959000D01*
X146040000Y-113420000D02*
X146342270Y-113722270D01*
%TO.N,Net-(D6-Pad2)*%
X152620000Y-94870000D02*
X152620000Y-105310000D01*
X152620000Y-78210000D02*
X152620000Y-94870000D01*
X152620000Y-94870000D02*
X152620000Y-95600000D01*
X149286724Y-108643276D02*
X149286724Y-115959000D01*
X152620000Y-105310000D02*
X149286724Y-108643276D01*
%TO.N,Net-(D7-Pad2)*%
X157640000Y-91460000D02*
X157640000Y-88120000D01*
X155802000Y-93298000D02*
X157640000Y-91460000D01*
X155802000Y-93298000D02*
X155802000Y-106938000D01*
X152231178Y-110508822D02*
X152231178Y-115959000D01*
X155802000Y-106938000D02*
X152231178Y-110508822D01*
%TO.N,Net-(D8-Pad2)*%
X162780000Y-97970000D02*
X162780000Y-104860000D01*
X155175632Y-115959000D02*
X155175632Y-111964368D01*
X162280000Y-104860000D02*
X162780000Y-104860000D01*
X155175632Y-111964368D02*
X162280000Y-104860000D01*
%TD*%
M02*
