%TF.GenerationSoftware,KiCad,Pcbnew,(5.1.9)-1*%
%TF.CreationDate,2022-06-22T15:09:01+02:00*%
%TF.ProjectId,Wbaum,57626175-6d2e-46b6-9963-61645f706362,rev?*%
%TF.SameCoordinates,Original*%
%TF.FileFunction,Profile,NP*%
%FSLAX46Y46*%
G04 Gerber Fmt 4.6, Leading zero omitted, Abs format (unit mm)*
G04 Created by KiCad (PCBNEW (5.1.9)-1) date 2022-06-22 15:09:01*
%MOMM*%
%LPD*%
G01*
G04 APERTURE LIST*
%TA.AperFunction,Profile*%
%ADD10C,0.100000*%
%TD*%
G04 APERTURE END LIST*
D10*
X176145898Y-124078899D02*
X189376998Y-124028099D01*
X189376998Y-124028099D02*
X189722798Y-124032499D01*
X189722798Y-124032499D02*
X190030298Y-124018199D01*
X190030298Y-124018199D02*
X190299698Y-123985899D01*
X190299698Y-123985899D02*
X190531498Y-123936199D01*
X190531498Y-123936199D02*
X190725898Y-123869699D01*
X190725898Y-123869699D02*
X190882998Y-123786999D01*
X190882998Y-123786999D02*
X191003998Y-123688999D01*
X191003998Y-123688999D02*
X191088998Y-123575999D01*
X191088998Y-123575999D02*
X191137998Y-123448899D01*
X191137998Y-123448899D02*
X191150998Y-123308199D01*
X191150998Y-123308199D02*
X191128998Y-123154599D01*
X191128998Y-123154599D02*
X191071998Y-122988799D01*
X191071998Y-122988799D02*
X190980998Y-122811299D01*
X190980998Y-122811299D02*
X190855998Y-122622899D01*
X190855998Y-122622899D02*
X190504498Y-122215599D01*
X190504498Y-122215599D02*
X190278998Y-121998099D01*
X190278998Y-121998099D02*
X190020898Y-121772199D01*
X190020898Y-121772199D02*
X189407998Y-121297699D01*
X189407998Y-121297699D02*
X188668698Y-120797199D01*
X188668698Y-120797199D02*
X187805798Y-120275999D01*
X187805798Y-120275999D02*
X186822198Y-119739099D01*
X186822198Y-119739099D02*
X185720698Y-119191799D01*
X185720698Y-119191799D02*
X184504098Y-118638999D01*
X184504098Y-118638999D02*
X183175398Y-118086099D01*
X183175398Y-118086099D02*
X171978998Y-112854399D01*
X171978998Y-112854399D02*
X179041298Y-113292799D01*
X179041298Y-113292799D02*
X179463098Y-113265899D01*
X179463098Y-113265899D02*
X179855598Y-113220099D01*
X179855598Y-113220099D02*
X180218798Y-113156399D01*
X180218798Y-113156399D02*
X180552798Y-113075599D01*
X180552798Y-113075599D02*
X180857498Y-112978599D01*
X180857498Y-112978599D02*
X181132898Y-112866299D01*
X181132898Y-112866299D02*
X181378898Y-112739399D01*
X181378898Y-112739399D02*
X181595598Y-112598999D01*
X181595598Y-112598999D02*
X181782998Y-112445799D01*
X181782998Y-112445799D02*
X181941098Y-112280799D01*
X181941098Y-112280799D02*
X182069698Y-112104799D01*
X182069698Y-112104799D02*
X182168998Y-111918599D01*
X182168998Y-111918599D02*
X182238898Y-111723199D01*
X182238898Y-111723199D02*
X182279298Y-111519399D01*
X182279298Y-111519399D02*
X182290398Y-111307999D01*
X182290398Y-111307999D02*
X182271998Y-111089999D01*
X182271998Y-111089999D02*
X182224198Y-110866199D01*
X182224198Y-110866199D02*
X182146898Y-110637499D01*
X182146898Y-110637499D02*
X182040098Y-110404799D01*
X182040098Y-110404799D02*
X181903798Y-110168799D01*
X181903798Y-110168799D02*
X181738098Y-109930599D01*
X181738098Y-109930599D02*
X181542798Y-109690899D01*
X181542798Y-109690899D02*
X181317998Y-109450599D01*
X181317998Y-109450599D02*
X181063598Y-109210599D01*
X181063598Y-109210599D02*
X180779698Y-108971799D01*
X180779698Y-108971799D02*
X180466298Y-108734999D01*
X180466298Y-108734999D02*
X180123198Y-108501099D01*
X180123198Y-108501099D02*
X179750598Y-108270899D01*
X179750598Y-108270899D02*
X179348398Y-108045399D01*
X179348398Y-108045399D02*
X178916498Y-107825499D01*
X178916498Y-107825499D02*
X178454998Y-107611799D01*
X178454998Y-107611799D02*
X177963898Y-107405499D01*
X177963898Y-107405499D02*
X167646598Y-102352999D01*
X167646598Y-102352999D02*
X175897898Y-102466199D01*
X175897898Y-102466199D02*
X176221698Y-102454899D01*
X176221698Y-102454899D02*
X176532798Y-102429299D01*
X176532798Y-102429299D02*
X176830398Y-102389899D01*
X176830398Y-102389899D02*
X177113798Y-102337399D01*
X177113798Y-102337399D02*
X177382098Y-102272299D01*
X177382098Y-102272299D02*
X177634798Y-102195099D01*
X177634798Y-102195099D02*
X177870898Y-102106299D01*
X177870898Y-102106299D02*
X178089898Y-102006699D01*
X178089898Y-102006699D02*
X178290898Y-101896599D01*
X178290898Y-101896599D02*
X178473198Y-101776699D01*
X178473198Y-101776699D02*
X178636098Y-101647499D01*
X178636098Y-101647499D02*
X178778798Y-101509599D01*
X178778798Y-101509599D02*
X178900498Y-101363499D01*
X178900498Y-101363499D02*
X179000698Y-101209799D01*
X179000698Y-101209799D02*
X179078398Y-101048999D01*
X179078398Y-101048999D02*
X179132998Y-100881699D01*
X179132998Y-100881699D02*
X179163698Y-100708499D01*
X179163698Y-100708499D02*
X179169798Y-100529899D01*
X179169798Y-100529899D02*
X179150498Y-100346499D01*
X179150498Y-100346499D02*
X179105098Y-100158799D01*
X179105098Y-100158799D02*
X179032898Y-99967299D01*
X179032898Y-99967299D02*
X178933098Y-99772699D01*
X178933098Y-99772699D02*
X178804898Y-99575499D01*
X178804898Y-99575499D02*
X178647698Y-99376299D01*
X178647698Y-99376299D02*
X178460598Y-99175499D01*
X178460598Y-99175499D02*
X178243098Y-98973799D01*
X178243098Y-98973799D02*
X177994198Y-98771799D01*
X177994198Y-98771799D02*
X177713298Y-98569899D01*
X177713298Y-98569899D02*
X177399598Y-98368699D01*
X177399598Y-98368699D02*
X177052398Y-98168899D01*
X177052398Y-98168899D02*
X176670898Y-97970799D01*
X176670898Y-97970799D02*
X176254398Y-97775199D01*
X176254398Y-97775199D02*
X164768098Y-92107999D01*
X164768098Y-92107999D02*
X169033298Y-91927999D01*
X169033298Y-91927999D02*
X169871398Y-91898299D01*
X169871398Y-91898299D02*
X170237598Y-91863999D01*
X170237598Y-91863999D02*
X170569898Y-91817699D01*
X170569898Y-91817699D02*
X170869198Y-91759899D01*
X170869198Y-91759899D02*
X171136498Y-91691299D01*
X171136498Y-91691299D02*
X171372698Y-91612499D01*
X171372698Y-91612499D02*
X171578898Y-91524199D01*
X171578898Y-91524199D02*
X171755898Y-91426999D01*
X171755898Y-91426999D02*
X171904798Y-91321499D01*
X171904798Y-91321499D02*
X172026398Y-91208399D01*
X172026398Y-91208399D02*
X172121798Y-91088399D01*
X172121798Y-91088399D02*
X172191998Y-90961999D01*
X172191998Y-90961999D02*
X172237798Y-90829899D01*
X172237798Y-90829899D02*
X172260198Y-90692799D01*
X172260198Y-90692799D02*
X172260198Y-90551199D01*
X172260198Y-90551199D02*
X172238898Y-90405899D01*
X172238898Y-90405899D02*
X172196998Y-90257399D01*
X172196998Y-90257399D02*
X172135598Y-90106499D01*
X172135598Y-90106499D02*
X172055698Y-89953599D01*
X172055698Y-89953599D02*
X171843998Y-89644999D01*
X171843998Y-89644999D02*
X171569598Y-89336499D01*
X171569598Y-89336499D02*
X171240198Y-89033499D01*
X171240198Y-89033499D02*
X170863498Y-88740799D01*
X170863498Y-88740799D02*
X170447298Y-88463799D01*
X170447298Y-88463799D02*
X169999098Y-88207399D01*
X169999098Y-88207399D02*
X160007698Y-82459699D01*
X160007698Y-82459699D02*
X164470198Y-82226099D01*
X164470198Y-82226099D02*
X164830198Y-82205199D01*
X164830198Y-82205199D02*
X165137298Y-82142599D01*
X165137298Y-82142599D02*
X165392698Y-82042699D01*
X165392698Y-82042699D02*
X165597598Y-81909799D01*
X165597598Y-81909799D02*
X165753298Y-81748099D01*
X165753298Y-81748099D02*
X165861098Y-81561799D01*
X165861098Y-81561799D02*
X165922198Y-81355399D01*
X165922198Y-81355399D02*
X165937898Y-81133099D01*
X165937898Y-81133099D02*
X165909498Y-80899199D01*
X165909498Y-80899199D02*
X165838198Y-80657899D01*
X165838198Y-80657899D02*
X165725198Y-80413599D01*
X165725198Y-80413599D02*
X165571798Y-80170499D01*
X165571798Y-80170499D02*
X165379298Y-79932899D01*
X165379298Y-79932899D02*
X165148898Y-79705199D01*
X165148898Y-79705199D02*
X164881998Y-79491499D01*
X164881998Y-79491499D02*
X164579598Y-79296299D01*
X164579598Y-79296299D02*
X155233098Y-73374499D01*
X155233098Y-73374499D02*
X159575598Y-73897299D01*
X159575598Y-73897299D02*
X159856398Y-73903999D01*
X159856398Y-73903999D02*
X160112898Y-73869799D01*
X160112898Y-73869799D02*
X160344298Y-73798699D01*
X160344298Y-73798699D02*
X160549998Y-73694599D01*
X160549998Y-73694599D02*
X160729298Y-73561499D01*
X160729298Y-73561499D02*
X160881198Y-73403399D01*
X160881198Y-73403399D02*
X161005198Y-73224299D01*
X161005198Y-73224299D02*
X161100498Y-73028099D01*
X161100498Y-73028099D02*
X161166198Y-72818699D01*
X161166198Y-72818699D02*
X161201798Y-72600199D01*
X161201798Y-72600199D02*
X161206398Y-72376599D01*
X161206398Y-72376599D02*
X161179298Y-72151699D01*
X161179298Y-72151699D02*
X161119798Y-71929599D01*
X161119798Y-71929599D02*
X161027098Y-71714199D01*
X161027098Y-71714199D02*
X160900498Y-71509499D01*
X160900498Y-71509499D02*
X160739098Y-71319399D01*
X160739098Y-71319399D02*
X145941298Y-58618599D01*
X145941298Y-58618599D02*
X131706498Y-71289399D01*
X131706498Y-71289399D02*
X131545198Y-71479399D01*
X131545198Y-71479399D02*
X131418598Y-71684099D01*
X131418598Y-71684099D02*
X131325798Y-71899499D01*
X131325798Y-71899499D02*
X131266298Y-72121699D01*
X131266298Y-72121699D02*
X131239198Y-72346499D01*
X131239198Y-72346499D02*
X131243798Y-72570199D01*
X131243798Y-72570199D02*
X131279398Y-72788699D01*
X131279398Y-72788699D02*
X131345198Y-72997999D01*
X131345198Y-72997999D02*
X131440498Y-73194299D01*
X131440498Y-73194299D02*
X131564398Y-73373399D01*
X131564398Y-73373399D02*
X131716398Y-73531499D01*
X131716398Y-73531499D02*
X131895598Y-73664599D01*
X131895598Y-73664599D02*
X132101298Y-73768599D01*
X132101298Y-73768599D02*
X132332798Y-73839799D01*
X132332798Y-73839799D02*
X132589298Y-73873999D01*
X132589298Y-73873999D02*
X132869998Y-73867299D01*
X132869998Y-73867299D02*
X137212598Y-73344499D01*
X137212598Y-73344499D02*
X127865998Y-79266199D01*
X127865998Y-79266199D02*
X127563698Y-79461499D01*
X127563698Y-79461499D02*
X127296698Y-79675199D01*
X127296698Y-79675199D02*
X127066298Y-79902899D01*
X127066298Y-79902899D02*
X126873798Y-80140499D01*
X126873798Y-80140499D02*
X126720498Y-80383599D01*
X126720498Y-80383599D02*
X126607498Y-80627899D01*
X126607498Y-80627899D02*
X126536198Y-80869199D01*
X126536198Y-80869199D02*
X126507698Y-81103099D01*
X126507698Y-81103099D02*
X126523398Y-81325399D01*
X126523398Y-81325399D02*
X126584498Y-81531799D01*
X126584498Y-81531799D02*
X126692398Y-81717999D01*
X126692398Y-81717999D02*
X126848098Y-81879799D01*
X126848098Y-81879799D02*
X127052998Y-82012699D01*
X127052998Y-82012699D02*
X127308398Y-82112599D01*
X127308398Y-82112599D02*
X127615398Y-82175199D01*
X127615398Y-82175199D02*
X127975498Y-82196099D01*
X127975498Y-82196099D02*
X132437998Y-82429599D01*
X132437998Y-82429599D02*
X122446598Y-88177399D01*
X122446598Y-88177399D02*
X121998398Y-88433799D01*
X121998398Y-88433799D02*
X121582098Y-88710799D01*
X121582098Y-88710799D02*
X121205398Y-89003399D01*
X121205398Y-89003399D02*
X120876098Y-89306499D01*
X120876098Y-89306499D02*
X120601698Y-89614999D01*
X120601698Y-89614999D02*
X120389998Y-89923599D01*
X120389998Y-89923599D02*
X120309998Y-90076399D01*
X120309998Y-90076399D02*
X120248598Y-90227399D01*
X120248598Y-90227399D02*
X120206798Y-90375899D01*
X120206798Y-90375899D02*
X120185398Y-90521199D01*
X120185398Y-90521199D02*
X120185398Y-90662799D01*
X120185398Y-90662799D02*
X120207898Y-90799899D01*
X120207898Y-90799899D02*
X120253698Y-90931999D01*
X120253698Y-90931999D02*
X120323798Y-91058399D01*
X120323798Y-91058399D02*
X120419198Y-91178399D01*
X120419198Y-91178399D02*
X120540898Y-91291499D01*
X120540898Y-91291499D02*
X120689698Y-91396899D01*
X120689698Y-91396899D02*
X120866798Y-91494099D01*
X120866798Y-91494099D02*
X121072898Y-91582499D01*
X121072898Y-91582499D02*
X121309198Y-91661199D01*
X121309198Y-91661199D02*
X121576498Y-91729899D01*
X121576498Y-91729899D02*
X121875798Y-91787699D01*
X121875798Y-91787699D02*
X122208098Y-91833999D01*
X122208098Y-91833999D02*
X122574298Y-91868299D01*
X122574298Y-91868299D02*
X123412398Y-91897999D01*
X123412398Y-91897999D02*
X127677598Y-92077899D01*
X127677598Y-92077899D02*
X116191198Y-97745199D01*
X116191198Y-97745199D02*
X115774698Y-97940799D01*
X115774698Y-97940799D02*
X115393198Y-98138799D01*
X115393198Y-98138799D02*
X115045998Y-98338699D01*
X115045998Y-98338699D02*
X114732298Y-98539899D01*
X114732298Y-98539899D02*
X114451398Y-98741799D01*
X114451398Y-98741799D02*
X114202498Y-98943799D01*
X114202498Y-98943799D02*
X113984898Y-99145499D01*
X113984898Y-99145499D02*
X113797898Y-99346199D01*
X113797898Y-99346199D02*
X113640698Y-99545499D01*
X113640698Y-99545499D02*
X113512498Y-99742699D01*
X113512498Y-99742699D02*
X113412698Y-99937299D01*
X113412698Y-99937299D02*
X113340498Y-100128699D01*
X113340498Y-100128699D02*
X113295098Y-100316499D01*
X113295098Y-100316499D02*
X113275798Y-100499899D01*
X113275798Y-100499899D02*
X113281898Y-100678499D01*
X113281898Y-100678499D02*
X113312598Y-100851699D01*
X113312598Y-100851699D02*
X113367198Y-101018999D01*
X113367198Y-101018999D02*
X113444898Y-101179699D01*
X113444898Y-101179699D02*
X113545098Y-101333499D01*
X113545098Y-101333499D02*
X113666798Y-101479599D01*
X113666798Y-101479599D02*
X113809498Y-101617499D01*
X113809498Y-101617499D02*
X113972398Y-101746699D01*
X113972398Y-101746699D02*
X114154698Y-101866599D01*
X114154698Y-101866599D02*
X114355698Y-101976699D01*
X114355698Y-101976699D02*
X114574698Y-102076299D01*
X114574698Y-102076299D02*
X114810798Y-102164999D01*
X114810798Y-102164999D02*
X115063498Y-102242199D01*
X115063498Y-102242199D02*
X115331798Y-102307399D01*
X115331798Y-102307399D02*
X115615198Y-102359899D01*
X115615198Y-102359899D02*
X115912798Y-102399199D01*
X115912798Y-102399199D02*
X116223898Y-102424799D01*
X116223898Y-102424799D02*
X116547698Y-102436099D01*
X116547698Y-102436099D02*
X124799098Y-102322999D01*
X124799098Y-102322999D02*
X114481698Y-107375399D01*
X114481698Y-107375399D02*
X113990498Y-107581699D01*
X113990498Y-107581699D02*
X113528698Y-107794999D01*
X113528698Y-107794999D02*
X113096398Y-108014399D01*
X113096398Y-108014399D02*
X112693498Y-108239099D01*
X112693498Y-108239099D02*
X112319998Y-108468199D01*
X112319998Y-108468199D02*
X111976098Y-108700799D01*
X111976098Y-108700799D02*
X111661498Y-108935999D01*
X111661498Y-108935999D02*
X111376398Y-109172899D01*
X111376398Y-109172899D02*
X111120798Y-109410599D01*
X111120798Y-109410599D02*
X110894598Y-109648399D01*
X110894598Y-109648399D02*
X110697898Y-109885199D01*
X110697898Y-109885199D02*
X110530598Y-110120199D01*
X110530598Y-110120199D02*
X110392798Y-110352599D01*
X110392798Y-110352599D02*
X110284398Y-110581399D01*
X110284398Y-110581399D02*
X110205498Y-110805799D01*
X110205498Y-110805799D02*
X110155998Y-111024799D01*
X110155998Y-111024799D02*
X110135898Y-111237699D01*
X110135898Y-111237699D02*
X110145398Y-111443399D01*
X110145398Y-111443399D02*
X110184198Y-111641199D01*
X110184198Y-111641199D02*
X110252498Y-111830199D01*
X110252498Y-111830199D02*
X110350298Y-112009399D01*
X110350298Y-112009399D02*
X110477498Y-112177999D01*
X110477498Y-112177999D02*
X110634098Y-112335199D01*
X110634098Y-112335199D02*
X110820198Y-112479899D01*
X110820198Y-112479899D02*
X111035798Y-112611399D01*
X111035798Y-112611399D02*
X111280798Y-112728799D01*
X111280798Y-112728799D02*
X111555198Y-112831099D01*
X111555198Y-112831099D02*
X111859098Y-112917599D01*
X111859098Y-112917599D02*
X112192398Y-112987299D01*
X112192398Y-112987299D02*
X112555198Y-113039299D01*
X112555198Y-113039299D02*
X112947398Y-113072799D01*
X112947398Y-113072799D02*
X113369098Y-113086799D01*
X113369098Y-113086799D02*
X120079498Y-112753999D01*
X120079498Y-112753999D02*
X109270098Y-118056099D01*
X109270098Y-118056099D02*
X107941398Y-118608999D01*
X107941398Y-118608999D02*
X106724898Y-119161699D01*
X106724898Y-119161699D02*
X105623398Y-119709099D01*
X105623398Y-119709099D02*
X104639798Y-120245999D01*
X104639798Y-120245999D02*
X103776898Y-120767199D01*
X103776898Y-120767199D02*
X103037598Y-121267599D01*
X103037598Y-121267599D02*
X102424698Y-121742199D01*
X102424698Y-121742199D02*
X102166498Y-121968099D01*
X102166498Y-121968099D02*
X101941098Y-122185599D01*
X101941098Y-122185599D02*
X101748698Y-122394099D01*
X101748698Y-122394099D02*
X101589598Y-122592899D01*
X101589598Y-122592899D02*
X101464298Y-122781299D01*
X101464298Y-122781299D02*
X101373098Y-122958799D01*
X101373098Y-122958799D02*
X101316398Y-123124599D01*
X101316398Y-123124599D02*
X101294498Y-123278199D01*
X101294498Y-123278199D02*
X101307798Y-123418899D01*
X101307798Y-123418899D02*
X101356498Y-123545999D01*
X101356498Y-123545999D02*
X101441198Y-123658899D01*
X101441198Y-123658899D02*
X101562098Y-123756999D01*
X101562098Y-123756999D02*
X101719598Y-123839599D01*
X101719598Y-123839599D02*
X101914098Y-123906099D01*
X101914098Y-123906099D02*
X102145798Y-123955899D01*
X102145798Y-123955899D02*
X102415298Y-123988199D01*
X102415298Y-123988199D02*
X102722698Y-124002499D01*
X102722698Y-124002499D02*
X103068598Y-123998099D01*
X103068598Y-123998099D02*
X116299698Y-124048899D01*
X116299698Y-124048899D02*
X130948798Y-124107099D01*
X130948798Y-124107099D02*
X127187598Y-128764099D01*
X127187598Y-128764099D02*
X126771598Y-129320099D01*
X126771598Y-129320099D02*
X126613098Y-129559199D01*
X126613098Y-129559199D02*
X126489498Y-129773699D01*
X126489498Y-129773699D02*
X126401998Y-129964599D01*
X126401998Y-129964599D02*
X126351998Y-130132799D01*
X126351998Y-130132799D02*
X126340798Y-130279199D01*
X126340798Y-130279199D02*
X126369598Y-130404699D01*
X126369598Y-130404699D02*
X126439998Y-130510399D01*
X126439998Y-130510399D02*
X126553098Y-130597199D01*
X126553098Y-130597199D02*
X126710298Y-130665999D01*
X126710298Y-130665999D02*
X126912898Y-130717699D01*
X126912898Y-130717699D02*
X127162198Y-130753399D01*
X127162198Y-130753399D02*
X127459698Y-130773999D01*
X127459698Y-130773999D02*
X128203998Y-130773399D01*
X128203998Y-130773399D02*
X163111798Y-130773399D01*
X163111798Y-130773399D02*
X163466398Y-130803899D01*
X163466398Y-130803899D02*
X163779698Y-130814199D01*
X163779698Y-130814199D02*
X164052198Y-130804299D01*
X164052198Y-130804299D02*
X164284498Y-130773999D01*
X164284498Y-130773999D02*
X164476998Y-130723199D01*
X164476998Y-130723199D02*
X164630298Y-130651999D01*
X164630298Y-130651999D02*
X164744898Y-130560199D01*
X164744898Y-130560199D02*
X164821298Y-130447799D01*
X164821298Y-130447799D02*
X164860098Y-130314699D01*
X164860098Y-130314699D02*
X164861698Y-130160799D01*
X164861698Y-130160799D02*
X164826598Y-129985999D01*
X164826598Y-129985999D02*
X164755398Y-129790299D01*
X164755398Y-129790299D02*
X164648498Y-129573599D01*
X164648498Y-129573599D02*
X164506598Y-129335799D01*
X164506598Y-129335799D02*
X164330098Y-129076799D01*
X164330098Y-129076799D02*
X164119398Y-128796599D01*
X164119398Y-128796599D02*
X160789298Y-124162199D01*
X160789298Y-124162199D02*
X176145898Y-124078899D01*
X176145898Y-124078899D02*
X176145898Y-124078899D01*
M02*
