%TF.GenerationSoftware,KiCad,Pcbnew,(5.1.9)-1*%
%TF.CreationDate,2022-06-22T15:09:01+02:00*%
%TF.ProjectId,Wbaum,57626175-6d2e-46b6-9963-61645f706362,rev?*%
%TF.SameCoordinates,Original*%
%TF.FileFunction,Legend,Top*%
%TF.FilePolarity,Positive*%
%FSLAX46Y46*%
G04 Gerber Fmt 4.6, Leading zero omitted, Abs format (unit mm)*
G04 Created by KiCad (PCBNEW (5.1.9)-1) date 2022-06-22 15:09:01*
%MOMM*%
%LPD*%
G01*
G04 APERTURE LIST*
%ADD10C,0.100000*%
%ADD11C,0.120000*%
%ADD12C,0.050000*%
%ADD13C,0.010000*%
%ADD14C,0.150000*%
G04 APERTURE END LIST*
D10*
X141929523Y-127442380D02*
X141929523Y-126442380D01*
X142500952Y-127442380D02*
X142072380Y-126870952D01*
X142500952Y-126442380D02*
X141929523Y-127013809D01*
X142929523Y-127442380D02*
X142929523Y-126442380D01*
X142929523Y-126918571D02*
X143500952Y-126918571D01*
X143500952Y-127442380D02*
X143500952Y-126442380D01*
X144310476Y-126918571D02*
X143977142Y-126918571D01*
X143977142Y-127442380D02*
X143977142Y-126442380D01*
X144453333Y-126442380D01*
X145786666Y-126442380D02*
X145881904Y-126442380D01*
X145977142Y-126490000D01*
X146024761Y-126537619D01*
X146072380Y-126632857D01*
X146120000Y-126823333D01*
X146120000Y-127061428D01*
X146072380Y-127251904D01*
X146024761Y-127347142D01*
X145977142Y-127394761D01*
X145881904Y-127442380D01*
X145786666Y-127442380D01*
X145691428Y-127394761D01*
X145643809Y-127347142D01*
X145596190Y-127251904D01*
X145548571Y-127061428D01*
X145548571Y-126823333D01*
X145596190Y-126632857D01*
X145643809Y-126537619D01*
X145691428Y-126490000D01*
X145786666Y-126442380D01*
X146977142Y-126442380D02*
X146786666Y-126442380D01*
X146691428Y-126490000D01*
X146643809Y-126537619D01*
X146548571Y-126680476D01*
X146500952Y-126870952D01*
X146500952Y-127251904D01*
X146548571Y-127347142D01*
X146596190Y-127394761D01*
X146691428Y-127442380D01*
X146881904Y-127442380D01*
X146977142Y-127394761D01*
X147024761Y-127347142D01*
X147072380Y-127251904D01*
X147072380Y-127013809D01*
X147024761Y-126918571D01*
X146977142Y-126870952D01*
X146881904Y-126823333D01*
X146691428Y-126823333D01*
X146596190Y-126870952D01*
X146548571Y-126918571D01*
X146500952Y-127013809D01*
X147500952Y-127347142D02*
X147548571Y-127394761D01*
X147500952Y-127442380D01*
X147453333Y-127394761D01*
X147500952Y-127347142D01*
X147500952Y-127442380D01*
X147929523Y-126537619D02*
X147977142Y-126490000D01*
X148072380Y-126442380D01*
X148310476Y-126442380D01*
X148405714Y-126490000D01*
X148453333Y-126537619D01*
X148500952Y-126632857D01*
X148500952Y-126728095D01*
X148453333Y-126870952D01*
X147881904Y-127442380D01*
X148500952Y-127442380D01*
X149120000Y-126442380D02*
X149215238Y-126442380D01*
X149310476Y-126490000D01*
X149358095Y-126537619D01*
X149405714Y-126632857D01*
X149453333Y-126823333D01*
X149453333Y-127061428D01*
X149405714Y-127251904D01*
X149358095Y-127347142D01*
X149310476Y-127394761D01*
X149215238Y-127442380D01*
X149120000Y-127442380D01*
X149024761Y-127394761D01*
X148977142Y-127347142D01*
X148929523Y-127251904D01*
X148881904Y-127061428D01*
X148881904Y-126823333D01*
X148929523Y-126632857D01*
X148977142Y-126537619D01*
X149024761Y-126490000D01*
X149120000Y-126442380D01*
X149834285Y-126537619D02*
X149881904Y-126490000D01*
X149977142Y-126442380D01*
X150215238Y-126442380D01*
X150310476Y-126490000D01*
X150358095Y-126537619D01*
X150405714Y-126632857D01*
X150405714Y-126728095D01*
X150358095Y-126870952D01*
X149786666Y-127442380D01*
X150405714Y-127442380D01*
X150786666Y-126537619D02*
X150834285Y-126490000D01*
X150929523Y-126442380D01*
X151167619Y-126442380D01*
X151262857Y-126490000D01*
X151310476Y-126537619D01*
X151358095Y-126632857D01*
X151358095Y-126728095D01*
X151310476Y-126870952D01*
X150739047Y-127442380D01*
X151358095Y-127442380D01*
X121298095Y-108442380D02*
X121298095Y-107442380D01*
X121869523Y-108442380D02*
X121440952Y-107870952D01*
X121869523Y-107442380D02*
X121298095Y-108013809D01*
D11*
%TO.C,G\u002A\u002A\u002A*%
X140540000Y-110650000D02*
G75*
G02*
X142240000Y-110650000I850000J0D01*
G01*
X147598731Y-109794594D02*
G75*
G02*
X147614999Y-111249999I-233731J-730406D01*
G01*
X141740000Y-111350000D02*
G75*
G02*
X141040000Y-111350000I-350000J0D01*
G01*
X153165000Y-109838605D02*
G75*
G02*
X153614999Y-110924999I0J-636395D01*
G01*
X141040000Y-110650000D02*
G75*
G02*
X141740000Y-110650000I350000J0D01*
G01*
X143429366Y-110207464D02*
G75*
G02*
X143490000Y-110700000I60634J-242536D01*
G01*
X144016256Y-110941064D02*
G75*
G02*
X143839999Y-112249999I-426256J-608936D01*
G01*
X153165001Y-111220050D02*
G75*
G02*
X153214999Y-111724999I-1J-254950D01*
G01*
X142240000Y-111350000D02*
G75*
G02*
X140540000Y-111350000I-850000J0D01*
G01*
X147490000Y-110250001D02*
G75*
G02*
X147489999Y-110799999I-125000J-274999D01*
G01*
X143590000Y-109813605D02*
G75*
G02*
X144039999Y-110899999I0J-636395D01*
G01*
X143590001Y-111195050D02*
G75*
G02*
X143639999Y-111699999I-1J-254950D01*
G01*
X153004366Y-110232464D02*
G75*
G02*
X153065000Y-110725000I60634J-242536D01*
G01*
X153591256Y-110966064D02*
G75*
G02*
X153414999Y-112274999I-426256J-608936D01*
G01*
X151940000Y-112275000D02*
X151165000Y-109825000D01*
D12*
X143240000Y-108150000D02*
X141765000Y-109875000D01*
D11*
X149015000Y-111800000D02*
X149765000Y-111800000D01*
X145840000Y-110750000D02*
X145190000Y-110750000D01*
X148540000Y-109800000D02*
X148990000Y-109800000D01*
X140540000Y-111350000D02*
X140540000Y-110650000D01*
X149765000Y-112250000D02*
X148515000Y-112250000D01*
X148515000Y-112250000D02*
X148540000Y-109800000D01*
X143190000Y-110250000D02*
X143190000Y-110700000D01*
X144740000Y-109800000D02*
X144690000Y-112250000D01*
X145190000Y-110750000D02*
X145190000Y-110300000D01*
X144690000Y-112250000D02*
X144790000Y-112250000D01*
X150690000Y-111675000D02*
X151290000Y-111675000D01*
X150440000Y-112275000D02*
X149940000Y-112275000D01*
X148990000Y-109800000D02*
X149015000Y-111800000D01*
X142240000Y-110650000D02*
X142240000Y-111350000D01*
X145840000Y-111200000D02*
X145840000Y-110750000D01*
X151165000Y-109825000D02*
X150840000Y-109825000D01*
X151540000Y-112275000D02*
X151940000Y-112275000D01*
X152765000Y-111725000D02*
X153215000Y-111725000D01*
D12*
X152190000Y-106350000D02*
X150390000Y-106400000D01*
D11*
X146940000Y-112250000D02*
X146940000Y-111300000D01*
D12*
X150965000Y-108450000D02*
X149290000Y-108550000D01*
X145565000Y-107000000D02*
X149040000Y-105375000D01*
X143240000Y-108150000D02*
X137590000Y-111000000D01*
X138915000Y-111475000D02*
X139740000Y-111125000D01*
D11*
X143190000Y-110700000D02*
X143490000Y-110700000D01*
X146040000Y-110300000D02*
X146040000Y-109800000D01*
X143190000Y-110200000D02*
X143440000Y-110200000D01*
D12*
X144815000Y-105575000D02*
X145565000Y-107000000D01*
D11*
X145190000Y-111200000D02*
X145840000Y-111200000D01*
X147090000Y-111300000D02*
X147840000Y-112250000D01*
X150840000Y-109825000D02*
X149940000Y-112275000D01*
X150715000Y-111275000D02*
X151215000Y-111275000D01*
X146490000Y-112250000D02*
X146940000Y-112250000D01*
X146040000Y-109800000D02*
X144740000Y-109800000D01*
X151290000Y-111675000D02*
X151540000Y-112275000D01*
X145190000Y-111750000D02*
X145190000Y-111200000D01*
X148240000Y-112250000D02*
X148340000Y-112250000D01*
D12*
X147940000Y-107000000D02*
X148515000Y-108500000D01*
D11*
X150990000Y-110525000D02*
X150715000Y-111275000D01*
X152265000Y-109825000D02*
X152215000Y-112275000D01*
D12*
X149065000Y-105775000D02*
X147940000Y-107000000D01*
D11*
X145190000Y-110300000D02*
X146040000Y-110300000D01*
X149765000Y-111800000D02*
X149765000Y-112250000D01*
D12*
X152540000Y-107525000D02*
X152190000Y-106350000D01*
D11*
X151215000Y-111275000D02*
X150990000Y-110525000D01*
X152765000Y-110275000D02*
X152765000Y-110725000D01*
D12*
X142515000Y-106575000D02*
X143240000Y-108150000D01*
D11*
X141040000Y-110650000D02*
X141040000Y-111350000D01*
D12*
X141090000Y-110500000D02*
X141415000Y-110900000D01*
D11*
X152765001Y-111220050D02*
X153165001Y-111220050D01*
X153165000Y-109838605D02*
X152265000Y-109825000D01*
X146040000Y-112250000D02*
X146040000Y-111750000D01*
D12*
X141490000Y-106825000D02*
X143240000Y-108150000D01*
D11*
X141740000Y-110650000D02*
X141740000Y-111300000D01*
X143190001Y-111195050D02*
X143590001Y-111195050D01*
X143590000Y-109813605D02*
X142690000Y-109800000D01*
X146990000Y-110800000D02*
X147490000Y-110800000D01*
D12*
X150265000Y-107875000D02*
X150965000Y-108450000D01*
D11*
X146940000Y-111300000D02*
X147090000Y-111300000D01*
X142640000Y-112250000D02*
X143840000Y-112250000D01*
D12*
X153490000Y-108400000D02*
X154490000Y-108250000D01*
X146340000Y-109450000D02*
X145365000Y-109800000D01*
D11*
X144790000Y-112250000D02*
X146040000Y-112250000D01*
X147840000Y-112250000D02*
X148240000Y-112250000D01*
X146040000Y-111750000D02*
X145190000Y-111750000D01*
D12*
X150390000Y-106400000D02*
X152540000Y-107525000D01*
D11*
X152765000Y-111225000D02*
X152765000Y-111725000D01*
D12*
X139990000Y-111525000D02*
X140565000Y-110725000D01*
D11*
X146990000Y-110250000D02*
X146990000Y-110800000D01*
D12*
X141940000Y-109975000D02*
X149040000Y-105375000D01*
X141415000Y-110900000D02*
X141040000Y-111075000D01*
X149040000Y-105375000D02*
X149115000Y-108100000D01*
X149265000Y-108550000D02*
X150265000Y-107875000D01*
X140540000Y-111250000D02*
X139990000Y-111525000D01*
D11*
X152765000Y-110225000D02*
X153015000Y-110225000D01*
X152215000Y-112275000D02*
X153415000Y-112275000D01*
D12*
X145565000Y-107000000D02*
X143240000Y-108150000D01*
D11*
X147598731Y-109794594D02*
X146490000Y-109800000D01*
X152765000Y-110725000D02*
X153065000Y-110725000D01*
X148340000Y-112250000D02*
X147640000Y-111300000D01*
X150440000Y-112275000D02*
X150690000Y-111675000D01*
D12*
X141490000Y-106825000D02*
X142515000Y-106575000D01*
D11*
X142690000Y-109800000D02*
X142640000Y-112250000D01*
D12*
X145940000Y-109175000D02*
X146340000Y-109450000D01*
D11*
X143190000Y-111700000D02*
X143640000Y-111700000D01*
D12*
X137590000Y-111000000D02*
X141490000Y-106825000D01*
X147490000Y-109225000D02*
X145815000Y-109000000D01*
X145165000Y-109775000D02*
X145940000Y-109175000D01*
X140490000Y-110525000D02*
X140265000Y-111150000D01*
X137590000Y-111000000D02*
X138915000Y-111475000D01*
D11*
X146490000Y-109800000D02*
X146490000Y-112250000D01*
X147440000Y-110250000D02*
X146990000Y-110250000D01*
D12*
X137590000Y-111000000D02*
X140490000Y-110525000D01*
X144815000Y-105575000D02*
X142615000Y-106750000D01*
X145815000Y-109000000D02*
X143990000Y-109900000D01*
X140265000Y-111150000D02*
X137590000Y-111000000D01*
X142615000Y-106750000D02*
X144190000Y-107650000D01*
X154490000Y-108250000D02*
X153915000Y-108725000D01*
D11*
X143190000Y-111200000D02*
X143190000Y-111700000D01*
D12*
X153915000Y-108725000D02*
X153490000Y-108400000D01*
X149115000Y-108100000D02*
X147490000Y-109225000D01*
D13*
G36*
X126012239Y-105650268D02*
G01*
X126160333Y-105676067D01*
X126581277Y-105803472D01*
X126955206Y-105993501D01*
X127279544Y-106237672D01*
X127551717Y-106527506D01*
X127769149Y-106854520D01*
X127929265Y-107210234D01*
X128029489Y-107586167D01*
X128067248Y-107973837D01*
X128039965Y-108364764D01*
X127945066Y-108750467D01*
X127779975Y-109122463D01*
X127542117Y-109472273D01*
X127370342Y-109661120D01*
X127034571Y-109948628D01*
X126682813Y-110156128D01*
X126303978Y-110288134D01*
X125886975Y-110349164D01*
X125667389Y-110354548D01*
X125466482Y-110346036D01*
X125269684Y-110326854D01*
X125112961Y-110300751D01*
X125085407Y-110293901D01*
X124676595Y-110140346D01*
X124307213Y-109913678D01*
X124022500Y-109663725D01*
X123741048Y-109321967D01*
X123532719Y-108947723D01*
X123397438Y-108550760D01*
X123335130Y-108140845D01*
X123338558Y-108007144D01*
X123578502Y-108007144D01*
X123619480Y-108421092D01*
X123736532Y-108808957D01*
X123922981Y-109162561D01*
X124172148Y-109473724D01*
X124477356Y-109734270D01*
X124831926Y-109936020D01*
X125229182Y-110070796D01*
X125271333Y-110080347D01*
X125469444Y-110119865D01*
X125622712Y-110138265D01*
X125768012Y-110136578D01*
X125942221Y-110115831D01*
X126033333Y-110101608D01*
X126432550Y-109996309D01*
X126795174Y-109820056D01*
X127114037Y-109581283D01*
X127381976Y-109288425D01*
X127591825Y-108949916D01*
X127736418Y-108574190D01*
X127808590Y-108169680D01*
X127815569Y-108003791D01*
X127783145Y-107595554D01*
X127679758Y-107225309D01*
X127501034Y-106882333D01*
X127242600Y-106555906D01*
X127211338Y-106522859D01*
X126895158Y-106250710D01*
X126546070Y-106051534D01*
X126174220Y-105925399D01*
X125789755Y-105872376D01*
X125402820Y-105892535D01*
X125023563Y-105985945D01*
X124662129Y-106152675D01*
X124328664Y-106392796D01*
X124212433Y-106502246D01*
X123937837Y-106826455D01*
X123743577Y-107166049D01*
X123625501Y-107530881D01*
X123579460Y-107930803D01*
X123578502Y-108007144D01*
X123338558Y-108007144D01*
X123345722Y-107727747D01*
X123429138Y-107321234D01*
X123585306Y-106931072D01*
X123814151Y-106567029D01*
X124048027Y-106302610D01*
X124383211Y-106031204D01*
X124760207Y-105826417D01*
X125166033Y-105692097D01*
X125587704Y-105632097D01*
X126012239Y-105650268D01*
G37*
X126012239Y-105650268D02*
X126160333Y-105676067D01*
X126581277Y-105803472D01*
X126955206Y-105993501D01*
X127279544Y-106237672D01*
X127551717Y-106527506D01*
X127769149Y-106854520D01*
X127929265Y-107210234D01*
X128029489Y-107586167D01*
X128067248Y-107973837D01*
X128039965Y-108364764D01*
X127945066Y-108750467D01*
X127779975Y-109122463D01*
X127542117Y-109472273D01*
X127370342Y-109661120D01*
X127034571Y-109948628D01*
X126682813Y-110156128D01*
X126303978Y-110288134D01*
X125886975Y-110349164D01*
X125667389Y-110354548D01*
X125466482Y-110346036D01*
X125269684Y-110326854D01*
X125112961Y-110300751D01*
X125085407Y-110293901D01*
X124676595Y-110140346D01*
X124307213Y-109913678D01*
X124022500Y-109663725D01*
X123741048Y-109321967D01*
X123532719Y-108947723D01*
X123397438Y-108550760D01*
X123335130Y-108140845D01*
X123338558Y-108007144D01*
X123578502Y-108007144D01*
X123619480Y-108421092D01*
X123736532Y-108808957D01*
X123922981Y-109162561D01*
X124172148Y-109473724D01*
X124477356Y-109734270D01*
X124831926Y-109936020D01*
X125229182Y-110070796D01*
X125271333Y-110080347D01*
X125469444Y-110119865D01*
X125622712Y-110138265D01*
X125768012Y-110136578D01*
X125942221Y-110115831D01*
X126033333Y-110101608D01*
X126432550Y-109996309D01*
X126795174Y-109820056D01*
X127114037Y-109581283D01*
X127381976Y-109288425D01*
X127591825Y-108949916D01*
X127736418Y-108574190D01*
X127808590Y-108169680D01*
X127815569Y-108003791D01*
X127783145Y-107595554D01*
X127679758Y-107225309D01*
X127501034Y-106882333D01*
X127242600Y-106555906D01*
X127211338Y-106522859D01*
X126895158Y-106250710D01*
X126546070Y-106051534D01*
X126174220Y-105925399D01*
X125789755Y-105872376D01*
X125402820Y-105892535D01*
X125023563Y-105985945D01*
X124662129Y-106152675D01*
X124328664Y-106392796D01*
X124212433Y-106502246D01*
X123937837Y-106826455D01*
X123743577Y-107166049D01*
X123625501Y-107530881D01*
X123579460Y-107930803D01*
X123578502Y-108007144D01*
X123338558Y-108007144D01*
X123345722Y-107727747D01*
X123429138Y-107321234D01*
X123585306Y-106931072D01*
X123814151Y-106567029D01*
X124048027Y-106302610D01*
X124383211Y-106031204D01*
X124760207Y-105826417D01*
X125166033Y-105692097D01*
X125587704Y-105632097D01*
X126012239Y-105650268D01*
G36*
X166854900Y-105644153D02*
G01*
X167260936Y-105723931D01*
X167651625Y-105875718D01*
X168017017Y-106099497D01*
X168286379Y-106332287D01*
X168575007Y-106675701D01*
X168785207Y-107050761D01*
X168917505Y-107458755D01*
X168972431Y-107900969D01*
X168974171Y-108008833D01*
X168933808Y-108458752D01*
X168817754Y-108877235D01*
X168629286Y-109258061D01*
X168371680Y-109595009D01*
X168048214Y-109881858D01*
X167952719Y-109948130D01*
X167676457Y-110114519D01*
X167422718Y-110228116D01*
X167161439Y-110298354D01*
X166862558Y-110334664D01*
X166694500Y-110342889D01*
X166399055Y-110344637D01*
X166169700Y-110327658D01*
X166001238Y-110294082D01*
X165586357Y-110136361D01*
X165216452Y-109912446D01*
X164897718Y-109630419D01*
X164636348Y-109298365D01*
X164438538Y-108924368D01*
X164310481Y-108516510D01*
X164263398Y-108124696D01*
X164488403Y-108124696D01*
X164550372Y-108514986D01*
X164685225Y-108886353D01*
X164887094Y-109227912D01*
X165150112Y-109528780D01*
X165468413Y-109778071D01*
X165673388Y-109893437D01*
X166072917Y-110050029D01*
X166466954Y-110123172D01*
X166861395Y-110113314D01*
X167262138Y-110020902D01*
X167278729Y-110015378D01*
X167651308Y-109847768D01*
X167979597Y-109616228D01*
X168257238Y-109330915D01*
X168477875Y-109001990D01*
X168635150Y-108639609D01*
X168722704Y-108253931D01*
X168734180Y-107855116D01*
X168719012Y-107714068D01*
X168622125Y-107316726D01*
X168456464Y-106954978D01*
X168230983Y-106634913D01*
X167954635Y-106362618D01*
X167636375Y-106144183D01*
X167285158Y-105985694D01*
X166909938Y-105893241D01*
X166519668Y-105872910D01*
X166123305Y-105930791D01*
X166103592Y-105935820D01*
X165706504Y-106081212D01*
X165352744Y-106295181D01*
X165049401Y-106569786D01*
X164803565Y-106897084D01*
X164622326Y-107269133D01*
X164512774Y-107677990D01*
X164505186Y-107726366D01*
X164488403Y-108124696D01*
X164263398Y-108124696D01*
X164258372Y-108082877D01*
X164257488Y-108018448D01*
X164289373Y-107574673D01*
X164388274Y-107176872D01*
X164558699Y-106813912D01*
X164805156Y-106474658D01*
X164942753Y-106326070D01*
X165276280Y-106045518D01*
X165644207Y-105837069D01*
X166036586Y-105700704D01*
X166443467Y-105636405D01*
X166854900Y-105644153D01*
G37*
X166854900Y-105644153D02*
X167260936Y-105723931D01*
X167651625Y-105875718D01*
X168017017Y-106099497D01*
X168286379Y-106332287D01*
X168575007Y-106675701D01*
X168785207Y-107050761D01*
X168917505Y-107458755D01*
X168972431Y-107900969D01*
X168974171Y-108008833D01*
X168933808Y-108458752D01*
X168817754Y-108877235D01*
X168629286Y-109258061D01*
X168371680Y-109595009D01*
X168048214Y-109881858D01*
X167952719Y-109948130D01*
X167676457Y-110114519D01*
X167422718Y-110228116D01*
X167161439Y-110298354D01*
X166862558Y-110334664D01*
X166694500Y-110342889D01*
X166399055Y-110344637D01*
X166169700Y-110327658D01*
X166001238Y-110294082D01*
X165586357Y-110136361D01*
X165216452Y-109912446D01*
X164897718Y-109630419D01*
X164636348Y-109298365D01*
X164438538Y-108924368D01*
X164310481Y-108516510D01*
X164263398Y-108124696D01*
X164488403Y-108124696D01*
X164550372Y-108514986D01*
X164685225Y-108886353D01*
X164887094Y-109227912D01*
X165150112Y-109528780D01*
X165468413Y-109778071D01*
X165673388Y-109893437D01*
X166072917Y-110050029D01*
X166466954Y-110123172D01*
X166861395Y-110113314D01*
X167262138Y-110020902D01*
X167278729Y-110015378D01*
X167651308Y-109847768D01*
X167979597Y-109616228D01*
X168257238Y-109330915D01*
X168477875Y-109001990D01*
X168635150Y-108639609D01*
X168722704Y-108253931D01*
X168734180Y-107855116D01*
X168719012Y-107714068D01*
X168622125Y-107316726D01*
X168456464Y-106954978D01*
X168230983Y-106634913D01*
X167954635Y-106362618D01*
X167636375Y-106144183D01*
X167285158Y-105985694D01*
X166909938Y-105893241D01*
X166519668Y-105872910D01*
X166123305Y-105930791D01*
X166103592Y-105935820D01*
X165706504Y-106081212D01*
X165352744Y-106295181D01*
X165049401Y-106569786D01*
X164803565Y-106897084D01*
X164622326Y-107269133D01*
X164512774Y-107677990D01*
X164505186Y-107726366D01*
X164488403Y-108124696D01*
X164263398Y-108124696D01*
X164258372Y-108082877D01*
X164257488Y-108018448D01*
X164289373Y-107574673D01*
X164388274Y-107176872D01*
X164558699Y-106813912D01*
X164805156Y-106474658D01*
X164942753Y-106326070D01*
X165276280Y-106045518D01*
X165644207Y-105837069D01*
X166036586Y-105700704D01*
X166443467Y-105636405D01*
X166854900Y-105644153D01*
G36*
X131137662Y-95704449D02*
G01*
X131501519Y-95781327D01*
X131536666Y-95792986D01*
X131945581Y-95976209D01*
X132308254Y-96224488D01*
X132617428Y-96529736D01*
X132865846Y-96883867D01*
X133046249Y-97278797D01*
X133125680Y-97563264D01*
X133177411Y-97988265D01*
X133149077Y-98406344D01*
X133039532Y-98825759D01*
X132906409Y-99140000D01*
X132699783Y-99472546D01*
X132427872Y-99772763D01*
X132106946Y-100027992D01*
X131753272Y-100225576D01*
X131383118Y-100352858D01*
X131333499Y-100363815D01*
X131101067Y-100394902D01*
X130829471Y-100405598D01*
X130552723Y-100396515D01*
X130304837Y-100368263D01*
X130187238Y-100343214D01*
X129831156Y-100209368D01*
X129487043Y-100009032D01*
X129173006Y-99756735D01*
X128907152Y-99467003D01*
X128708989Y-99157148D01*
X128544978Y-98744999D01*
X128458949Y-98322899D01*
X128456598Y-98230908D01*
X128683981Y-98230908D01*
X128697813Y-98342954D01*
X128797423Y-98736881D01*
X128965776Y-99098486D01*
X129193837Y-99420338D01*
X129472573Y-99695009D01*
X129792949Y-99915070D01*
X130145929Y-100073091D01*
X130522479Y-100161643D01*
X130913565Y-100173297D01*
X130922833Y-100172588D01*
X131114331Y-100148621D01*
X131317264Y-100110096D01*
X131409666Y-100087089D01*
X131775979Y-99941449D01*
X132109283Y-99724767D01*
X132399554Y-99447486D01*
X132636767Y-99120051D01*
X132810899Y-98752905D01*
X132868846Y-98566741D01*
X132930993Y-98170563D01*
X132915020Y-97781437D01*
X132827467Y-97407703D01*
X132674870Y-97057699D01*
X132463767Y-96739764D01*
X132200695Y-96462237D01*
X131892194Y-96233456D01*
X131544800Y-96061760D01*
X131165050Y-95955488D01*
X130795833Y-95922667D01*
X130397417Y-95962450D01*
X130022821Y-96076156D01*
X129679383Y-96255321D01*
X129374441Y-96491479D01*
X129115332Y-96776167D01*
X128909394Y-97100918D01*
X128763964Y-97457269D01*
X128686381Y-97836754D01*
X128683981Y-98230908D01*
X128456598Y-98230908D01*
X128448151Y-97900481D01*
X128509829Y-97487376D01*
X128641233Y-97093219D01*
X128839610Y-96727641D01*
X129102208Y-96400276D01*
X129426274Y-96120755D01*
X129610500Y-96001946D01*
X129958908Y-95841609D01*
X130344286Y-95736984D01*
X130744561Y-95690466D01*
X131137662Y-95704449D01*
G37*
X131137662Y-95704449D02*
X131501519Y-95781327D01*
X131536666Y-95792986D01*
X131945581Y-95976209D01*
X132308254Y-96224488D01*
X132617428Y-96529736D01*
X132865846Y-96883867D01*
X133046249Y-97278797D01*
X133125680Y-97563264D01*
X133177411Y-97988265D01*
X133149077Y-98406344D01*
X133039532Y-98825759D01*
X132906409Y-99140000D01*
X132699783Y-99472546D01*
X132427872Y-99772763D01*
X132106946Y-100027992D01*
X131753272Y-100225576D01*
X131383118Y-100352858D01*
X131333499Y-100363815D01*
X131101067Y-100394902D01*
X130829471Y-100405598D01*
X130552723Y-100396515D01*
X130304837Y-100368263D01*
X130187238Y-100343214D01*
X129831156Y-100209368D01*
X129487043Y-100009032D01*
X129173006Y-99756735D01*
X128907152Y-99467003D01*
X128708989Y-99157148D01*
X128544978Y-98744999D01*
X128458949Y-98322899D01*
X128456598Y-98230908D01*
X128683981Y-98230908D01*
X128697813Y-98342954D01*
X128797423Y-98736881D01*
X128965776Y-99098486D01*
X129193837Y-99420338D01*
X129472573Y-99695009D01*
X129792949Y-99915070D01*
X130145929Y-100073091D01*
X130522479Y-100161643D01*
X130913565Y-100173297D01*
X130922833Y-100172588D01*
X131114331Y-100148621D01*
X131317264Y-100110096D01*
X131409666Y-100087089D01*
X131775979Y-99941449D01*
X132109283Y-99724767D01*
X132399554Y-99447486D01*
X132636767Y-99120051D01*
X132810899Y-98752905D01*
X132868846Y-98566741D01*
X132930993Y-98170563D01*
X132915020Y-97781437D01*
X132827467Y-97407703D01*
X132674870Y-97057699D01*
X132463767Y-96739764D01*
X132200695Y-96462237D01*
X131892194Y-96233456D01*
X131544800Y-96061760D01*
X131165050Y-95955488D01*
X130795833Y-95922667D01*
X130397417Y-95962450D01*
X130022821Y-96076156D01*
X129679383Y-96255321D01*
X129374441Y-96491479D01*
X129115332Y-96776167D01*
X128909394Y-97100918D01*
X128763964Y-97457269D01*
X128686381Y-97836754D01*
X128683981Y-98230908D01*
X128456598Y-98230908D01*
X128448151Y-97900481D01*
X128509829Y-97487376D01*
X128641233Y-97093219D01*
X128839610Y-96727641D01*
X129102208Y-96400276D01*
X129426274Y-96120755D01*
X129610500Y-96001946D01*
X129958908Y-95841609D01*
X130344286Y-95736984D01*
X130744561Y-95690466D01*
X131137662Y-95704449D01*
G36*
X161892555Y-95713152D02*
G01*
X162306165Y-95822422D01*
X162696582Y-96004247D01*
X163051994Y-96254884D01*
X163226499Y-96418867D01*
X163492962Y-96755090D01*
X163691399Y-97133533D01*
X163818624Y-97541969D01*
X163871451Y-97968175D01*
X163846694Y-98399924D01*
X163801461Y-98625107D01*
X163683198Y-98987590D01*
X163518007Y-99303508D01*
X163291178Y-99598378D01*
X163162267Y-99733797D01*
X162823317Y-100019056D01*
X162458119Y-100224611D01*
X162061525Y-100352547D01*
X161628390Y-100404950D01*
X161502556Y-100406400D01*
X161302124Y-100397815D01*
X161101910Y-100378517D01*
X160941790Y-100352476D01*
X160927521Y-100349173D01*
X160529114Y-100209366D01*
X160155932Y-99990298D01*
X159832990Y-99715009D01*
X159552162Y-99379885D01*
X159345692Y-99017906D01*
X159211001Y-98637566D01*
X159145514Y-98247359D01*
X159146048Y-98063724D01*
X159392000Y-98063724D01*
X159431592Y-98480324D01*
X159546007Y-98866937D01*
X159728696Y-99216980D01*
X159973114Y-99523870D01*
X160272714Y-99781023D01*
X160620950Y-99981857D01*
X161011275Y-100119787D01*
X161437144Y-100188231D01*
X161508666Y-100192317D01*
X161603052Y-100185989D01*
X161748266Y-100165025D01*
X161910833Y-100134371D01*
X162324677Y-100006745D01*
X162693056Y-99807799D01*
X163007685Y-99546352D01*
X163274854Y-99220912D01*
X163468354Y-98860724D01*
X163586786Y-98475148D01*
X163628749Y-98073547D01*
X163592843Y-97665282D01*
X163477668Y-97259716D01*
X163381834Y-97044759D01*
X163247472Y-96836629D01*
X163058049Y-96618377D01*
X162836773Y-96412161D01*
X162606855Y-96240138D01*
X162440000Y-96145611D01*
X162026155Y-95993028D01*
X161616081Y-95924434D01*
X161214050Y-95939153D01*
X160824333Y-96036508D01*
X160451203Y-96215823D01*
X160098932Y-96476422D01*
X160045886Y-96524593D01*
X159769676Y-96837069D01*
X159568109Y-97188987D01*
X159442147Y-97578086D01*
X159392750Y-98002104D01*
X159392000Y-98063724D01*
X159146048Y-98063724D01*
X159146653Y-97855778D01*
X159211840Y-97471316D01*
X159338499Y-97102468D01*
X159524052Y-96757727D01*
X159765922Y-96445587D01*
X160061532Y-96174541D01*
X160408304Y-95953083D01*
X160803662Y-95789706D01*
X161043000Y-95727237D01*
X161467563Y-95680177D01*
X161892555Y-95713152D01*
G37*
X161892555Y-95713152D02*
X162306165Y-95822422D01*
X162696582Y-96004247D01*
X163051994Y-96254884D01*
X163226499Y-96418867D01*
X163492962Y-96755090D01*
X163691399Y-97133533D01*
X163818624Y-97541969D01*
X163871451Y-97968175D01*
X163846694Y-98399924D01*
X163801461Y-98625107D01*
X163683198Y-98987590D01*
X163518007Y-99303508D01*
X163291178Y-99598378D01*
X163162267Y-99733797D01*
X162823317Y-100019056D01*
X162458119Y-100224611D01*
X162061525Y-100352547D01*
X161628390Y-100404950D01*
X161502556Y-100406400D01*
X161302124Y-100397815D01*
X161101910Y-100378517D01*
X160941790Y-100352476D01*
X160927521Y-100349173D01*
X160529114Y-100209366D01*
X160155932Y-99990298D01*
X159832990Y-99715009D01*
X159552162Y-99379885D01*
X159345692Y-99017906D01*
X159211001Y-98637566D01*
X159145514Y-98247359D01*
X159146048Y-98063724D01*
X159392000Y-98063724D01*
X159431592Y-98480324D01*
X159546007Y-98866937D01*
X159728696Y-99216980D01*
X159973114Y-99523870D01*
X160272714Y-99781023D01*
X160620950Y-99981857D01*
X161011275Y-100119787D01*
X161437144Y-100188231D01*
X161508666Y-100192317D01*
X161603052Y-100185989D01*
X161748266Y-100165025D01*
X161910833Y-100134371D01*
X162324677Y-100006745D01*
X162693056Y-99807799D01*
X163007685Y-99546352D01*
X163274854Y-99220912D01*
X163468354Y-98860724D01*
X163586786Y-98475148D01*
X163628749Y-98073547D01*
X163592843Y-97665282D01*
X163477668Y-97259716D01*
X163381834Y-97044759D01*
X163247472Y-96836629D01*
X163058049Y-96618377D01*
X162836773Y-96412161D01*
X162606855Y-96240138D01*
X162440000Y-96145611D01*
X162026155Y-95993028D01*
X161616081Y-95924434D01*
X161214050Y-95939153D01*
X160824333Y-96036508D01*
X160451203Y-96215823D01*
X160098932Y-96476422D01*
X160045886Y-96524593D01*
X159769676Y-96837069D01*
X159568109Y-97188987D01*
X159442147Y-97578086D01*
X159392750Y-98002104D01*
X159392000Y-98063724D01*
X159146048Y-98063724D01*
X159146653Y-97855778D01*
X159211840Y-97471316D01*
X159338499Y-97102468D01*
X159524052Y-96757727D01*
X159765922Y-96445587D01*
X160061532Y-96174541D01*
X160408304Y-95953083D01*
X160803662Y-95789706D01*
X161043000Y-95727237D01*
X161467563Y-95680177D01*
X161892555Y-95713152D01*
G36*
X136152325Y-85744191D02*
G01*
X136557798Y-85826504D01*
X136949261Y-85979394D01*
X137310725Y-86196780D01*
X137595325Y-86440670D01*
X137873703Y-86772495D01*
X138075465Y-87129877D01*
X138203960Y-87521220D01*
X138262540Y-87954928D01*
X138267164Y-88125869D01*
X138228907Y-88570617D01*
X138112565Y-88983165D01*
X137917545Y-89364909D01*
X137643252Y-89717247D01*
X137548670Y-89814245D01*
X137221986Y-90076329D01*
X136850855Y-90273651D01*
X136448721Y-90403233D01*
X136029026Y-90462096D01*
X135605214Y-90447263D01*
X135190728Y-90355755D01*
X135156166Y-90344281D01*
X134738822Y-90160237D01*
X134377341Y-89915018D01*
X134075926Y-89614532D01*
X133838781Y-89264685D01*
X133670112Y-88871383D01*
X133574122Y-88440533D01*
X133552365Y-88091000D01*
X133553153Y-88082551D01*
X133786753Y-88082551D01*
X133823540Y-88491925D01*
X133844156Y-88589227D01*
X133979307Y-88985379D01*
X134184485Y-89339540D01*
X134452746Y-89644987D01*
X134777147Y-89895000D01*
X135150743Y-90082857D01*
X135494833Y-90187116D01*
X135683877Y-90225160D01*
X135833629Y-90242235D01*
X135980718Y-90239264D01*
X136161774Y-90217169D01*
X136235666Y-90205767D01*
X136628400Y-90103596D01*
X136984475Y-89932892D01*
X137298250Y-89702900D01*
X137564085Y-89422865D01*
X137776338Y-89102030D01*
X137929369Y-88749639D01*
X138017536Y-88374936D01*
X138035198Y-87987166D01*
X137976715Y-87595572D01*
X137928122Y-87432284D01*
X137758046Y-87058190D01*
X137526476Y-86730398D01*
X137243274Y-86454390D01*
X136918299Y-86235646D01*
X136561411Y-86079649D01*
X136182470Y-85991877D01*
X135791336Y-85977813D01*
X135418768Y-86037371D01*
X135020321Y-86181435D01*
X134668130Y-86389200D01*
X134367502Y-86652068D01*
X134123743Y-86961437D01*
X133942161Y-87308707D01*
X133828062Y-87685279D01*
X133786753Y-88082551D01*
X133553153Y-88082551D01*
X133593587Y-87649080D01*
X133710148Y-87236330D01*
X133895747Y-86859501D01*
X134144078Y-86525346D01*
X134448837Y-86240616D01*
X134803720Y-86012063D01*
X135202422Y-85846439D01*
X135638641Y-85750497D01*
X135748833Y-85738535D01*
X136152325Y-85744191D01*
G37*
X136152325Y-85744191D02*
X136557798Y-85826504D01*
X136949261Y-85979394D01*
X137310725Y-86196780D01*
X137595325Y-86440670D01*
X137873703Y-86772495D01*
X138075465Y-87129877D01*
X138203960Y-87521220D01*
X138262540Y-87954928D01*
X138267164Y-88125869D01*
X138228907Y-88570617D01*
X138112565Y-88983165D01*
X137917545Y-89364909D01*
X137643252Y-89717247D01*
X137548670Y-89814245D01*
X137221986Y-90076329D01*
X136850855Y-90273651D01*
X136448721Y-90403233D01*
X136029026Y-90462096D01*
X135605214Y-90447263D01*
X135190728Y-90355755D01*
X135156166Y-90344281D01*
X134738822Y-90160237D01*
X134377341Y-89915018D01*
X134075926Y-89614532D01*
X133838781Y-89264685D01*
X133670112Y-88871383D01*
X133574122Y-88440533D01*
X133552365Y-88091000D01*
X133553153Y-88082551D01*
X133786753Y-88082551D01*
X133823540Y-88491925D01*
X133844156Y-88589227D01*
X133979307Y-88985379D01*
X134184485Y-89339540D01*
X134452746Y-89644987D01*
X134777147Y-89895000D01*
X135150743Y-90082857D01*
X135494833Y-90187116D01*
X135683877Y-90225160D01*
X135833629Y-90242235D01*
X135980718Y-90239264D01*
X136161774Y-90217169D01*
X136235666Y-90205767D01*
X136628400Y-90103596D01*
X136984475Y-89932892D01*
X137298250Y-89702900D01*
X137564085Y-89422865D01*
X137776338Y-89102030D01*
X137929369Y-88749639D01*
X138017536Y-88374936D01*
X138035198Y-87987166D01*
X137976715Y-87595572D01*
X137928122Y-87432284D01*
X137758046Y-87058190D01*
X137526476Y-86730398D01*
X137243274Y-86454390D01*
X136918299Y-86235646D01*
X136561411Y-86079649D01*
X136182470Y-85991877D01*
X135791336Y-85977813D01*
X135418768Y-86037371D01*
X135020321Y-86181435D01*
X134668130Y-86389200D01*
X134367502Y-86652068D01*
X134123743Y-86961437D01*
X133942161Y-87308707D01*
X133828062Y-87685279D01*
X133786753Y-88082551D01*
X133553153Y-88082551D01*
X133593587Y-87649080D01*
X133710148Y-87236330D01*
X133895747Y-86859501D01*
X134144078Y-86525346D01*
X134448837Y-86240616D01*
X134803720Y-86012063D01*
X135202422Y-85846439D01*
X135638641Y-85750497D01*
X135748833Y-85738535D01*
X136152325Y-85744191D01*
G36*
X156757528Y-85764869D02*
G01*
X156976704Y-85798956D01*
X157063666Y-85822495D01*
X157484347Y-86002454D01*
X157857161Y-86243041D01*
X158175072Y-86537069D01*
X158431042Y-86877352D01*
X158618035Y-87256702D01*
X158689935Y-87483277D01*
X158735639Y-87746041D01*
X158754014Y-88049567D01*
X158744988Y-88357220D01*
X158708491Y-88632366D01*
X158692298Y-88702619D01*
X158545289Y-89103810D01*
X158326819Y-89471692D01*
X158046789Y-89796361D01*
X157715107Y-90067911D01*
X157341675Y-90276438D01*
X156997952Y-90396965D01*
X156759486Y-90438202D01*
X156475508Y-90455798D01*
X156181785Y-90449815D01*
X155914087Y-90420318D01*
X155793666Y-90394825D01*
X155384078Y-90244503D01*
X155013167Y-90023056D01*
X154688811Y-89738228D01*
X154418887Y-89397759D01*
X154211275Y-89009393D01*
X154117071Y-88747167D01*
X154070423Y-88520193D01*
X154046015Y-88248692D01*
X154044299Y-88004102D01*
X154272258Y-88004102D01*
X154290185Y-88391196D01*
X154380338Y-88764843D01*
X154536570Y-89115834D01*
X154752734Y-89434961D01*
X155022682Y-89713015D01*
X155340266Y-89940788D01*
X155699340Y-90109073D01*
X156062343Y-90203655D01*
X156237963Y-90230761D01*
X156369854Y-90241992D01*
X156495853Y-90237519D01*
X156653800Y-90217514D01*
X156725000Y-90206662D01*
X157114018Y-90104907D01*
X157473609Y-89930003D01*
X157794993Y-89690911D01*
X158069386Y-89396593D01*
X158288009Y-89056012D01*
X158442077Y-88678128D01*
X158508288Y-88386803D01*
X158525906Y-88005397D01*
X158467147Y-87618758D01*
X158337512Y-87243214D01*
X158142500Y-86895093D01*
X157911248Y-86614263D01*
X157593885Y-86347320D01*
X157249603Y-86154556D01*
X156887374Y-86033469D01*
X156516168Y-85981555D01*
X156144959Y-85996311D01*
X155782717Y-86075234D01*
X155438414Y-86215820D01*
X155121022Y-86415566D01*
X154839512Y-86671969D01*
X154602856Y-86982524D01*
X154420026Y-87344730D01*
X154332704Y-87612768D01*
X154272258Y-88004102D01*
X154044299Y-88004102D01*
X154044016Y-87963856D01*
X154064596Y-87696880D01*
X154107923Y-87478957D01*
X154110146Y-87471653D01*
X154282871Y-87049902D01*
X154522593Y-86672228D01*
X154821741Y-86346138D01*
X155172744Y-86079136D01*
X155568032Y-85878729D01*
X155794786Y-85801541D01*
X155988920Y-85765438D01*
X156233908Y-85747620D01*
X156500020Y-85747594D01*
X156757528Y-85764869D01*
G37*
X156757528Y-85764869D02*
X156976704Y-85798956D01*
X157063666Y-85822495D01*
X157484347Y-86002454D01*
X157857161Y-86243041D01*
X158175072Y-86537069D01*
X158431042Y-86877352D01*
X158618035Y-87256702D01*
X158689935Y-87483277D01*
X158735639Y-87746041D01*
X158754014Y-88049567D01*
X158744988Y-88357220D01*
X158708491Y-88632366D01*
X158692298Y-88702619D01*
X158545289Y-89103810D01*
X158326819Y-89471692D01*
X158046789Y-89796361D01*
X157715107Y-90067911D01*
X157341675Y-90276438D01*
X156997952Y-90396965D01*
X156759486Y-90438202D01*
X156475508Y-90455798D01*
X156181785Y-90449815D01*
X155914087Y-90420318D01*
X155793666Y-90394825D01*
X155384078Y-90244503D01*
X155013167Y-90023056D01*
X154688811Y-89738228D01*
X154418887Y-89397759D01*
X154211275Y-89009393D01*
X154117071Y-88747167D01*
X154070423Y-88520193D01*
X154046015Y-88248692D01*
X154044299Y-88004102D01*
X154272258Y-88004102D01*
X154290185Y-88391196D01*
X154380338Y-88764843D01*
X154536570Y-89115834D01*
X154752734Y-89434961D01*
X155022682Y-89713015D01*
X155340266Y-89940788D01*
X155699340Y-90109073D01*
X156062343Y-90203655D01*
X156237963Y-90230761D01*
X156369854Y-90241992D01*
X156495853Y-90237519D01*
X156653800Y-90217514D01*
X156725000Y-90206662D01*
X157114018Y-90104907D01*
X157473609Y-89930003D01*
X157794993Y-89690911D01*
X158069386Y-89396593D01*
X158288009Y-89056012D01*
X158442077Y-88678128D01*
X158508288Y-88386803D01*
X158525906Y-88005397D01*
X158467147Y-87618758D01*
X158337512Y-87243214D01*
X158142500Y-86895093D01*
X157911248Y-86614263D01*
X157593885Y-86347320D01*
X157249603Y-86154556D01*
X156887374Y-86033469D01*
X156516168Y-85981555D01*
X156144959Y-85996311D01*
X155782717Y-86075234D01*
X155438414Y-86215820D01*
X155121022Y-86415566D01*
X154839512Y-86671969D01*
X154602856Y-86982524D01*
X154420026Y-87344730D01*
X154332704Y-87612768D01*
X154272258Y-88004102D01*
X154044299Y-88004102D01*
X154044016Y-87963856D01*
X154064596Y-87696880D01*
X154107923Y-87478957D01*
X154110146Y-87471653D01*
X154282871Y-87049902D01*
X154522593Y-86672228D01*
X154821741Y-86346138D01*
X155172744Y-86079136D01*
X155568032Y-85878729D01*
X155794786Y-85801541D01*
X155988920Y-85765438D01*
X156233908Y-85747620D01*
X156500020Y-85747594D01*
X156757528Y-85764869D01*
G36*
X141370491Y-75817886D02*
G01*
X141690341Y-75883166D01*
X141731700Y-75895912D01*
X142136216Y-76068778D01*
X142493172Y-76305059D01*
X142797494Y-76595855D01*
X143044111Y-76932266D01*
X143227950Y-77305389D01*
X143343939Y-77706324D01*
X143387004Y-78126170D01*
X143352074Y-78556026D01*
X143324419Y-78690761D01*
X143184129Y-79107112D01*
X142972445Y-79485929D01*
X142697424Y-79818943D01*
X142367119Y-80097882D01*
X141989588Y-80314476D01*
X141610080Y-80450877D01*
X141378773Y-80491140D01*
X141100079Y-80507717D01*
X140807764Y-80501058D01*
X140535595Y-80471611D01*
X140363166Y-80434314D01*
X139956685Y-80276378D01*
X139598284Y-80055197D01*
X139291699Y-79779649D01*
X139040665Y-79458614D01*
X138848918Y-79100971D01*
X138720194Y-78715599D01*
X138658229Y-78311378D01*
X138661200Y-78167058D01*
X138902666Y-78167058D01*
X138942509Y-78588836D01*
X139059309Y-78982109D01*
X139248975Y-79339259D01*
X139507418Y-79652669D01*
X139830547Y-79914723D01*
X139847104Y-79925549D01*
X140077611Y-80052406D01*
X140343947Y-80164428D01*
X140607074Y-80246434D01*
X140744166Y-80274461D01*
X140943837Y-80285133D01*
X141187957Y-80269528D01*
X141441852Y-80231497D01*
X141670847Y-80174891D01*
X141686770Y-80169768D01*
X141868705Y-80096550D01*
X142067753Y-79996301D01*
X142204655Y-79913950D01*
X142523343Y-79653883D01*
X142776471Y-79349468D01*
X142963397Y-79010707D01*
X143083481Y-78647603D01*
X143136080Y-78270158D01*
X143120554Y-77888374D01*
X143036262Y-77512254D01*
X142882561Y-77151801D01*
X142658811Y-76817015D01*
X142419326Y-76565702D01*
X142086106Y-76319932D01*
X141723964Y-76148910D01*
X141343126Y-76052309D01*
X140953818Y-76029804D01*
X140566268Y-76081070D01*
X140190702Y-76205781D01*
X139837347Y-76403613D01*
X139533028Y-76657505D01*
X139260067Y-76977188D01*
X139067047Y-77315763D01*
X138949685Y-77683488D01*
X138903696Y-78090624D01*
X138902666Y-78167058D01*
X138661200Y-78167058D01*
X138666757Y-77897188D01*
X138749516Y-77481906D01*
X138910241Y-77074414D01*
X138931866Y-77032298D01*
X139158104Y-76688924D01*
X139449903Y-76384378D01*
X139792549Y-76130579D01*
X140171327Y-75939445D01*
X140363166Y-75873011D01*
X140672279Y-75812229D01*
X141019596Y-75794047D01*
X141370491Y-75817886D01*
G37*
X141370491Y-75817886D02*
X141690341Y-75883166D01*
X141731700Y-75895912D01*
X142136216Y-76068778D01*
X142493172Y-76305059D01*
X142797494Y-76595855D01*
X143044111Y-76932266D01*
X143227950Y-77305389D01*
X143343939Y-77706324D01*
X143387004Y-78126170D01*
X143352074Y-78556026D01*
X143324419Y-78690761D01*
X143184129Y-79107112D01*
X142972445Y-79485929D01*
X142697424Y-79818943D01*
X142367119Y-80097882D01*
X141989588Y-80314476D01*
X141610080Y-80450877D01*
X141378773Y-80491140D01*
X141100079Y-80507717D01*
X140807764Y-80501058D01*
X140535595Y-80471611D01*
X140363166Y-80434314D01*
X139956685Y-80276378D01*
X139598284Y-80055197D01*
X139291699Y-79779649D01*
X139040665Y-79458614D01*
X138848918Y-79100971D01*
X138720194Y-78715599D01*
X138658229Y-78311378D01*
X138661200Y-78167058D01*
X138902666Y-78167058D01*
X138942509Y-78588836D01*
X139059309Y-78982109D01*
X139248975Y-79339259D01*
X139507418Y-79652669D01*
X139830547Y-79914723D01*
X139847104Y-79925549D01*
X140077611Y-80052406D01*
X140343947Y-80164428D01*
X140607074Y-80246434D01*
X140744166Y-80274461D01*
X140943837Y-80285133D01*
X141187957Y-80269528D01*
X141441852Y-80231497D01*
X141670847Y-80174891D01*
X141686770Y-80169768D01*
X141868705Y-80096550D01*
X142067753Y-79996301D01*
X142204655Y-79913950D01*
X142523343Y-79653883D01*
X142776471Y-79349468D01*
X142963397Y-79010707D01*
X143083481Y-78647603D01*
X143136080Y-78270158D01*
X143120554Y-77888374D01*
X143036262Y-77512254D01*
X142882561Y-77151801D01*
X142658811Y-76817015D01*
X142419326Y-76565702D01*
X142086106Y-76319932D01*
X141723964Y-76148910D01*
X141343126Y-76052309D01*
X140953818Y-76029804D01*
X140566268Y-76081070D01*
X140190702Y-76205781D01*
X139837347Y-76403613D01*
X139533028Y-76657505D01*
X139260067Y-76977188D01*
X139067047Y-77315763D01*
X138949685Y-77683488D01*
X138903696Y-78090624D01*
X138902666Y-78167058D01*
X138661200Y-78167058D01*
X138666757Y-77897188D01*
X138749516Y-77481906D01*
X138910241Y-77074414D01*
X138931866Y-77032298D01*
X139158104Y-76688924D01*
X139449903Y-76384378D01*
X139792549Y-76130579D01*
X140171327Y-75939445D01*
X140363166Y-75873011D01*
X140672279Y-75812229D01*
X141019596Y-75794047D01*
X141370491Y-75817886D01*
G36*
X151474078Y-75791903D02*
G01*
X151910418Y-75864574D01*
X152301764Y-76005299D01*
X152659989Y-76219407D01*
X152927603Y-76444156D01*
X153216154Y-76770743D01*
X153430571Y-77123419D01*
X153574035Y-77494271D01*
X153649727Y-77875383D01*
X153660827Y-78258841D01*
X153610516Y-78636730D01*
X153501975Y-79001135D01*
X153338384Y-79344140D01*
X153122924Y-79657832D01*
X152858776Y-79934295D01*
X152549121Y-80165615D01*
X152197138Y-80343877D01*
X151806009Y-80461165D01*
X151378915Y-80509565D01*
X151293564Y-80510317D01*
X151033947Y-80497589D01*
X150793162Y-80466339D01*
X150650166Y-80434186D01*
X150236132Y-80273471D01*
X149868465Y-80047156D01*
X149553172Y-79763142D01*
X149296258Y-79429332D01*
X149103730Y-79053630D01*
X148981593Y-78643937D01*
X148939529Y-78243183D01*
X149166768Y-78243183D01*
X149189446Y-78464998D01*
X149292692Y-78862467D01*
X149467935Y-79226774D01*
X149706449Y-79550294D01*
X149999508Y-79825404D01*
X150338386Y-80044480D01*
X150714357Y-80199898D01*
X151118695Y-80284035D01*
X151285166Y-80295983D01*
X151392386Y-80289345D01*
X151546816Y-80267864D01*
X151699477Y-80239316D01*
X152097302Y-80115350D01*
X152453776Y-79925901D01*
X152763229Y-79679806D01*
X153019993Y-79385901D01*
X153218396Y-79053021D01*
X153352770Y-78690005D01*
X153417445Y-78305687D01*
X153406752Y-77908905D01*
X153358159Y-77654144D01*
X153218447Y-77269660D01*
X153010861Y-76920115D01*
X152745330Y-76615203D01*
X152431783Y-76364615D01*
X152080149Y-76178046D01*
X151738166Y-76072639D01*
X151332018Y-76027983D01*
X150939243Y-76060015D01*
X150567243Y-76161786D01*
X150223420Y-76326346D01*
X149915178Y-76546748D01*
X149649919Y-76816043D01*
X149435046Y-77127283D01*
X149277961Y-77473518D01*
X149186068Y-77847801D01*
X149166768Y-78243183D01*
X148939529Y-78243183D01*
X148935852Y-78208156D01*
X148935666Y-78178189D01*
X148952012Y-77838113D01*
X149006594Y-77540334D01*
X149107729Y-77247948D01*
X149182183Y-77084333D01*
X149398970Y-76731722D01*
X149679047Y-76424574D01*
X150010395Y-76169669D01*
X150380991Y-75973785D01*
X150778816Y-75843700D01*
X151191848Y-75786195D01*
X151474078Y-75791903D01*
G37*
X151474078Y-75791903D02*
X151910418Y-75864574D01*
X152301764Y-76005299D01*
X152659989Y-76219407D01*
X152927603Y-76444156D01*
X153216154Y-76770743D01*
X153430571Y-77123419D01*
X153574035Y-77494271D01*
X153649727Y-77875383D01*
X153660827Y-78258841D01*
X153610516Y-78636730D01*
X153501975Y-79001135D01*
X153338384Y-79344140D01*
X153122924Y-79657832D01*
X152858776Y-79934295D01*
X152549121Y-80165615D01*
X152197138Y-80343877D01*
X151806009Y-80461165D01*
X151378915Y-80509565D01*
X151293564Y-80510317D01*
X151033947Y-80497589D01*
X150793162Y-80466339D01*
X150650166Y-80434186D01*
X150236132Y-80273471D01*
X149868465Y-80047156D01*
X149553172Y-79763142D01*
X149296258Y-79429332D01*
X149103730Y-79053630D01*
X148981593Y-78643937D01*
X148939529Y-78243183D01*
X149166768Y-78243183D01*
X149189446Y-78464998D01*
X149292692Y-78862467D01*
X149467935Y-79226774D01*
X149706449Y-79550294D01*
X149999508Y-79825404D01*
X150338386Y-80044480D01*
X150714357Y-80199898D01*
X151118695Y-80284035D01*
X151285166Y-80295983D01*
X151392386Y-80289345D01*
X151546816Y-80267864D01*
X151699477Y-80239316D01*
X152097302Y-80115350D01*
X152453776Y-79925901D01*
X152763229Y-79679806D01*
X153019993Y-79385901D01*
X153218396Y-79053021D01*
X153352770Y-78690005D01*
X153417445Y-78305687D01*
X153406752Y-77908905D01*
X153358159Y-77654144D01*
X153218447Y-77269660D01*
X153010861Y-76920115D01*
X152745330Y-76615203D01*
X152431783Y-76364615D01*
X152080149Y-76178046D01*
X151738166Y-76072639D01*
X151332018Y-76027983D01*
X150939243Y-76060015D01*
X150567243Y-76161786D01*
X150223420Y-76326346D01*
X149915178Y-76546748D01*
X149649919Y-76816043D01*
X149435046Y-77127283D01*
X149277961Y-77473518D01*
X149186068Y-77847801D01*
X149166768Y-78243183D01*
X148939529Y-78243183D01*
X148935852Y-78208156D01*
X148935666Y-78178189D01*
X148952012Y-77838113D01*
X149006594Y-77540334D01*
X149107729Y-77247948D01*
X149182183Y-77084333D01*
X149398970Y-76731722D01*
X149679047Y-76424574D01*
X150010395Y-76169669D01*
X150380991Y-75973785D01*
X150778816Y-75843700D01*
X151191848Y-75786195D01*
X151474078Y-75791903D01*
G36*
X146672442Y-65889831D02*
G01*
X147071278Y-66009400D01*
X147442354Y-66195612D01*
X147775524Y-66444539D01*
X148060643Y-66752250D01*
X148268127Y-67076865D01*
X148443361Y-67495495D01*
X148538247Y-67922194D01*
X148554035Y-68348393D01*
X148491977Y-68765522D01*
X148353326Y-69165013D01*
X148139334Y-69538296D01*
X147860403Y-69867787D01*
X147520003Y-70157575D01*
X147162137Y-70366749D01*
X146778067Y-70498912D01*
X146359057Y-70557664D01*
X146177889Y-70561400D01*
X145977458Y-70552815D01*
X145777243Y-70533517D01*
X145617124Y-70507476D01*
X145602854Y-70504173D01*
X145206839Y-70364956D01*
X144835955Y-70146515D01*
X144513157Y-69869872D01*
X144233774Y-69533496D01*
X144028006Y-69168485D01*
X143893781Y-68783837D01*
X143829029Y-68388547D01*
X143830667Y-68143175D01*
X144073095Y-68143175D01*
X144077434Y-68363667D01*
X144139816Y-68760475D01*
X144274137Y-69126023D01*
X144471546Y-69454384D01*
X144723194Y-69739628D01*
X145020231Y-69975828D01*
X145353807Y-70157054D01*
X145715072Y-70277379D01*
X146095175Y-70330874D01*
X146485268Y-70311610D01*
X146851964Y-70222274D01*
X147245578Y-70044787D01*
X147586692Y-69803706D01*
X147869865Y-69504610D01*
X148089657Y-69153079D01*
X148222829Y-68816413D01*
X148266155Y-68654416D01*
X148290308Y-68502748D01*
X148298219Y-68330644D01*
X148292818Y-68107336D01*
X148292045Y-68089625D01*
X148279863Y-67878539D01*
X148260821Y-67721967D01*
X148228032Y-67589756D01*
X148174612Y-67451755D01*
X148118528Y-67329817D01*
X147903118Y-66965382D01*
X147637329Y-66661211D01*
X147330486Y-66418996D01*
X146991915Y-66240429D01*
X146630942Y-66127202D01*
X146256892Y-66081007D01*
X145879092Y-66103535D01*
X145506867Y-66196478D01*
X145149544Y-66361528D01*
X144816446Y-66600376D01*
X144699424Y-66709576D01*
X144426851Y-67029961D01*
X144233851Y-67369718D01*
X144117055Y-67737803D01*
X144073095Y-68143175D01*
X143830667Y-68143175D01*
X143831679Y-67991611D01*
X143899660Y-67602026D01*
X144030900Y-67228787D01*
X144223329Y-66880892D01*
X144474877Y-66567336D01*
X144783472Y-66297115D01*
X145147043Y-66079225D01*
X145410835Y-65970277D01*
X145832075Y-65866340D01*
X146255992Y-65840835D01*
X146672442Y-65889831D01*
G37*
X146672442Y-65889831D02*
X147071278Y-66009400D01*
X147442354Y-66195612D01*
X147775524Y-66444539D01*
X148060643Y-66752250D01*
X148268127Y-67076865D01*
X148443361Y-67495495D01*
X148538247Y-67922194D01*
X148554035Y-68348393D01*
X148491977Y-68765522D01*
X148353326Y-69165013D01*
X148139334Y-69538296D01*
X147860403Y-69867787D01*
X147520003Y-70157575D01*
X147162137Y-70366749D01*
X146778067Y-70498912D01*
X146359057Y-70557664D01*
X146177889Y-70561400D01*
X145977458Y-70552815D01*
X145777243Y-70533517D01*
X145617124Y-70507476D01*
X145602854Y-70504173D01*
X145206839Y-70364956D01*
X144835955Y-70146515D01*
X144513157Y-69869872D01*
X144233774Y-69533496D01*
X144028006Y-69168485D01*
X143893781Y-68783837D01*
X143829029Y-68388547D01*
X143830667Y-68143175D01*
X144073095Y-68143175D01*
X144077434Y-68363667D01*
X144139816Y-68760475D01*
X144274137Y-69126023D01*
X144471546Y-69454384D01*
X144723194Y-69739628D01*
X145020231Y-69975828D01*
X145353807Y-70157054D01*
X145715072Y-70277379D01*
X146095175Y-70330874D01*
X146485268Y-70311610D01*
X146851964Y-70222274D01*
X147245578Y-70044787D01*
X147586692Y-69803706D01*
X147869865Y-69504610D01*
X148089657Y-69153079D01*
X148222829Y-68816413D01*
X148266155Y-68654416D01*
X148290308Y-68502748D01*
X148298219Y-68330644D01*
X148292818Y-68107336D01*
X148292045Y-68089625D01*
X148279863Y-67878539D01*
X148260821Y-67721967D01*
X148228032Y-67589756D01*
X148174612Y-67451755D01*
X148118528Y-67329817D01*
X147903118Y-66965382D01*
X147637329Y-66661211D01*
X147330486Y-66418996D01*
X146991915Y-66240429D01*
X146630942Y-66127202D01*
X146256892Y-66081007D01*
X145879092Y-66103535D01*
X145506867Y-66196478D01*
X145149544Y-66361528D01*
X144816446Y-66600376D01*
X144699424Y-66709576D01*
X144426851Y-67029961D01*
X144233851Y-67369718D01*
X144117055Y-67737803D01*
X144073095Y-68143175D01*
X143830667Y-68143175D01*
X143831679Y-67991611D01*
X143899660Y-67602026D01*
X144030900Y-67228787D01*
X144223329Y-66880892D01*
X144474877Y-66567336D01*
X144783472Y-66297115D01*
X145147043Y-66079225D01*
X145410835Y-65970277D01*
X145832075Y-65866340D01*
X146255992Y-65840835D01*
X146672442Y-65889831D01*
D11*
%TO.C,D1*%
X123140000Y-106505000D02*
X123140000Y-109595000D01*
X128200000Y-108050000D02*
G75*
G03*
X128200000Y-108050000I-2500000J0D01*
G01*
X128690000Y-108050462D02*
G75*
G03*
X123140000Y-106505170I-2990000J462D01*
G01*
X128690000Y-108049538D02*
G75*
G02*
X123140000Y-109594830I-2990000J-462D01*
G01*
%TO.C,D2*%
X133830000Y-98089538D02*
G75*
G02*
X128280000Y-99634830I-2990000J-462D01*
G01*
X133830000Y-98090462D02*
G75*
G03*
X128280000Y-96545170I-2990000J462D01*
G01*
X133340000Y-98090000D02*
G75*
G03*
X133340000Y-98090000I-2500000J0D01*
G01*
X128280000Y-96545000D02*
X128280000Y-99635000D01*
%TO.C,D3*%
X133360000Y-86565000D02*
X133360000Y-89655000D01*
X138420000Y-88110000D02*
G75*
G03*
X138420000Y-88110000I-2500000J0D01*
G01*
X138910000Y-88110462D02*
G75*
G03*
X133360000Y-86565170I-2990000J462D01*
G01*
X138910000Y-88109538D02*
G75*
G02*
X133360000Y-89654830I-2990000J-462D01*
G01*
%TO.C,D4*%
X144030000Y-78199538D02*
G75*
G02*
X138480000Y-79744830I-2990000J-462D01*
G01*
X144030000Y-78200462D02*
G75*
G03*
X138480000Y-76655170I-2990000J462D01*
G01*
X143540000Y-78200000D02*
G75*
G03*
X143540000Y-78200000I-2500000J0D01*
G01*
X138480000Y-76655000D02*
X138480000Y-79745000D01*
%TO.C,D5*%
X143580000Y-66695000D02*
X143580000Y-69785000D01*
X148640000Y-68240000D02*
G75*
G03*
X148640000Y-68240000I-2500000J0D01*
G01*
X149130000Y-68240462D02*
G75*
G03*
X143580000Y-66695170I-2990000J462D01*
G01*
X149130000Y-68239538D02*
G75*
G02*
X143580000Y-69784830I-2990000J-462D01*
G01*
%TO.C,D6*%
X154340000Y-78209538D02*
G75*
G02*
X148790000Y-79754830I-2990000J-462D01*
G01*
X154340000Y-78210462D02*
G75*
G03*
X148790000Y-76665170I-2990000J462D01*
G01*
X153850000Y-78210000D02*
G75*
G03*
X153850000Y-78210000I-2500000J0D01*
G01*
X148790000Y-76665000D02*
X148790000Y-79755000D01*
%TO.C,D7*%
X153810000Y-86575000D02*
X153810000Y-89665000D01*
X158870000Y-88120000D02*
G75*
G03*
X158870000Y-88120000I-2500000J0D01*
G01*
X159360000Y-88120462D02*
G75*
G03*
X153810000Y-86575170I-2990000J462D01*
G01*
X159360000Y-88119538D02*
G75*
G02*
X153810000Y-89664830I-2990000J-462D01*
G01*
%TO.C,D8*%
X164500000Y-97969538D02*
G75*
G02*
X158950000Y-99514830I-2990000J-462D01*
G01*
X164500000Y-97970462D02*
G75*
G03*
X158950000Y-96425170I-2990000J462D01*
G01*
X164010000Y-97970000D02*
G75*
G03*
X164010000Y-97970000I-2500000J0D01*
G01*
X158950000Y-96425000D02*
X158950000Y-99515000D01*
%TO.C,D9*%
X164050000Y-106465000D02*
X164050000Y-109555000D01*
X169110000Y-108010000D02*
G75*
G03*
X169110000Y-108010000I-2500000J0D01*
G01*
X169600000Y-108010462D02*
G75*
G03*
X164050000Y-106465170I-2990000J462D01*
G01*
X169600000Y-108009538D02*
G75*
G02*
X164050000Y-109554830I-2990000J-462D01*
G01*
%TO.C,GND*%
D14*
X130888095Y-117599000D02*
X130792857Y-117551380D01*
X130650000Y-117551380D01*
X130507142Y-117599000D01*
X130411904Y-117694238D01*
X130364285Y-117789476D01*
X130316666Y-117979952D01*
X130316666Y-118122809D01*
X130364285Y-118313285D01*
X130411904Y-118408523D01*
X130507142Y-118503761D01*
X130650000Y-118551380D01*
X130745238Y-118551380D01*
X130888095Y-118503761D01*
X130935714Y-118456142D01*
X130935714Y-118122809D01*
X130745238Y-118122809D01*
X131364285Y-118551380D02*
X131364285Y-117551380D01*
X131935714Y-118551380D01*
X131935714Y-117551380D01*
X132411904Y-118551380D02*
X132411904Y-117551380D01*
X132650000Y-117551380D01*
X132792857Y-117599000D01*
X132888095Y-117694238D01*
X132935714Y-117789476D01*
X132983333Y-117979952D01*
X132983333Y-118122809D01*
X132935714Y-118313285D01*
X132888095Y-118408523D01*
X132792857Y-118503761D01*
X132650000Y-118551380D01*
X132411904Y-118551380D01*
%TO.C,D1*%
X124961904Y-104542380D02*
X124961904Y-103542380D01*
X125200000Y-103542380D01*
X125342857Y-103590000D01*
X125438095Y-103685238D01*
X125485714Y-103780476D01*
X125533333Y-103970952D01*
X125533333Y-104113809D01*
X125485714Y-104304285D01*
X125438095Y-104399523D01*
X125342857Y-104494761D01*
X125200000Y-104542380D01*
X124961904Y-104542380D01*
X126485714Y-104542380D02*
X125914285Y-104542380D01*
X126200000Y-104542380D02*
X126200000Y-103542380D01*
X126104761Y-103685238D01*
X126009523Y-103780476D01*
X125914285Y-103828095D01*
%TO.C,D2*%
X130101904Y-94582380D02*
X130101904Y-93582380D01*
X130340000Y-93582380D01*
X130482857Y-93630000D01*
X130578095Y-93725238D01*
X130625714Y-93820476D01*
X130673333Y-94010952D01*
X130673333Y-94153809D01*
X130625714Y-94344285D01*
X130578095Y-94439523D01*
X130482857Y-94534761D01*
X130340000Y-94582380D01*
X130101904Y-94582380D01*
X131054285Y-93677619D02*
X131101904Y-93630000D01*
X131197142Y-93582380D01*
X131435238Y-93582380D01*
X131530476Y-93630000D01*
X131578095Y-93677619D01*
X131625714Y-93772857D01*
X131625714Y-93868095D01*
X131578095Y-94010952D01*
X131006666Y-94582380D01*
X131625714Y-94582380D01*
%TO.C,D3*%
X135181904Y-84602380D02*
X135181904Y-83602380D01*
X135420000Y-83602380D01*
X135562857Y-83650000D01*
X135658095Y-83745238D01*
X135705714Y-83840476D01*
X135753333Y-84030952D01*
X135753333Y-84173809D01*
X135705714Y-84364285D01*
X135658095Y-84459523D01*
X135562857Y-84554761D01*
X135420000Y-84602380D01*
X135181904Y-84602380D01*
X136086666Y-83602380D02*
X136705714Y-83602380D01*
X136372380Y-83983333D01*
X136515238Y-83983333D01*
X136610476Y-84030952D01*
X136658095Y-84078571D01*
X136705714Y-84173809D01*
X136705714Y-84411904D01*
X136658095Y-84507142D01*
X136610476Y-84554761D01*
X136515238Y-84602380D01*
X136229523Y-84602380D01*
X136134285Y-84554761D01*
X136086666Y-84507142D01*
%TO.C,D4*%
X140301904Y-74692380D02*
X140301904Y-73692380D01*
X140540000Y-73692380D01*
X140682857Y-73740000D01*
X140778095Y-73835238D01*
X140825714Y-73930476D01*
X140873333Y-74120952D01*
X140873333Y-74263809D01*
X140825714Y-74454285D01*
X140778095Y-74549523D01*
X140682857Y-74644761D01*
X140540000Y-74692380D01*
X140301904Y-74692380D01*
X141730476Y-74025714D02*
X141730476Y-74692380D01*
X141492380Y-73644761D02*
X141254285Y-74359047D01*
X141873333Y-74359047D01*
%TO.C,D5*%
X145401904Y-64732380D02*
X145401904Y-63732380D01*
X145640000Y-63732380D01*
X145782857Y-63780000D01*
X145878095Y-63875238D01*
X145925714Y-63970476D01*
X145973333Y-64160952D01*
X145973333Y-64303809D01*
X145925714Y-64494285D01*
X145878095Y-64589523D01*
X145782857Y-64684761D01*
X145640000Y-64732380D01*
X145401904Y-64732380D01*
X146878095Y-63732380D02*
X146401904Y-63732380D01*
X146354285Y-64208571D01*
X146401904Y-64160952D01*
X146497142Y-64113333D01*
X146735238Y-64113333D01*
X146830476Y-64160952D01*
X146878095Y-64208571D01*
X146925714Y-64303809D01*
X146925714Y-64541904D01*
X146878095Y-64637142D01*
X146830476Y-64684761D01*
X146735238Y-64732380D01*
X146497142Y-64732380D01*
X146401904Y-64684761D01*
X146354285Y-64637142D01*
%TO.C,D6*%
X150611904Y-74702380D02*
X150611904Y-73702380D01*
X150850000Y-73702380D01*
X150992857Y-73750000D01*
X151088095Y-73845238D01*
X151135714Y-73940476D01*
X151183333Y-74130952D01*
X151183333Y-74273809D01*
X151135714Y-74464285D01*
X151088095Y-74559523D01*
X150992857Y-74654761D01*
X150850000Y-74702380D01*
X150611904Y-74702380D01*
X152040476Y-73702380D02*
X151850000Y-73702380D01*
X151754761Y-73750000D01*
X151707142Y-73797619D01*
X151611904Y-73940476D01*
X151564285Y-74130952D01*
X151564285Y-74511904D01*
X151611904Y-74607142D01*
X151659523Y-74654761D01*
X151754761Y-74702380D01*
X151945238Y-74702380D01*
X152040476Y-74654761D01*
X152088095Y-74607142D01*
X152135714Y-74511904D01*
X152135714Y-74273809D01*
X152088095Y-74178571D01*
X152040476Y-74130952D01*
X151945238Y-74083333D01*
X151754761Y-74083333D01*
X151659523Y-74130952D01*
X151611904Y-74178571D01*
X151564285Y-74273809D01*
%TO.C,D7*%
X155631904Y-84612380D02*
X155631904Y-83612380D01*
X155870000Y-83612380D01*
X156012857Y-83660000D01*
X156108095Y-83755238D01*
X156155714Y-83850476D01*
X156203333Y-84040952D01*
X156203333Y-84183809D01*
X156155714Y-84374285D01*
X156108095Y-84469523D01*
X156012857Y-84564761D01*
X155870000Y-84612380D01*
X155631904Y-84612380D01*
X156536666Y-83612380D02*
X157203333Y-83612380D01*
X156774761Y-84612380D01*
%TO.C,D8*%
X160771904Y-94462380D02*
X160771904Y-93462380D01*
X161010000Y-93462380D01*
X161152857Y-93510000D01*
X161248095Y-93605238D01*
X161295714Y-93700476D01*
X161343333Y-93890952D01*
X161343333Y-94033809D01*
X161295714Y-94224285D01*
X161248095Y-94319523D01*
X161152857Y-94414761D01*
X161010000Y-94462380D01*
X160771904Y-94462380D01*
X161914761Y-93890952D02*
X161819523Y-93843333D01*
X161771904Y-93795714D01*
X161724285Y-93700476D01*
X161724285Y-93652857D01*
X161771904Y-93557619D01*
X161819523Y-93510000D01*
X161914761Y-93462380D01*
X162105238Y-93462380D01*
X162200476Y-93510000D01*
X162248095Y-93557619D01*
X162295714Y-93652857D01*
X162295714Y-93700476D01*
X162248095Y-93795714D01*
X162200476Y-93843333D01*
X162105238Y-93890952D01*
X161914761Y-93890952D01*
X161819523Y-93938571D01*
X161771904Y-93986190D01*
X161724285Y-94081428D01*
X161724285Y-94271904D01*
X161771904Y-94367142D01*
X161819523Y-94414761D01*
X161914761Y-94462380D01*
X162105238Y-94462380D01*
X162200476Y-94414761D01*
X162248095Y-94367142D01*
X162295714Y-94271904D01*
X162295714Y-94081428D01*
X162248095Y-93986190D01*
X162200476Y-93938571D01*
X162105238Y-93890952D01*
%TO.C,D9*%
X165871904Y-104502380D02*
X165871904Y-103502380D01*
X166110000Y-103502380D01*
X166252857Y-103550000D01*
X166348095Y-103645238D01*
X166395714Y-103740476D01*
X166443333Y-103930952D01*
X166443333Y-104073809D01*
X166395714Y-104264285D01*
X166348095Y-104359523D01*
X166252857Y-104454761D01*
X166110000Y-104502380D01*
X165871904Y-104502380D01*
X166919523Y-104502380D02*
X167110000Y-104502380D01*
X167205238Y-104454761D01*
X167252857Y-104407142D01*
X167348095Y-104264285D01*
X167395714Y-104073809D01*
X167395714Y-103692857D01*
X167348095Y-103597619D01*
X167300476Y-103550000D01*
X167205238Y-103502380D01*
X167014761Y-103502380D01*
X166919523Y-103550000D01*
X166871904Y-103597619D01*
X166824285Y-103692857D01*
X166824285Y-103930952D01*
X166871904Y-104026190D01*
X166919523Y-104073809D01*
X167014761Y-104121428D01*
X167205238Y-104121428D01*
X167300476Y-104073809D01*
X167348095Y-104026190D01*
X167395714Y-103930952D01*
%TO.C,Bu-*%
X147970000Y-99468571D02*
X148112857Y-99516190D01*
X148160476Y-99563809D01*
X148208095Y-99659047D01*
X148208095Y-99801904D01*
X148160476Y-99897142D01*
X148112857Y-99944761D01*
X148017619Y-99992380D01*
X147636666Y-99992380D01*
X147636666Y-98992380D01*
X147970000Y-98992380D01*
X148065238Y-99040000D01*
X148112857Y-99087619D01*
X148160476Y-99182857D01*
X148160476Y-99278095D01*
X148112857Y-99373333D01*
X148065238Y-99420952D01*
X147970000Y-99468571D01*
X147636666Y-99468571D01*
X149065238Y-99325714D02*
X149065238Y-99992380D01*
X148636666Y-99325714D02*
X148636666Y-99849523D01*
X148684285Y-99944761D01*
X148779523Y-99992380D01*
X148922380Y-99992380D01*
X149017619Y-99944761D01*
X149065238Y-99897142D01*
X149541428Y-99611428D02*
X150303333Y-99611428D01*
%TO.C,U2*%
X133828095Y-117542380D02*
X133828095Y-118351904D01*
X133875714Y-118447142D01*
X133923333Y-118494761D01*
X134018571Y-118542380D01*
X134209047Y-118542380D01*
X134304285Y-118494761D01*
X134351904Y-118447142D01*
X134399523Y-118351904D01*
X134399523Y-117542380D01*
X134828095Y-117637619D02*
X134875714Y-117590000D01*
X134970952Y-117542380D01*
X135209047Y-117542380D01*
X135304285Y-117590000D01*
X135351904Y-117637619D01*
X135399523Y-117732857D01*
X135399523Y-117828095D01*
X135351904Y-117970952D01*
X134780476Y-118542380D01*
X135399523Y-118542380D01*
%TO.C,U3*%
X136698095Y-117542380D02*
X136698095Y-118351904D01*
X136745714Y-118447142D01*
X136793333Y-118494761D01*
X136888571Y-118542380D01*
X137079047Y-118542380D01*
X137174285Y-118494761D01*
X137221904Y-118447142D01*
X137269523Y-118351904D01*
X137269523Y-117542380D01*
X137650476Y-117542380D02*
X138269523Y-117542380D01*
X137936190Y-117923333D01*
X138079047Y-117923333D01*
X138174285Y-117970952D01*
X138221904Y-118018571D01*
X138269523Y-118113809D01*
X138269523Y-118351904D01*
X138221904Y-118447142D01*
X138174285Y-118494761D01*
X138079047Y-118542380D01*
X137793333Y-118542380D01*
X137698095Y-118494761D01*
X137650476Y-118447142D01*
%TO.C,U4*%
X139668095Y-117492380D02*
X139668095Y-118301904D01*
X139715714Y-118397142D01*
X139763333Y-118444761D01*
X139858571Y-118492380D01*
X140049047Y-118492380D01*
X140144285Y-118444761D01*
X140191904Y-118397142D01*
X140239523Y-118301904D01*
X140239523Y-117492380D01*
X141144285Y-117825714D02*
X141144285Y-118492380D01*
X140906190Y-117444761D02*
X140668095Y-118159047D01*
X141287142Y-118159047D01*
%TO.C,U5*%
X142498095Y-117542380D02*
X142498095Y-118351904D01*
X142545714Y-118447142D01*
X142593333Y-118494761D01*
X142688571Y-118542380D01*
X142879047Y-118542380D01*
X142974285Y-118494761D01*
X143021904Y-118447142D01*
X143069523Y-118351904D01*
X143069523Y-117542380D01*
X144021904Y-117542380D02*
X143545714Y-117542380D01*
X143498095Y-118018571D01*
X143545714Y-117970952D01*
X143640952Y-117923333D01*
X143879047Y-117923333D01*
X143974285Y-117970952D01*
X144021904Y-118018571D01*
X144069523Y-118113809D01*
X144069523Y-118351904D01*
X144021904Y-118447142D01*
X143974285Y-118494761D01*
X143879047Y-118542380D01*
X143640952Y-118542380D01*
X143545714Y-118494761D01*
X143498095Y-118447142D01*
%TO.C,U6*%
X145494885Y-117491380D02*
X145494885Y-118300904D01*
X145542504Y-118396142D01*
X145590123Y-118443761D01*
X145685361Y-118491380D01*
X145875837Y-118491380D01*
X145971075Y-118443761D01*
X146018694Y-118396142D01*
X146066313Y-118300904D01*
X146066313Y-117491380D01*
X146971075Y-117491380D02*
X146780599Y-117491380D01*
X146685361Y-117539000D01*
X146637742Y-117586619D01*
X146542504Y-117729476D01*
X146494885Y-117919952D01*
X146494885Y-118300904D01*
X146542504Y-118396142D01*
X146590123Y-118443761D01*
X146685361Y-118491380D01*
X146875837Y-118491380D01*
X146971075Y-118443761D01*
X147018694Y-118396142D01*
X147066313Y-118300904D01*
X147066313Y-118062809D01*
X147018694Y-117967571D01*
X146971075Y-117919952D01*
X146875837Y-117872333D01*
X146685361Y-117872333D01*
X146590123Y-117919952D01*
X146542504Y-117967571D01*
X146494885Y-118062809D01*
%TO.C,U7*%
X148311481Y-117411380D02*
X148311481Y-118220904D01*
X148359100Y-118316142D01*
X148406719Y-118363761D01*
X148501957Y-118411380D01*
X148692433Y-118411380D01*
X148787671Y-118363761D01*
X148835290Y-118316142D01*
X148882909Y-118220904D01*
X148882909Y-117411380D01*
X149263862Y-117411380D02*
X149930528Y-117411380D01*
X149501957Y-118411380D01*
%TO.C,U8*%
X151448095Y-117442380D02*
X151448095Y-118251904D01*
X151495714Y-118347142D01*
X151543333Y-118394761D01*
X151638571Y-118442380D01*
X151829047Y-118442380D01*
X151924285Y-118394761D01*
X151971904Y-118347142D01*
X152019523Y-118251904D01*
X152019523Y-117442380D01*
X152638571Y-117870952D02*
X152543333Y-117823333D01*
X152495714Y-117775714D01*
X152448095Y-117680476D01*
X152448095Y-117632857D01*
X152495714Y-117537619D01*
X152543333Y-117490000D01*
X152638571Y-117442380D01*
X152829047Y-117442380D01*
X152924285Y-117490000D01*
X152971904Y-117537619D01*
X153019523Y-117632857D01*
X153019523Y-117680476D01*
X152971904Y-117775714D01*
X152924285Y-117823333D01*
X152829047Y-117870952D01*
X152638571Y-117870952D01*
X152543333Y-117918571D01*
X152495714Y-117966190D01*
X152448095Y-118061428D01*
X152448095Y-118251904D01*
X152495714Y-118347142D01*
X152543333Y-118394761D01*
X152638571Y-118442380D01*
X152829047Y-118442380D01*
X152924285Y-118394761D01*
X152971904Y-118347142D01*
X153019523Y-118251904D01*
X153019523Y-118061428D01*
X152971904Y-117966190D01*
X152924285Y-117918571D01*
X152829047Y-117870952D01*
%TO.C,U9*%
X154468095Y-117442380D02*
X154468095Y-118251904D01*
X154515714Y-118347142D01*
X154563333Y-118394761D01*
X154658571Y-118442380D01*
X154849047Y-118442380D01*
X154944285Y-118394761D01*
X154991904Y-118347142D01*
X155039523Y-118251904D01*
X155039523Y-117442380D01*
X155563333Y-118442380D02*
X155753809Y-118442380D01*
X155849047Y-118394761D01*
X155896666Y-118347142D01*
X155991904Y-118204285D01*
X156039523Y-118013809D01*
X156039523Y-117632857D01*
X155991904Y-117537619D01*
X155944285Y-117490000D01*
X155849047Y-117442380D01*
X155658571Y-117442380D01*
X155563333Y-117490000D01*
X155515714Y-117537619D01*
X155468095Y-117632857D01*
X155468095Y-117870952D01*
X155515714Y-117966190D01*
X155563333Y-118013809D01*
X155658571Y-118061428D01*
X155849047Y-118061428D01*
X155944285Y-118013809D01*
X155991904Y-117966190D01*
X156039523Y-117870952D01*
%TO.C,U10*%
X156861904Y-117542380D02*
X156861904Y-118351904D01*
X156909523Y-118447142D01*
X156957142Y-118494761D01*
X157052380Y-118542380D01*
X157242857Y-118542380D01*
X157338095Y-118494761D01*
X157385714Y-118447142D01*
X157433333Y-118351904D01*
X157433333Y-117542380D01*
X158433333Y-118542380D02*
X157861904Y-118542380D01*
X158147619Y-118542380D02*
X158147619Y-117542380D01*
X158052380Y-117685238D01*
X157957142Y-117780476D01*
X157861904Y-117828095D01*
X159052380Y-117542380D02*
X159147619Y-117542380D01*
X159242857Y-117590000D01*
X159290476Y-117637619D01*
X159338095Y-117732857D01*
X159385714Y-117923333D01*
X159385714Y-118161428D01*
X159338095Y-118351904D01*
X159290476Y-118447142D01*
X159242857Y-118494761D01*
X159147619Y-118542380D01*
X159052380Y-118542380D01*
X158957142Y-118494761D01*
X158909523Y-118447142D01*
X158861904Y-118351904D01*
X158814285Y-118161428D01*
X158814285Y-117923333D01*
X158861904Y-117732857D01*
X158909523Y-117637619D01*
X158957142Y-117590000D01*
X159052380Y-117542380D01*
%TO.C,Bu*%
X160863587Y-118007571D02*
X161006444Y-118055190D01*
X161054063Y-118102809D01*
X161101682Y-118198047D01*
X161101682Y-118340904D01*
X161054063Y-118436142D01*
X161006444Y-118483761D01*
X160911206Y-118531380D01*
X160530254Y-118531380D01*
X160530254Y-117531380D01*
X160863587Y-117531380D01*
X160958825Y-117579000D01*
X161006444Y-117626619D01*
X161054063Y-117721857D01*
X161054063Y-117817095D01*
X161006444Y-117912333D01*
X160958825Y-117959952D01*
X160863587Y-118007571D01*
X160530254Y-118007571D01*
X161958825Y-117864714D02*
X161958825Y-118531380D01*
X161530254Y-117864714D02*
X161530254Y-118388523D01*
X161577873Y-118483761D01*
X161673111Y-118531380D01*
X161815968Y-118531380D01*
X161911206Y-118483761D01*
X161958825Y-118436142D01*
%TO.C,Bu+*%
X141940000Y-99488571D02*
X142082857Y-99536190D01*
X142130476Y-99583809D01*
X142178095Y-99679047D01*
X142178095Y-99821904D01*
X142130476Y-99917142D01*
X142082857Y-99964761D01*
X141987619Y-100012380D01*
X141606666Y-100012380D01*
X141606666Y-99012380D01*
X141940000Y-99012380D01*
X142035238Y-99060000D01*
X142082857Y-99107619D01*
X142130476Y-99202857D01*
X142130476Y-99298095D01*
X142082857Y-99393333D01*
X142035238Y-99440952D01*
X141940000Y-99488571D01*
X141606666Y-99488571D01*
X143035238Y-99345714D02*
X143035238Y-100012380D01*
X142606666Y-99345714D02*
X142606666Y-99869523D01*
X142654285Y-99964761D01*
X142749523Y-100012380D01*
X142892380Y-100012380D01*
X142987619Y-99964761D01*
X143035238Y-99917142D01*
X143511428Y-99631428D02*
X144273333Y-99631428D01*
X143892380Y-100012380D02*
X143892380Y-99250476D01*
%TD*%
M02*
