%TF.GenerationSoftware,KiCad,Pcbnew,(5.1.9)-1*%
%TF.CreationDate,2022-06-22T15:09:01+02:00*%
%TF.ProjectId,Wbaum,57626175-6d2e-46b6-9963-61645f706362,rev?*%
%TF.SameCoordinates,Original*%
%TF.FileFunction,Soldermask,Bot*%
%TF.FilePolarity,Negative*%
%FSLAX46Y46*%
G04 Gerber Fmt 4.6, Leading zero omitted, Abs format (unit mm)*
G04 Created by KiCad (PCBNEW (5.1.9)-1) date 2022-06-22 15:09:01*
%MOMM*%
%LPD*%
G01*
G04 APERTURE LIST*
%ADD10C,2.200000*%
G04 APERTURE END LIST*
%TO.C,GND*%
G36*
G01*
X130420000Y-116959000D02*
X130420000Y-114959000D01*
G75*
G02*
X130620000Y-114759000I200000J0D01*
G01*
X132620000Y-114759000D01*
G75*
G02*
X132820000Y-114959000I0J-200000D01*
G01*
X132820000Y-116959000D01*
G75*
G02*
X132620000Y-117159000I-200000J0D01*
G01*
X130620000Y-117159000D01*
G75*
G02*
X130420000Y-116959000I0J200000D01*
G01*
G37*
%TD*%
%TO.C,D1*%
G36*
G01*
X123330000Y-108950000D02*
X123330000Y-107150000D01*
G75*
G02*
X123530000Y-106950000I200000J0D01*
G01*
X125330000Y-106950000D01*
G75*
G02*
X125530000Y-107150000I0J-200000D01*
G01*
X125530000Y-108950000D01*
G75*
G02*
X125330000Y-109150000I-200000J0D01*
G01*
X123530000Y-109150000D01*
G75*
G02*
X123330000Y-108950000I0J200000D01*
G01*
G37*
D10*
X126970000Y-108050000D03*
%TD*%
%TO.C,D2*%
X132110000Y-98090000D03*
G36*
G01*
X128470000Y-98990000D02*
X128470000Y-97190000D01*
G75*
G02*
X128670000Y-96990000I200000J0D01*
G01*
X130470000Y-96990000D01*
G75*
G02*
X130670000Y-97190000I0J-200000D01*
G01*
X130670000Y-98990000D01*
G75*
G02*
X130470000Y-99190000I-200000J0D01*
G01*
X128670000Y-99190000D01*
G75*
G02*
X128470000Y-98990000I0J200000D01*
G01*
G37*
%TD*%
%TO.C,D3*%
G36*
G01*
X133550000Y-89010000D02*
X133550000Y-87210000D01*
G75*
G02*
X133750000Y-87010000I200000J0D01*
G01*
X135550000Y-87010000D01*
G75*
G02*
X135750000Y-87210000I0J-200000D01*
G01*
X135750000Y-89010000D01*
G75*
G02*
X135550000Y-89210000I-200000J0D01*
G01*
X133750000Y-89210000D01*
G75*
G02*
X133550000Y-89010000I0J200000D01*
G01*
G37*
X137190000Y-88110000D03*
%TD*%
%TO.C,D4*%
X142310000Y-78200000D03*
G36*
G01*
X138670000Y-79100000D02*
X138670000Y-77300000D01*
G75*
G02*
X138870000Y-77100000I200000J0D01*
G01*
X140670000Y-77100000D01*
G75*
G02*
X140870000Y-77300000I0J-200000D01*
G01*
X140870000Y-79100000D01*
G75*
G02*
X140670000Y-79300000I-200000J0D01*
G01*
X138870000Y-79300000D01*
G75*
G02*
X138670000Y-79100000I0J200000D01*
G01*
G37*
%TD*%
%TO.C,D5*%
G36*
G01*
X143770000Y-69140000D02*
X143770000Y-67340000D01*
G75*
G02*
X143970000Y-67140000I200000J0D01*
G01*
X145770000Y-67140000D01*
G75*
G02*
X145970000Y-67340000I0J-200000D01*
G01*
X145970000Y-69140000D01*
G75*
G02*
X145770000Y-69340000I-200000J0D01*
G01*
X143970000Y-69340000D01*
G75*
G02*
X143770000Y-69140000I0J200000D01*
G01*
G37*
X147410000Y-68240000D03*
%TD*%
%TO.C,D6*%
X152620000Y-78210000D03*
G36*
G01*
X148980000Y-79110000D02*
X148980000Y-77310000D01*
G75*
G02*
X149180000Y-77110000I200000J0D01*
G01*
X150980000Y-77110000D01*
G75*
G02*
X151180000Y-77310000I0J-200000D01*
G01*
X151180000Y-79110000D01*
G75*
G02*
X150980000Y-79310000I-200000J0D01*
G01*
X149180000Y-79310000D01*
G75*
G02*
X148980000Y-79110000I0J200000D01*
G01*
G37*
%TD*%
%TO.C,D7*%
G36*
G01*
X154000000Y-89020000D02*
X154000000Y-87220000D01*
G75*
G02*
X154200000Y-87020000I200000J0D01*
G01*
X156000000Y-87020000D01*
G75*
G02*
X156200000Y-87220000I0J-200000D01*
G01*
X156200000Y-89020000D01*
G75*
G02*
X156000000Y-89220000I-200000J0D01*
G01*
X154200000Y-89220000D01*
G75*
G02*
X154000000Y-89020000I0J200000D01*
G01*
G37*
X157640000Y-88120000D03*
%TD*%
%TO.C,D8*%
X162780000Y-97970000D03*
G36*
G01*
X159140000Y-98870000D02*
X159140000Y-97070000D01*
G75*
G02*
X159340000Y-96870000I200000J0D01*
G01*
X161140000Y-96870000D01*
G75*
G02*
X161340000Y-97070000I0J-200000D01*
G01*
X161340000Y-98870000D01*
G75*
G02*
X161140000Y-99070000I-200000J0D01*
G01*
X159340000Y-99070000D01*
G75*
G02*
X159140000Y-98870000I0J200000D01*
G01*
G37*
%TD*%
%TO.C,D9*%
G36*
G01*
X164240000Y-108910000D02*
X164240000Y-107110000D01*
G75*
G02*
X164440000Y-106910000I200000J0D01*
G01*
X166240000Y-106910000D01*
G75*
G02*
X166440000Y-107110000I0J-200000D01*
G01*
X166440000Y-108910000D01*
G75*
G02*
X166240000Y-109110000I-200000J0D01*
G01*
X164440000Y-109110000D01*
G75*
G02*
X164240000Y-108910000I0J200000D01*
G01*
G37*
X167880000Y-108010000D03*
%TD*%
%TO.C,Bu-*%
G36*
G01*
X147700000Y-102720000D02*
X147700000Y-100720000D01*
G75*
G02*
X147900000Y-100520000I200000J0D01*
G01*
X149900000Y-100520000D01*
G75*
G02*
X150100000Y-100720000I0J-200000D01*
G01*
X150100000Y-102720000D01*
G75*
G02*
X149900000Y-102920000I-200000J0D01*
G01*
X147900000Y-102920000D01*
G75*
G02*
X147700000Y-102720000I0J200000D01*
G01*
G37*
%TD*%
%TO.C,U2*%
G36*
G01*
X133364454Y-116959000D02*
X133364454Y-114959000D01*
G75*
G02*
X133564454Y-114759000I200000J0D01*
G01*
X135564454Y-114759000D01*
G75*
G02*
X135764454Y-114959000I0J-200000D01*
G01*
X135764454Y-116959000D01*
G75*
G02*
X135564454Y-117159000I-200000J0D01*
G01*
X133564454Y-117159000D01*
G75*
G02*
X133364454Y-116959000I0J200000D01*
G01*
G37*
%TD*%
%TO.C,U3*%
G36*
G01*
X136308908Y-116959000D02*
X136308908Y-114959000D01*
G75*
G02*
X136508908Y-114759000I200000J0D01*
G01*
X138508908Y-114759000D01*
G75*
G02*
X138708908Y-114959000I0J-200000D01*
G01*
X138708908Y-116959000D01*
G75*
G02*
X138508908Y-117159000I-200000J0D01*
G01*
X136508908Y-117159000D01*
G75*
G02*
X136308908Y-116959000I0J200000D01*
G01*
G37*
%TD*%
%TO.C,U4*%
G36*
G01*
X139253362Y-116959000D02*
X139253362Y-114959000D01*
G75*
G02*
X139453362Y-114759000I200000J0D01*
G01*
X141453362Y-114759000D01*
G75*
G02*
X141653362Y-114959000I0J-200000D01*
G01*
X141653362Y-116959000D01*
G75*
G02*
X141453362Y-117159000I-200000J0D01*
G01*
X139453362Y-117159000D01*
G75*
G02*
X139253362Y-116959000I0J200000D01*
G01*
G37*
%TD*%
%TO.C,U5*%
G36*
G01*
X142197816Y-116959000D02*
X142197816Y-114959000D01*
G75*
G02*
X142397816Y-114759000I200000J0D01*
G01*
X144397816Y-114759000D01*
G75*
G02*
X144597816Y-114959000I0J-200000D01*
G01*
X144597816Y-116959000D01*
G75*
G02*
X144397816Y-117159000I-200000J0D01*
G01*
X142397816Y-117159000D01*
G75*
G02*
X142197816Y-116959000I0J200000D01*
G01*
G37*
%TD*%
%TO.C,U6*%
G36*
G01*
X145142270Y-116959000D02*
X145142270Y-114959000D01*
G75*
G02*
X145342270Y-114759000I200000J0D01*
G01*
X147342270Y-114759000D01*
G75*
G02*
X147542270Y-114959000I0J-200000D01*
G01*
X147542270Y-116959000D01*
G75*
G02*
X147342270Y-117159000I-200000J0D01*
G01*
X145342270Y-117159000D01*
G75*
G02*
X145142270Y-116959000I0J200000D01*
G01*
G37*
%TD*%
%TO.C,U7*%
G36*
G01*
X148086724Y-116959000D02*
X148086724Y-114959000D01*
G75*
G02*
X148286724Y-114759000I200000J0D01*
G01*
X150286724Y-114759000D01*
G75*
G02*
X150486724Y-114959000I0J-200000D01*
G01*
X150486724Y-116959000D01*
G75*
G02*
X150286724Y-117159000I-200000J0D01*
G01*
X148286724Y-117159000D01*
G75*
G02*
X148086724Y-116959000I0J200000D01*
G01*
G37*
%TD*%
%TO.C,U8*%
G36*
G01*
X151031178Y-116959000D02*
X151031178Y-114959000D01*
G75*
G02*
X151231178Y-114759000I200000J0D01*
G01*
X153231178Y-114759000D01*
G75*
G02*
X153431178Y-114959000I0J-200000D01*
G01*
X153431178Y-116959000D01*
G75*
G02*
X153231178Y-117159000I-200000J0D01*
G01*
X151231178Y-117159000D01*
G75*
G02*
X151031178Y-116959000I0J200000D01*
G01*
G37*
%TD*%
%TO.C,U9*%
G36*
G01*
X153975632Y-116959000D02*
X153975632Y-114959000D01*
G75*
G02*
X154175632Y-114759000I200000J0D01*
G01*
X156175632Y-114759000D01*
G75*
G02*
X156375632Y-114959000I0J-200000D01*
G01*
X156375632Y-116959000D01*
G75*
G02*
X156175632Y-117159000I-200000J0D01*
G01*
X154175632Y-117159000D01*
G75*
G02*
X153975632Y-116959000I0J200000D01*
G01*
G37*
%TD*%
%TO.C,U10*%
G36*
G01*
X156920086Y-116959000D02*
X156920086Y-114959000D01*
G75*
G02*
X157120086Y-114759000I200000J0D01*
G01*
X159120086Y-114759000D01*
G75*
G02*
X159320086Y-114959000I0J-200000D01*
G01*
X159320086Y-116959000D01*
G75*
G02*
X159120086Y-117159000I-200000J0D01*
G01*
X157120086Y-117159000D01*
G75*
G02*
X156920086Y-116959000I0J200000D01*
G01*
G37*
%TD*%
%TO.C,Bu*%
G36*
G01*
X159864540Y-116959000D02*
X159864540Y-114959000D01*
G75*
G02*
X160064540Y-114759000I200000J0D01*
G01*
X162064540Y-114759000D01*
G75*
G02*
X162264540Y-114959000I0J-200000D01*
G01*
X162264540Y-116959000D01*
G75*
G02*
X162064540Y-117159000I-200000J0D01*
G01*
X160064540Y-117159000D01*
G75*
G02*
X159864540Y-116959000I0J200000D01*
G01*
G37*
%TD*%
%TO.C,Bu+*%
G36*
G01*
X141790000Y-102720000D02*
X141790000Y-100720000D01*
G75*
G02*
X141990000Y-100520000I200000J0D01*
G01*
X143990000Y-100520000D01*
G75*
G02*
X144190000Y-100720000I0J-200000D01*
G01*
X144190000Y-102720000D01*
G75*
G02*
X143990000Y-102920000I-200000J0D01*
G01*
X141990000Y-102920000D01*
G75*
G02*
X141790000Y-102720000I0J200000D01*
G01*
G37*
%TD*%
M02*
