M48
; DRILL file {KiCad 9.0.6} date 2025-12-02T10:32:07+0100
; FORMAT={-:-/ absolute / inch / decimal}
; #@! TF.CreationDate,2025-12-02T10:32:07+01:00
; #@! TF.GenerationSoftware,Kicad,Pcbnew,9.0.6
; #@! TF.FileFunction,Plated,1,2,PTH
FMAT,2
INCH
; #@! TA.AperFunction,Plated,PTH,ComponentDrill
T1C0.0394
%
G90
G05
T1
X4.37Y-14.04
X4.39Y-12.3
X4.39Y-12.4
X4.39Y-12.5
X4.39Y-12.6
X4.39Y-12.7
X4.39Y-12.8
X4.39Y-12.9
X4.39Y-13.0
X4.39Y-13.1
X4.39Y-13.2
X4.39Y-13.3
X4.39Y-13.4
X4.39Y-13.5
X4.39Y-13.6
X4.39Y-13.7
X4.39Y-13.8
X4.49Y-12.3
X4.49Y-12.4
X4.49Y-12.5
X4.49Y-12.6
X4.49Y-12.7
X4.49Y-12.8
X4.49Y-12.9
X4.49Y-13.0
X4.49Y-13.1
X4.49Y-13.2
X4.49Y-13.3
X4.49Y-13.4
X4.49Y-13.5
X4.49Y-13.6
X4.49Y-13.7
X4.49Y-13.8
X4.57Y-14.04
X4.5925Y-12.3004
X4.5925Y-12.4004
X4.5925Y-12.5004
X4.5925Y-12.6004
X4.5925Y-12.7004
X4.5925Y-12.8004
X4.5925Y-12.9004
X4.5925Y-13.0004
X4.5925Y-13.1004
X4.5925Y-13.2004
X4.5925Y-13.3004
X4.5925Y-13.4004
X4.5925Y-13.5004
X4.5925Y-13.6004
X4.5925Y-13.7004
X4.5925Y-13.8004
X4.8012Y-12.3108
X4.8012Y-12.4108
X4.8012Y-12.5108
X4.8012Y-12.6108
X4.8012Y-12.7108
X4.8012Y-12.8108
X4.8012Y-12.9108
X4.8012Y-13.0108
X4.8012Y-13.1108
X4.8012Y-13.2108
X4.8012Y-13.3108
X4.8012Y-13.4108
X4.8012Y-13.5108
X4.8012Y-13.6108
X4.8012Y-13.7108
X5.4012Y-12.3108
X5.4012Y-12.4108
X5.4012Y-12.5108
X5.4012Y-12.6108
X5.4012Y-12.7108
X5.4012Y-12.8108
X5.4012Y-12.9108
X5.4012Y-13.0108
X5.4012Y-13.1108
X5.4012Y-13.2108
X5.4012Y-13.3108
X5.4012Y-13.4108
X5.4012Y-13.5108
X5.4012Y-13.6108
X5.4012Y-13.7108
X5.62Y-12.21
X5.62Y-12.31
X5.62Y-12.41
X5.62Y-12.51
X5.62Y-12.61
X5.62Y-12.71
X5.62Y-12.81
X5.62Y-12.91
X5.62Y-13.01
X5.62Y-13.11
X5.62Y-13.21
X5.62Y-13.31
X5.62Y-13.41
X5.62Y-13.51
X5.62Y-13.61
X5.62Y-13.71
X5.62Y-13.92
X5.62Y-14.02
X5.62Y-14.12
M30
