%TF.GenerationSoftware,KiCad,Pcbnew,9.0.6*%
%TF.CreationDate,2025-12-02T10:32:04+01:00*%
%TF.ProjectId,NANO_Shield,4e414e4f-5f53-4686-9965-6c642e6b6963,rev?*%
%TF.SameCoordinates,Original*%
%TF.FileFunction,Copper,L1,Top*%
%TF.FilePolarity,Positive*%
%FSLAX46Y46*%
G04 Gerber Fmt 4.6, Leading zero omitted, Abs format (unit mm)*
G04 Created by KiCad (PCBNEW 9.0.6) date 2025-12-02 10:32:04*
%MOMM*%
%LPD*%
G01*
G04 APERTURE LIST*
%TA.AperFunction,ComponentPad*%
%ADD10R,1.600000X1.600000*%
%TD*%
%TA.AperFunction,ComponentPad*%
%ADD11O,1.600000X1.600000*%
%TD*%
%TA.AperFunction,ComponentPad*%
%ADD12C,2.000000*%
%TD*%
%TA.AperFunction,ComponentPad*%
%ADD13R,2.000000X2.000000*%
%TD*%
%TA.AperFunction,Conductor*%
%ADD14C,0.250000*%
%TD*%
G04 APERTURE END LIST*
D10*
%TO.P,A1,1*%
%TO.N,Net-(A1-Pad1)*%
X121951001Y-312695001D03*
D11*
%TO.P,A1,17*%
%TO.N,Net-(A1-Pad17)*%
X137191001Y-345715001D03*
%TO.P,A1,2*%
%TO.N,Net-(A1-Pad2)*%
X121951001Y-315235001D03*
%TO.P,A1,18*%
%TO.N,Net-(A1-Pad18)*%
X137191001Y-343175001D03*
%TO.P,A1,3*%
%TO.N,Net-(A1-Pad28)*%
X121951001Y-317775001D03*
%TO.P,A1,19*%
%TO.N,Net-(A1-Pad19)*%
X137191001Y-340635001D03*
%TO.P,A1,4*%
%TO.N,Net-(A1-Pad29)*%
X121951001Y-320315001D03*
%TO.P,A1,20*%
%TO.N,Net-(A1-Pad20)*%
X137191001Y-338095001D03*
%TO.P,A1,5*%
%TO.N,Net-(A1-Pad5)*%
X121951001Y-322855001D03*
%TO.P,A1,21*%
%TO.N,Net-(A1-Pad21)*%
X137191001Y-335555001D03*
%TO.P,A1,6*%
%TO.N,Net-(A1-Pad6)*%
X121951001Y-325395001D03*
%TO.P,A1,22*%
%TO.N,Net-(A1-Pad22)*%
X137191001Y-333015001D03*
%TO.P,A1,7*%
%TO.N,Net-(A1-Pad7)*%
X121951001Y-327935001D03*
%TO.P,A1,23*%
%TO.N,Net-(A1-Pad23)*%
X137191001Y-330475001D03*
%TO.P,A1,8*%
%TO.N,Net-(A1-Pad8)*%
X121951001Y-330475001D03*
%TO.P,A1,24*%
%TO.N,Net-(A1-Pad24)*%
X137191001Y-327935001D03*
%TO.P,A1,9*%
%TO.N,Net-(A1-Pad9)*%
X121951001Y-333015001D03*
%TO.P,A1,25*%
%TO.N,Net-(A1-Pad25)*%
X137191001Y-325395001D03*
%TO.P,A1,10*%
%TO.N,Net-(A1-Pad10)*%
X121951001Y-335555001D03*
%TO.P,A1,26*%
%TO.N,Net-(A1-Pad26)*%
X137191001Y-322855001D03*
%TO.P,A1,11*%
%TO.N,Net-(A1-Pad11)*%
X121951001Y-338095001D03*
%TO.P,A1,27*%
%TO.N,Net-(A1-Pad27)*%
X137191001Y-320315001D03*
%TO.P,A1,12*%
%TO.N,Net-(A1-Pad12)*%
X121951001Y-340635001D03*
%TO.P,A1,28*%
%TO.N,Net-(A1-Pad28)*%
X137191001Y-317775001D03*
%TO.P,A1,13*%
%TO.N,Net-(A1-Pad13)*%
X121951001Y-343175001D03*
%TO.P,A1,29*%
%TO.N,Net-(A1-Pad29)*%
X137191001Y-315235001D03*
%TO.P,A1,14*%
%TO.N,Net-(A1-Pad14)*%
X121951001Y-345715001D03*
%TO.P,A1,30*%
%TO.N,Net-(A1-Pad30)*%
X137191001Y-312695001D03*
%TO.P,A1,15*%
%TO.N,Net-(A1-Pad15)*%
X121951001Y-348255001D03*
%TO.P,A1,16*%
%TO.N,Net-(A1-Pad16)*%
X137191001Y-348255001D03*
%TD*%
D12*
%TO.P,J1,1*%
%TO.N,Net-(A1-Pad29)*%
X111506000Y-350520000D03*
%TO.P,J1,2*%
X111506000Y-347980000D03*
%TO.P,J1,3*%
X111506000Y-345440000D03*
%TO.P,J1,4*%
X111506000Y-342900000D03*
%TO.P,J1,5*%
X111506000Y-340360000D03*
%TO.P,J1,6*%
X111506000Y-337820000D03*
%TO.P,J1,7*%
X111506000Y-335280000D03*
%TO.P,J1,8*%
X111506000Y-332740000D03*
%TO.P,J1,9*%
X111506000Y-330200000D03*
%TO.P,J1,10*%
X111506000Y-327660000D03*
%TO.P,J1,11*%
X111506000Y-325120000D03*
%TO.P,J1,12*%
X111506000Y-322580000D03*
%TO.P,J1,13*%
X111506000Y-320040000D03*
%TO.P,J1,14*%
X111506000Y-317500000D03*
%TO.P,J1,15*%
X111506000Y-314960000D03*
%TO.P,J1,16*%
X111506000Y-312420000D03*
%TD*%
%TO.P,J2,16*%
%TO.N,Net-(A1-Pad27)*%
X114046000Y-350520000D03*
%TO.P,J2,15*%
X114046000Y-347980000D03*
%TO.P,J2,14*%
X114046000Y-345440000D03*
%TO.P,J2,13*%
X114046000Y-342900000D03*
%TO.P,J2,12*%
X114046000Y-340360000D03*
%TO.P,J2,11*%
X114046000Y-337820000D03*
%TO.P,J2,10*%
X114046000Y-335280000D03*
%TO.P,J2,9*%
X114046000Y-332740000D03*
%TO.P,J2,8*%
X114046000Y-330200000D03*
%TO.P,J2,7*%
X114046000Y-327660000D03*
%TO.P,J2,6*%
X114046000Y-325120000D03*
%TO.P,J2,5*%
X114046000Y-322580000D03*
%TO.P,J2,4*%
X114046000Y-320040000D03*
%TO.P,J2,3*%
X114046000Y-317500000D03*
%TO.P,J2,2*%
X114046000Y-314960000D03*
%TO.P,J2,1*%
X114046000Y-312420000D03*
%TD*%
%TO.P,J3,16*%
%TO.N,Net-(A1-Pad29)*%
X116650000Y-350530000D03*
%TO.P,J3,15*%
%TO.N,Net-(A1-Pad27)*%
X116650000Y-347990000D03*
%TO.P,J3,14*%
%TO.N,Net-(A1-Pad16)*%
X116650000Y-345450000D03*
%TO.P,J3,13*%
%TO.N,Net-(A1-Pad15)*%
X116650000Y-342910000D03*
%TO.P,J3,12*%
%TO.N,Net-(A1-Pad14)*%
X116650000Y-340370000D03*
%TO.P,J3,11*%
%TO.N,Net-(A1-Pad13)*%
X116650000Y-337830000D03*
%TO.P,J3,10*%
%TO.N,Net-(A1-Pad12)*%
X116650000Y-335290000D03*
%TO.P,J3,9*%
%TO.N,Net-(A1-Pad11)*%
X116650000Y-332750000D03*
%TO.P,J3,8*%
%TO.N,Net-(A1-Pad10)*%
X116650000Y-330210000D03*
%TO.P,J3,7*%
%TO.N,Net-(A1-Pad9)*%
X116650000Y-327670000D03*
%TO.P,J3,6*%
%TO.N,Net-(A1-Pad8)*%
X116650000Y-325130000D03*
%TO.P,J3,5*%
%TO.N,Net-(A1-Pad7)*%
X116650000Y-322590000D03*
%TO.P,J3,4*%
%TO.N,Net-(A1-Pad6)*%
X116650000Y-320050000D03*
%TO.P,J3,3*%
%TO.N,Net-(A1-Pad5)*%
X116650000Y-317510000D03*
%TO.P,J3,2*%
%TO.N,Net-(A1-Pad1)*%
X116650000Y-314970000D03*
%TO.P,J3,1*%
%TO.N,Net-(A1-Pad2)*%
X116650000Y-312430000D03*
%TD*%
%TO.P,J4,1*%
%TO.N,Net-(A1-Pad19)*%
X142748000Y-348234000D03*
%TO.P,J4,2*%
%TO.N,Net-(A1-Pad20)*%
X142748000Y-345694000D03*
%TO.P,J4,3*%
%TO.N,Net-(A1-Pad21)*%
X142748000Y-343154000D03*
%TO.P,J4,4*%
%TO.N,Net-(A1-Pad22)*%
X142748000Y-340614000D03*
%TO.P,J4,5*%
%TO.N,Net-(A1-Pad23)*%
X142748000Y-338074000D03*
%TO.P,J4,6*%
%TO.N,Net-(A1-Pad24)*%
X142748000Y-335534000D03*
%TO.P,J4,7*%
%TO.N,Net-(A1-Pad25)*%
X142748000Y-332994000D03*
%TO.P,J4,8*%
%TO.N,Net-(A1-Pad26)*%
X142748000Y-330454000D03*
%TO.P,J4,9*%
%TO.N,Net-(A1-Pad18)*%
X142748000Y-327914000D03*
%TO.P,J4,10*%
%TO.N,Net-(A1-Pad28)*%
X142748000Y-325374000D03*
%TO.P,J4,11*%
%TO.N,Net-(J4-Pad11)*%
X142748000Y-322834000D03*
%TO.P,J4,12*%
%TO.N,Net-(J4-Pad12)*%
X142748000Y-320294000D03*
%TO.P,J4,13*%
%TO.N,Net-(J4-Pad13)*%
X142748000Y-317754000D03*
%TO.P,J4,14*%
%TO.N,Net-(A1-Pad30)*%
X142748000Y-315214000D03*
%TO.P,J4,15*%
%TO.N,Net-(A1-Pad17)*%
X142748000Y-312674000D03*
%TO.P,J4,16*%
%TO.N,Net-(A1-Pad27)*%
X142748000Y-310134000D03*
%TD*%
%TO.P,S1,1*%
%TO.N,Net-(S1-Pad1)*%
X142748000Y-358648000D03*
%TO.P,S1,2*%
%TO.N,Net-(A1-Pad27)*%
X142748000Y-356108000D03*
%TO.P,S1,3*%
%TO.N,Net-(S1-Pad3)*%
X142748000Y-353568000D03*
%TD*%
%TO.P,GND,1*%
%TO.N,Net-(A1-Pad29)*%
X110998000Y-356616000D03*
D13*
%TO.P,GND,2*%
%TO.N,Net-(S1-Pad1)*%
X116078000Y-356616000D03*
%TD*%
D14*
%TO.N,Net-(A1-Pad1)*%
X119676002Y-314970000D02*
X121951001Y-312695001D01*
X116650000Y-314970000D02*
X119676002Y-314970000D01*
%TO.N,Net-(A1-Pad19)*%
X138316002Y-341760002D02*
X137191001Y-340635001D01*
X138316002Y-343223004D02*
X138316002Y-341760002D01*
X142748000Y-347655002D02*
X138316002Y-343223004D01*
X142748000Y-348234000D02*
X142748000Y-347655002D01*
%TO.N,Net-(A1-Pad29)*%
X110998000Y-356616000D02*
X110998000Y-350520000D01*
X110998000Y-347980000D02*
X110998000Y-350520000D01*
X112323001Y-351845001D02*
X115334999Y-351845001D01*
X115334999Y-351845001D02*
X116650000Y-350530000D01*
X110998000Y-350520000D02*
X112323001Y-351845001D01*
X110998000Y-312420000D02*
X110998000Y-314960000D01*
X110998000Y-317500000D02*
X110998000Y-314960000D01*
X110998000Y-317500000D02*
X110998000Y-320040000D01*
X110998000Y-320040000D02*
X110998000Y-322580000D01*
X110998000Y-322580000D02*
X110998000Y-325120000D01*
X110998000Y-347980000D02*
X110998000Y-345440000D01*
X110998000Y-345440000D02*
X110998000Y-342900000D01*
X110998000Y-342900000D02*
X110998000Y-340360000D01*
X110998000Y-340360000D02*
X110998000Y-337820000D01*
X110998000Y-337820000D02*
X110998000Y-335280000D01*
X110998000Y-335280000D02*
X110998000Y-332740000D01*
X110998000Y-332740000D02*
X110998000Y-330200000D01*
X110998000Y-330200000D02*
X110998000Y-327660000D01*
X110998000Y-327660000D02*
X110998000Y-325120000D01*
X132111001Y-320315001D02*
X137191001Y-315235001D01*
X121951001Y-320315001D02*
X132111001Y-320315001D01*
%TO.N,Net-(A1-Pad20)*%
X141422999Y-342326999D02*
X137191001Y-338095001D01*
X141422999Y-344368999D02*
X141422999Y-342326999D01*
X142748000Y-345694000D02*
X141422999Y-344368999D01*
%TO.N,Net-(A1-Pad5)*%
X116650000Y-317554000D02*
X116650000Y-317510000D01*
X121951001Y-322855001D02*
X116650000Y-317554000D01*
%TO.N,Net-(A1-Pad21)*%
X138316002Y-336680002D02*
X137191001Y-335555001D01*
X138316002Y-338143004D02*
X138316002Y-336680002D01*
X142748000Y-342575002D02*
X138316002Y-338143004D01*
X142748000Y-343154000D02*
X142748000Y-342575002D01*
%TO.N,Net-(A1-Pad6)*%
X116650000Y-320094000D02*
X116650000Y-320050000D01*
X121951001Y-325395001D02*
X116650000Y-320094000D01*
%TO.N,Net-(A1-Pad22)*%
X141422999Y-339288999D02*
X141422999Y-337246999D01*
X141422999Y-337246999D02*
X137191001Y-333015001D01*
X142748000Y-340614000D02*
X141422999Y-339288999D01*
%TO.N,Net-(A1-Pad7)*%
X116650000Y-322634000D02*
X116650000Y-322590000D01*
X121951001Y-327935001D02*
X116650000Y-322634000D01*
%TO.N,Net-(A1-Pad23)*%
X138316002Y-333063004D02*
X138316002Y-331600002D01*
X138316002Y-331600002D02*
X137191001Y-330475001D01*
X142748000Y-337495002D02*
X138316002Y-333063004D01*
X142748000Y-338074000D02*
X142748000Y-337495002D01*
%TO.N,Net-(A1-Pad8)*%
X116650000Y-325174000D02*
X116650000Y-325130000D01*
X121951001Y-330475001D02*
X116650000Y-325174000D01*
%TO.N,Net-(A1-Pad24)*%
X141422999Y-332166999D02*
X137191001Y-327935001D01*
X141422999Y-334208999D02*
X141422999Y-332166999D01*
X142748000Y-335534000D02*
X141422999Y-334208999D01*
%TO.N,Net-(A1-Pad9)*%
X116650000Y-327714000D02*
X116650000Y-327670000D01*
X121951001Y-333015001D02*
X116650000Y-327714000D01*
%TO.N,Net-(A1-Pad25)*%
X138316002Y-326520002D02*
X137191001Y-325395001D01*
X142748000Y-332415002D02*
X138316002Y-327983004D01*
X138316002Y-327983004D02*
X138316002Y-326520002D01*
X142748000Y-332994000D02*
X142748000Y-332415002D01*
%TO.N,Net-(A1-Pad10)*%
X116650000Y-330254000D02*
X116650000Y-330210000D01*
X121951001Y-335555001D02*
X116650000Y-330254000D01*
%TO.N,Net-(A1-Pad26)*%
X141422999Y-327086999D02*
X137191001Y-322855001D01*
X141422999Y-329128999D02*
X141422999Y-327086999D01*
X142748000Y-330454000D02*
X141422999Y-329128999D01*
%TO.N,Net-(A1-Pad11)*%
X116650000Y-332794000D02*
X116650000Y-332750000D01*
X121951001Y-338095001D02*
X116650000Y-332794000D01*
%TO.N,Net-(A1-Pad27)*%
X113792000Y-350520000D02*
X113792000Y-347980000D01*
X113792000Y-347980000D02*
X113792000Y-345440000D01*
X113792000Y-345440000D02*
X113792000Y-342900000D01*
X113792000Y-342900000D02*
X113792000Y-340360000D01*
X113792000Y-340360000D02*
X113792000Y-337820000D01*
X113792000Y-337820000D02*
X113792000Y-335280000D01*
X113792000Y-335280000D02*
X113792000Y-332740000D01*
X113792000Y-332740000D02*
X113792000Y-330200000D01*
X113792000Y-330200000D02*
X113792000Y-327660000D01*
X113792000Y-327660000D02*
X113792000Y-325120000D01*
X113792000Y-325120000D02*
X113792000Y-322580000D01*
X113792000Y-322580000D02*
X113792000Y-320040000D01*
X113792000Y-320040000D02*
X113792000Y-317500000D01*
X113792000Y-317500000D02*
X113792000Y-314960000D01*
X113792000Y-314960000D02*
X113792000Y-312420000D01*
X116640000Y-347980000D02*
X116650000Y-347990000D01*
X113792000Y-347980000D02*
X116640000Y-347980000D01*
X142748000Y-356108000D02*
X134620000Y-356108000D01*
X134620000Y-356108000D02*
X132842000Y-354330000D01*
X122990000Y-354330000D02*
X116650000Y-347990000D01*
X132842000Y-354330000D02*
X122990000Y-354330000D01*
X138316002Y-319190000D02*
X137191001Y-320315001D01*
X138316002Y-314565998D02*
X138316002Y-319190000D01*
X142748000Y-310134000D02*
X138316002Y-314565998D01*
%TO.N,Net-(A1-Pad12)*%
X116650000Y-335334000D02*
X116650000Y-335290000D01*
X121951001Y-340635001D02*
X116650000Y-335334000D01*
%TO.N,Net-(A1-Pad13)*%
X116650000Y-337874000D02*
X116650000Y-337830000D01*
X121951001Y-343175001D02*
X116650000Y-337874000D01*
%TO.N,Net-(A1-Pad14)*%
X116650000Y-340414000D02*
X116650000Y-340370000D01*
X121951001Y-345715001D02*
X116650000Y-340414000D01*
%TO.N,Net-(A1-Pad15)*%
X116650000Y-342954000D02*
X116650000Y-342910000D01*
X121951001Y-348255001D02*
X116650000Y-342954000D01*
%TO.N,Net-(S1-Pad1)*%
X116078000Y-356616000D02*
X131064000Y-356616000D01*
X133096000Y-358648000D02*
X142748000Y-358648000D01*
X131064000Y-356616000D02*
X133096000Y-358648000D01*
%TD*%
M02*
