%TF.GenerationSoftware,KiCad,Pcbnew,9.0.6*%
%TF.CreationDate,2025-12-02T10:32:04+01:00*%
%TF.ProjectId,NANO_Shield,4e414e4f-5f53-4686-9965-6c642e6b6963,rev?*%
%TF.SameCoordinates,Original*%
%TF.FileFunction,Legend,Top*%
%TF.FilePolarity,Positive*%
%FSLAX46Y46*%
G04 Gerber Fmt 4.6, Leading zero omitted, Abs format (unit mm)*
G04 Created by KiCad (PCBNEW 9.0.6) date 2025-12-02 10:32:04*
%MOMM*%
%LPD*%
G01*
G04 APERTURE LIST*
%ADD10C,0.150000*%
%ADD11C,0.120000*%
G04 APERTURE END LIST*
D10*
X124762095Y-362404819D02*
X124762095Y-361404819D01*
X124762095Y-361404819D02*
X125333523Y-362404819D01*
X125333523Y-362404819D02*
X125333523Y-361404819D01*
X125762095Y-362119104D02*
X126238285Y-362119104D01*
X125666857Y-362404819D02*
X126000190Y-361404819D01*
X126000190Y-361404819D02*
X126333523Y-362404819D01*
X126666857Y-362404819D02*
X126666857Y-361404819D01*
X126666857Y-361404819D02*
X127238285Y-362404819D01*
X127238285Y-362404819D02*
X127238285Y-361404819D01*
X127904952Y-361404819D02*
X128095428Y-361404819D01*
X128095428Y-361404819D02*
X128190666Y-361452438D01*
X128190666Y-361452438D02*
X128285904Y-361547676D01*
X128285904Y-361547676D02*
X128333523Y-361738152D01*
X128333523Y-361738152D02*
X128333523Y-362071485D01*
X128333523Y-362071485D02*
X128285904Y-362261961D01*
X128285904Y-362261961D02*
X128190666Y-362357200D01*
X128190666Y-362357200D02*
X128095428Y-362404819D01*
X128095428Y-362404819D02*
X127904952Y-362404819D01*
X127904952Y-362404819D02*
X127809714Y-362357200D01*
X127809714Y-362357200D02*
X127714476Y-362261961D01*
X127714476Y-362261961D02*
X127666857Y-362071485D01*
X127666857Y-362071485D02*
X127666857Y-361738152D01*
X127666857Y-361738152D02*
X127714476Y-361547676D01*
X127714476Y-361547676D02*
X127809714Y-361452438D01*
X127809714Y-361452438D02*
X127904952Y-361404819D01*
X129381143Y-361404819D02*
X129714476Y-362404819D01*
X129714476Y-362404819D02*
X130047809Y-361404819D01*
X130285905Y-361404819D02*
X130904952Y-361404819D01*
X130904952Y-361404819D02*
X130571619Y-361785771D01*
X130571619Y-361785771D02*
X130714476Y-361785771D01*
X130714476Y-361785771D02*
X130809714Y-361833390D01*
X130809714Y-361833390D02*
X130857333Y-361881009D01*
X130857333Y-361881009D02*
X130904952Y-361976247D01*
X130904952Y-361976247D02*
X130904952Y-362214342D01*
X130904952Y-362214342D02*
X130857333Y-362309580D01*
X130857333Y-362309580D02*
X130809714Y-362357200D01*
X130809714Y-362357200D02*
X130714476Y-362404819D01*
X130714476Y-362404819D02*
X130428762Y-362404819D01*
X130428762Y-362404819D02*
X130333524Y-362357200D01*
X130333524Y-362357200D02*
X130285905Y-362309580D01*
X131333524Y-362309580D02*
X131381143Y-362357200D01*
X131381143Y-362357200D02*
X131333524Y-362404819D01*
X131333524Y-362404819D02*
X131285905Y-362357200D01*
X131285905Y-362357200D02*
X131333524Y-362309580D01*
X131333524Y-362309580D02*
X131333524Y-362404819D01*
X132333523Y-362404819D02*
X131762095Y-362404819D01*
X132047809Y-362404819D02*
X132047809Y-361404819D01*
X132047809Y-361404819D02*
X131952571Y-361547676D01*
X131952571Y-361547676D02*
X131857333Y-361642914D01*
X131857333Y-361642914D02*
X131762095Y-361690533D01*
X145534095Y-354022819D02*
X146057904Y-353356152D01*
X145534095Y-353356152D02*
X146057904Y-354022819D01*
X145557905Y-356277104D02*
X146034095Y-356277104D01*
X145462667Y-356562819D02*
X145796000Y-355562819D01*
X145796000Y-355562819D02*
X146129333Y-356562819D01*
X145581714Y-358579009D02*
X145915047Y-358579009D01*
X146057904Y-359102819D02*
X145581714Y-359102819D01*
X145581714Y-359102819D02*
X145581714Y-358102819D01*
X145581714Y-358102819D02*
X146057904Y-358102819D01*
X140200095Y-323288819D02*
X140723904Y-322622152D01*
X140200095Y-322622152D02*
X140723904Y-323288819D01*
X140200095Y-320748819D02*
X140723904Y-320082152D01*
X140200095Y-320082152D02*
X140723904Y-320748819D01*
X140200095Y-318208819D02*
X140723904Y-317542152D01*
X140200095Y-317542152D02*
X140723904Y-318208819D01*
X139184191Y-314668819D02*
X139517524Y-315668819D01*
X139517524Y-315668819D02*
X139850857Y-314668819D01*
X140184191Y-315668819D02*
X140184191Y-315002152D01*
X140184191Y-314668819D02*
X140136572Y-314716438D01*
X140136572Y-314716438D02*
X140184191Y-314764057D01*
X140184191Y-314764057D02*
X140231810Y-314716438D01*
X140231810Y-314716438D02*
X140184191Y-314668819D01*
X140184191Y-314668819D02*
X140184191Y-314764057D01*
X140660381Y-315002152D02*
X140660381Y-315668819D01*
X140660381Y-315097390D02*
X140708000Y-315049771D01*
X140708000Y-315049771D02*
X140803238Y-315002152D01*
X140803238Y-315002152D02*
X140946095Y-315002152D01*
X140946095Y-315002152D02*
X141041333Y-315049771D01*
X141041333Y-315049771D02*
X141088952Y-315145009D01*
X141088952Y-315145009D02*
X141088952Y-315668819D01*
X138731810Y-312128819D02*
X139350857Y-312128819D01*
X139350857Y-312128819D02*
X139017524Y-312509771D01*
X139017524Y-312509771D02*
X139160381Y-312509771D01*
X139160381Y-312509771D02*
X139255619Y-312557390D01*
X139255619Y-312557390D02*
X139303238Y-312605009D01*
X139303238Y-312605009D02*
X139350857Y-312700247D01*
X139350857Y-312700247D02*
X139350857Y-312938342D01*
X139350857Y-312938342D02*
X139303238Y-313033580D01*
X139303238Y-313033580D02*
X139255619Y-313081200D01*
X139255619Y-313081200D02*
X139160381Y-313128819D01*
X139160381Y-313128819D02*
X138874667Y-313128819D01*
X138874667Y-313128819D02*
X138779429Y-313081200D01*
X138779429Y-313081200D02*
X138731810Y-313033580D01*
X139827048Y-313081200D02*
X139827048Y-313128819D01*
X139827048Y-313128819D02*
X139779429Y-313224057D01*
X139779429Y-313224057D02*
X139731810Y-313271676D01*
X140160381Y-312128819D02*
X140779428Y-312128819D01*
X140779428Y-312128819D02*
X140446095Y-312509771D01*
X140446095Y-312509771D02*
X140588952Y-312509771D01*
X140588952Y-312509771D02*
X140684190Y-312557390D01*
X140684190Y-312557390D02*
X140731809Y-312605009D01*
X140731809Y-312605009D02*
X140779428Y-312700247D01*
X140779428Y-312700247D02*
X140779428Y-312938342D01*
X140779428Y-312938342D02*
X140731809Y-313033580D01*
X140731809Y-313033580D02*
X140684190Y-313081200D01*
X140684190Y-313081200D02*
X140588952Y-313128819D01*
X140588952Y-313128819D02*
X140303238Y-313128819D01*
X140303238Y-313128819D02*
X140208000Y-313081200D01*
X140208000Y-313081200D02*
X140160381Y-313033580D01*
X141065143Y-312128819D02*
X141398476Y-313128819D01*
X141398476Y-313128819D02*
X141731809Y-312128819D01*
X138668286Y-310207866D02*
X139430191Y-310207866D01*
X139049238Y-310588819D02*
X139049238Y-309826914D01*
X140382571Y-309588819D02*
X139906381Y-309588819D01*
X139906381Y-309588819D02*
X139858762Y-310065009D01*
X139858762Y-310065009D02*
X139906381Y-310017390D01*
X139906381Y-310017390D02*
X140001619Y-309969771D01*
X140001619Y-309969771D02*
X140239714Y-309969771D01*
X140239714Y-309969771D02*
X140334952Y-310017390D01*
X140334952Y-310017390D02*
X140382571Y-310065009D01*
X140382571Y-310065009D02*
X140430190Y-310160247D01*
X140430190Y-310160247D02*
X140430190Y-310398342D01*
X140430190Y-310398342D02*
X140382571Y-310493580D01*
X140382571Y-310493580D02*
X140334952Y-310541200D01*
X140334952Y-310541200D02*
X140239714Y-310588819D01*
X140239714Y-310588819D02*
X140001619Y-310588819D01*
X140001619Y-310588819D02*
X139906381Y-310541200D01*
X139906381Y-310541200D02*
X139858762Y-310493580D01*
X140715905Y-309588819D02*
X141049238Y-310588819D01*
X141049238Y-310588819D02*
X141382571Y-309588819D01*
X139684190Y-325574819D02*
X139350857Y-325098628D01*
X139112762Y-325574819D02*
X139112762Y-324574819D01*
X139112762Y-324574819D02*
X139493714Y-324574819D01*
X139493714Y-324574819D02*
X139588952Y-324622438D01*
X139588952Y-324622438D02*
X139636571Y-324670057D01*
X139636571Y-324670057D02*
X139684190Y-324765295D01*
X139684190Y-324765295D02*
X139684190Y-324908152D01*
X139684190Y-324908152D02*
X139636571Y-325003390D01*
X139636571Y-325003390D02*
X139588952Y-325051009D01*
X139588952Y-325051009D02*
X139493714Y-325098628D01*
X139493714Y-325098628D02*
X139112762Y-325098628D01*
X140493714Y-325527200D02*
X140398476Y-325574819D01*
X140398476Y-325574819D02*
X140208000Y-325574819D01*
X140208000Y-325574819D02*
X140112762Y-325527200D01*
X140112762Y-325527200D02*
X140065143Y-325431961D01*
X140065143Y-325431961D02*
X140065143Y-325051009D01*
X140065143Y-325051009D02*
X140112762Y-324955771D01*
X140112762Y-324955771D02*
X140208000Y-324908152D01*
X140208000Y-324908152D02*
X140398476Y-324908152D01*
X140398476Y-324908152D02*
X140493714Y-324955771D01*
X140493714Y-324955771D02*
X140541333Y-325051009D01*
X140541333Y-325051009D02*
X140541333Y-325146247D01*
X140541333Y-325146247D02*
X140065143Y-325241485D01*
X140922286Y-325527200D02*
X141017524Y-325574819D01*
X141017524Y-325574819D02*
X141208000Y-325574819D01*
X141208000Y-325574819D02*
X141303238Y-325527200D01*
X141303238Y-325527200D02*
X141350857Y-325431961D01*
X141350857Y-325431961D02*
X141350857Y-325384342D01*
X141350857Y-325384342D02*
X141303238Y-325289104D01*
X141303238Y-325289104D02*
X141208000Y-325241485D01*
X141208000Y-325241485D02*
X141065143Y-325241485D01*
X141065143Y-325241485D02*
X140969905Y-325193866D01*
X140969905Y-325193866D02*
X140922286Y-325098628D01*
X140922286Y-325098628D02*
X140922286Y-325051009D01*
X140922286Y-325051009D02*
X140969905Y-324955771D01*
X140969905Y-324955771D02*
X141065143Y-324908152D01*
X141065143Y-324908152D02*
X141208000Y-324908152D01*
X141208000Y-324908152D02*
X141303238Y-324955771D01*
X138692095Y-328083104D02*
X139168285Y-328083104D01*
X138596857Y-328368819D02*
X138930190Y-327368819D01*
X138930190Y-327368819D02*
X139263523Y-328368819D01*
X139596857Y-328368819D02*
X139596857Y-327702152D01*
X139596857Y-327892628D02*
X139644476Y-327797390D01*
X139644476Y-327797390D02*
X139692095Y-327749771D01*
X139692095Y-327749771D02*
X139787333Y-327702152D01*
X139787333Y-327702152D02*
X139882571Y-327702152D01*
X140596857Y-328321200D02*
X140501619Y-328368819D01*
X140501619Y-328368819D02*
X140311143Y-328368819D01*
X140311143Y-328368819D02*
X140215905Y-328321200D01*
X140215905Y-328321200D02*
X140168286Y-328225961D01*
X140168286Y-328225961D02*
X140168286Y-327845009D01*
X140168286Y-327845009D02*
X140215905Y-327749771D01*
X140215905Y-327749771D02*
X140311143Y-327702152D01*
X140311143Y-327702152D02*
X140501619Y-327702152D01*
X140501619Y-327702152D02*
X140596857Y-327749771D01*
X140596857Y-327749771D02*
X140644476Y-327845009D01*
X140644476Y-327845009D02*
X140644476Y-327940247D01*
X140644476Y-327940247D02*
X140168286Y-328035485D01*
X140930191Y-327702152D02*
X141311143Y-327702152D01*
X141073048Y-328368819D02*
X141073048Y-327511676D01*
X141073048Y-327511676D02*
X141120667Y-327416438D01*
X141120667Y-327416438D02*
X141215905Y-327368819D01*
X141215905Y-327368819D02*
X141311143Y-327368819D01*
X140128667Y-329908819D02*
X140795333Y-329908819D01*
X140795333Y-329908819D02*
X140366762Y-330908819D01*
X140652476Y-332702819D02*
X140462000Y-332702819D01*
X140462000Y-332702819D02*
X140366762Y-332750438D01*
X140366762Y-332750438D02*
X140319143Y-332798057D01*
X140319143Y-332798057D02*
X140223905Y-332940914D01*
X140223905Y-332940914D02*
X140176286Y-333131390D01*
X140176286Y-333131390D02*
X140176286Y-333512342D01*
X140176286Y-333512342D02*
X140223905Y-333607580D01*
X140223905Y-333607580D02*
X140271524Y-333655200D01*
X140271524Y-333655200D02*
X140366762Y-333702819D01*
X140366762Y-333702819D02*
X140557238Y-333702819D01*
X140557238Y-333702819D02*
X140652476Y-333655200D01*
X140652476Y-333655200D02*
X140700095Y-333607580D01*
X140700095Y-333607580D02*
X140747714Y-333512342D01*
X140747714Y-333512342D02*
X140747714Y-333274247D01*
X140747714Y-333274247D02*
X140700095Y-333179009D01*
X140700095Y-333179009D02*
X140652476Y-333131390D01*
X140652476Y-333131390D02*
X140557238Y-333083771D01*
X140557238Y-333083771D02*
X140366762Y-333083771D01*
X140366762Y-333083771D02*
X140271524Y-333131390D01*
X140271524Y-333131390D02*
X140223905Y-333179009D01*
X140223905Y-333179009D02*
X140176286Y-333274247D01*
X140700095Y-334988819D02*
X140223905Y-334988819D01*
X140223905Y-334988819D02*
X140176286Y-335465009D01*
X140176286Y-335465009D02*
X140223905Y-335417390D01*
X140223905Y-335417390D02*
X140319143Y-335369771D01*
X140319143Y-335369771D02*
X140557238Y-335369771D01*
X140557238Y-335369771D02*
X140652476Y-335417390D01*
X140652476Y-335417390D02*
X140700095Y-335465009D01*
X140700095Y-335465009D02*
X140747714Y-335560247D01*
X140747714Y-335560247D02*
X140747714Y-335798342D01*
X140747714Y-335798342D02*
X140700095Y-335893580D01*
X140700095Y-335893580D02*
X140652476Y-335941200D01*
X140652476Y-335941200D02*
X140557238Y-335988819D01*
X140557238Y-335988819D02*
X140319143Y-335988819D01*
X140319143Y-335988819D02*
X140223905Y-335941200D01*
X140223905Y-335941200D02*
X140176286Y-335893580D01*
X140652476Y-337862152D02*
X140652476Y-338528819D01*
X140414381Y-337481200D02*
X140176286Y-338195485D01*
X140176286Y-338195485D02*
X140795333Y-338195485D01*
X140128667Y-340068819D02*
X140747714Y-340068819D01*
X140747714Y-340068819D02*
X140414381Y-340449771D01*
X140414381Y-340449771D02*
X140557238Y-340449771D01*
X140557238Y-340449771D02*
X140652476Y-340497390D01*
X140652476Y-340497390D02*
X140700095Y-340545009D01*
X140700095Y-340545009D02*
X140747714Y-340640247D01*
X140747714Y-340640247D02*
X140747714Y-340878342D01*
X140747714Y-340878342D02*
X140700095Y-340973580D01*
X140700095Y-340973580D02*
X140652476Y-341021200D01*
X140652476Y-341021200D02*
X140557238Y-341068819D01*
X140557238Y-341068819D02*
X140271524Y-341068819D01*
X140271524Y-341068819D02*
X140176286Y-341021200D01*
X140176286Y-341021200D02*
X140128667Y-340973580D01*
X140176286Y-342704057D02*
X140223905Y-342656438D01*
X140223905Y-342656438D02*
X140319143Y-342608819D01*
X140319143Y-342608819D02*
X140557238Y-342608819D01*
X140557238Y-342608819D02*
X140652476Y-342656438D01*
X140652476Y-342656438D02*
X140700095Y-342704057D01*
X140700095Y-342704057D02*
X140747714Y-342799295D01*
X140747714Y-342799295D02*
X140747714Y-342894533D01*
X140747714Y-342894533D02*
X140700095Y-343037390D01*
X140700095Y-343037390D02*
X140128667Y-343608819D01*
X140128667Y-343608819D02*
X140747714Y-343608819D01*
X140747714Y-346148819D02*
X140176286Y-346148819D01*
X140462000Y-346148819D02*
X140462000Y-345148819D01*
X140462000Y-345148819D02*
X140366762Y-345291676D01*
X140366762Y-345291676D02*
X140271524Y-345386914D01*
X140271524Y-345386914D02*
X140176286Y-345434533D01*
X140414381Y-347688819D02*
X140509619Y-347688819D01*
X140509619Y-347688819D02*
X140604857Y-347736438D01*
X140604857Y-347736438D02*
X140652476Y-347784057D01*
X140652476Y-347784057D02*
X140700095Y-347879295D01*
X140700095Y-347879295D02*
X140747714Y-348069771D01*
X140747714Y-348069771D02*
X140747714Y-348307866D01*
X140747714Y-348307866D02*
X140700095Y-348498342D01*
X140700095Y-348498342D02*
X140652476Y-348593580D01*
X140652476Y-348593580D02*
X140604857Y-348641200D01*
X140604857Y-348641200D02*
X140509619Y-348688819D01*
X140509619Y-348688819D02*
X140414381Y-348688819D01*
X140414381Y-348688819D02*
X140319143Y-348641200D01*
X140319143Y-348641200D02*
X140271524Y-348593580D01*
X140271524Y-348593580D02*
X140223905Y-348498342D01*
X140223905Y-348498342D02*
X140176286Y-348307866D01*
X140176286Y-348307866D02*
X140176286Y-348069771D01*
X140176286Y-348069771D02*
X140223905Y-347879295D01*
X140223905Y-347879295D02*
X140271524Y-347784057D01*
X140271524Y-347784057D02*
X140319143Y-347736438D01*
X140319143Y-347736438D02*
X140414381Y-347688819D01*
X140223905Y-350435104D02*
X140700095Y-350435104D01*
X140128667Y-350720819D02*
X140462000Y-349720819D01*
X140462000Y-349720819D02*
X140795333Y-350720819D01*
X118618095Y-350022438D02*
X118522857Y-349974819D01*
X118522857Y-349974819D02*
X118380000Y-349974819D01*
X118380000Y-349974819D02*
X118237143Y-350022438D01*
X118237143Y-350022438D02*
X118141905Y-350117676D01*
X118141905Y-350117676D02*
X118094286Y-350212914D01*
X118094286Y-350212914D02*
X118046667Y-350403390D01*
X118046667Y-350403390D02*
X118046667Y-350546247D01*
X118046667Y-350546247D02*
X118094286Y-350736723D01*
X118094286Y-350736723D02*
X118141905Y-350831961D01*
X118141905Y-350831961D02*
X118237143Y-350927200D01*
X118237143Y-350927200D02*
X118380000Y-350974819D01*
X118380000Y-350974819D02*
X118475238Y-350974819D01*
X118475238Y-350974819D02*
X118618095Y-350927200D01*
X118618095Y-350927200D02*
X118665714Y-350879580D01*
X118665714Y-350879580D02*
X118665714Y-350546247D01*
X118665714Y-350546247D02*
X118475238Y-350546247D01*
X119094286Y-350974819D02*
X119094286Y-349974819D01*
X119094286Y-349974819D02*
X119665714Y-350974819D01*
X119665714Y-350974819D02*
X119665714Y-349974819D01*
X120141905Y-350974819D02*
X120141905Y-349974819D01*
X120141905Y-349974819D02*
X120380000Y-349974819D01*
X120380000Y-349974819D02*
X120522857Y-350022438D01*
X120522857Y-350022438D02*
X120618095Y-350117676D01*
X120618095Y-350117676D02*
X120665714Y-350212914D01*
X120665714Y-350212914D02*
X120713333Y-350403390D01*
X120713333Y-350403390D02*
X120713333Y-350546247D01*
X120713333Y-350546247D02*
X120665714Y-350736723D01*
X120665714Y-350736723D02*
X120618095Y-350831961D01*
X120618095Y-350831961D02*
X120522857Y-350927200D01*
X120522857Y-350927200D02*
X120380000Y-350974819D01*
X120380000Y-350974819D02*
X120141905Y-350974819D01*
X117840286Y-348053866D02*
X118602191Y-348053866D01*
X118221238Y-348434819D02*
X118221238Y-347672914D01*
X119554571Y-347434819D02*
X119078381Y-347434819D01*
X119078381Y-347434819D02*
X119030762Y-347911009D01*
X119030762Y-347911009D02*
X119078381Y-347863390D01*
X119078381Y-347863390D02*
X119173619Y-347815771D01*
X119173619Y-347815771D02*
X119411714Y-347815771D01*
X119411714Y-347815771D02*
X119506952Y-347863390D01*
X119506952Y-347863390D02*
X119554571Y-347911009D01*
X119554571Y-347911009D02*
X119602190Y-348006247D01*
X119602190Y-348006247D02*
X119602190Y-348244342D01*
X119602190Y-348244342D02*
X119554571Y-348339580D01*
X119554571Y-348339580D02*
X119506952Y-348387200D01*
X119506952Y-348387200D02*
X119411714Y-348434819D01*
X119411714Y-348434819D02*
X119173619Y-348434819D01*
X119173619Y-348434819D02*
X119078381Y-348387200D01*
X119078381Y-348387200D02*
X119030762Y-348339580D01*
X119887905Y-347434819D02*
X120221238Y-348434819D01*
X120221238Y-348434819D02*
X120554571Y-347434819D01*
X118935523Y-345894819D02*
X118364095Y-345894819D01*
X118649809Y-345894819D02*
X118649809Y-344894819D01*
X118649809Y-344894819D02*
X118554571Y-345037676D01*
X118554571Y-345037676D02*
X118459333Y-345132914D01*
X118459333Y-345132914D02*
X118364095Y-345180533D01*
X119268857Y-344894819D02*
X119887904Y-344894819D01*
X119887904Y-344894819D02*
X119554571Y-345275771D01*
X119554571Y-345275771D02*
X119697428Y-345275771D01*
X119697428Y-345275771D02*
X119792666Y-345323390D01*
X119792666Y-345323390D02*
X119840285Y-345371009D01*
X119840285Y-345371009D02*
X119887904Y-345466247D01*
X119887904Y-345466247D02*
X119887904Y-345704342D01*
X119887904Y-345704342D02*
X119840285Y-345799580D01*
X119840285Y-345799580D02*
X119792666Y-345847200D01*
X119792666Y-345847200D02*
X119697428Y-345894819D01*
X119697428Y-345894819D02*
X119411714Y-345894819D01*
X119411714Y-345894819D02*
X119316476Y-345847200D01*
X119316476Y-345847200D02*
X119268857Y-345799580D01*
X118935523Y-343354819D02*
X118364095Y-343354819D01*
X118649809Y-343354819D02*
X118649809Y-342354819D01*
X118649809Y-342354819D02*
X118554571Y-342497676D01*
X118554571Y-342497676D02*
X118459333Y-342592914D01*
X118459333Y-342592914D02*
X118364095Y-342640533D01*
X119316476Y-342450057D02*
X119364095Y-342402438D01*
X119364095Y-342402438D02*
X119459333Y-342354819D01*
X119459333Y-342354819D02*
X119697428Y-342354819D01*
X119697428Y-342354819D02*
X119792666Y-342402438D01*
X119792666Y-342402438D02*
X119840285Y-342450057D01*
X119840285Y-342450057D02*
X119887904Y-342545295D01*
X119887904Y-342545295D02*
X119887904Y-342640533D01*
X119887904Y-342640533D02*
X119840285Y-342783390D01*
X119840285Y-342783390D02*
X119268857Y-343354819D01*
X119268857Y-343354819D02*
X119887904Y-343354819D01*
X118935523Y-340814819D02*
X118364095Y-340814819D01*
X118649809Y-340814819D02*
X118649809Y-339814819D01*
X118649809Y-339814819D02*
X118554571Y-339957676D01*
X118554571Y-339957676D02*
X118459333Y-340052914D01*
X118459333Y-340052914D02*
X118364095Y-340100533D01*
X119887904Y-340814819D02*
X119316476Y-340814819D01*
X119602190Y-340814819D02*
X119602190Y-339814819D01*
X119602190Y-339814819D02*
X119506952Y-339957676D01*
X119506952Y-339957676D02*
X119411714Y-340052914D01*
X119411714Y-340052914D02*
X119316476Y-340100533D01*
X118935523Y-338274819D02*
X118364095Y-338274819D01*
X118649809Y-338274819D02*
X118649809Y-337274819D01*
X118649809Y-337274819D02*
X118554571Y-337417676D01*
X118554571Y-337417676D02*
X118459333Y-337512914D01*
X118459333Y-337512914D02*
X118364095Y-337560533D01*
X119554571Y-337274819D02*
X119649809Y-337274819D01*
X119649809Y-337274819D02*
X119745047Y-337322438D01*
X119745047Y-337322438D02*
X119792666Y-337370057D01*
X119792666Y-337370057D02*
X119840285Y-337465295D01*
X119840285Y-337465295D02*
X119887904Y-337655771D01*
X119887904Y-337655771D02*
X119887904Y-337893866D01*
X119887904Y-337893866D02*
X119840285Y-338084342D01*
X119840285Y-338084342D02*
X119792666Y-338179580D01*
X119792666Y-338179580D02*
X119745047Y-338227200D01*
X119745047Y-338227200D02*
X119649809Y-338274819D01*
X119649809Y-338274819D02*
X119554571Y-338274819D01*
X119554571Y-338274819D02*
X119459333Y-338227200D01*
X119459333Y-338227200D02*
X119411714Y-338179580D01*
X119411714Y-338179580D02*
X119364095Y-338084342D01*
X119364095Y-338084342D02*
X119316476Y-337893866D01*
X119316476Y-337893866D02*
X119316476Y-337655771D01*
X119316476Y-337655771D02*
X119364095Y-337465295D01*
X119364095Y-337465295D02*
X119411714Y-337370057D01*
X119411714Y-337370057D02*
X119459333Y-337322438D01*
X119459333Y-337322438D02*
X119554571Y-337274819D01*
X118681524Y-335734819D02*
X118872000Y-335734819D01*
X118872000Y-335734819D02*
X118967238Y-335687200D01*
X118967238Y-335687200D02*
X119014857Y-335639580D01*
X119014857Y-335639580D02*
X119110095Y-335496723D01*
X119110095Y-335496723D02*
X119157714Y-335306247D01*
X119157714Y-335306247D02*
X119157714Y-334925295D01*
X119157714Y-334925295D02*
X119110095Y-334830057D01*
X119110095Y-334830057D02*
X119062476Y-334782438D01*
X119062476Y-334782438D02*
X118967238Y-334734819D01*
X118967238Y-334734819D02*
X118776762Y-334734819D01*
X118776762Y-334734819D02*
X118681524Y-334782438D01*
X118681524Y-334782438D02*
X118633905Y-334830057D01*
X118633905Y-334830057D02*
X118586286Y-334925295D01*
X118586286Y-334925295D02*
X118586286Y-335163390D01*
X118586286Y-335163390D02*
X118633905Y-335258628D01*
X118633905Y-335258628D02*
X118681524Y-335306247D01*
X118681524Y-335306247D02*
X118776762Y-335353866D01*
X118776762Y-335353866D02*
X118967238Y-335353866D01*
X118967238Y-335353866D02*
X119062476Y-335306247D01*
X119062476Y-335306247D02*
X119110095Y-335258628D01*
X119110095Y-335258628D02*
X119157714Y-335163390D01*
X118776762Y-332369390D02*
X118681524Y-332321771D01*
X118681524Y-332321771D02*
X118633905Y-332274152D01*
X118633905Y-332274152D02*
X118586286Y-332178914D01*
X118586286Y-332178914D02*
X118586286Y-332131295D01*
X118586286Y-332131295D02*
X118633905Y-332036057D01*
X118633905Y-332036057D02*
X118681524Y-331988438D01*
X118681524Y-331988438D02*
X118776762Y-331940819D01*
X118776762Y-331940819D02*
X118967238Y-331940819D01*
X118967238Y-331940819D02*
X119062476Y-331988438D01*
X119062476Y-331988438D02*
X119110095Y-332036057D01*
X119110095Y-332036057D02*
X119157714Y-332131295D01*
X119157714Y-332131295D02*
X119157714Y-332178914D01*
X119157714Y-332178914D02*
X119110095Y-332274152D01*
X119110095Y-332274152D02*
X119062476Y-332321771D01*
X119062476Y-332321771D02*
X118967238Y-332369390D01*
X118967238Y-332369390D02*
X118776762Y-332369390D01*
X118776762Y-332369390D02*
X118681524Y-332417009D01*
X118681524Y-332417009D02*
X118633905Y-332464628D01*
X118633905Y-332464628D02*
X118586286Y-332559866D01*
X118586286Y-332559866D02*
X118586286Y-332750342D01*
X118586286Y-332750342D02*
X118633905Y-332845580D01*
X118633905Y-332845580D02*
X118681524Y-332893200D01*
X118681524Y-332893200D02*
X118776762Y-332940819D01*
X118776762Y-332940819D02*
X118967238Y-332940819D01*
X118967238Y-332940819D02*
X119062476Y-332893200D01*
X119062476Y-332893200D02*
X119110095Y-332845580D01*
X119110095Y-332845580D02*
X119157714Y-332750342D01*
X119157714Y-332750342D02*
X119157714Y-332559866D01*
X119157714Y-332559866D02*
X119110095Y-332464628D01*
X119110095Y-332464628D02*
X119062476Y-332417009D01*
X119062476Y-332417009D02*
X118967238Y-332369390D01*
X118538667Y-329654819D02*
X119205333Y-329654819D01*
X119205333Y-329654819D02*
X118776762Y-330654819D01*
X119062476Y-327114819D02*
X118872000Y-327114819D01*
X118872000Y-327114819D02*
X118776762Y-327162438D01*
X118776762Y-327162438D02*
X118729143Y-327210057D01*
X118729143Y-327210057D02*
X118633905Y-327352914D01*
X118633905Y-327352914D02*
X118586286Y-327543390D01*
X118586286Y-327543390D02*
X118586286Y-327924342D01*
X118586286Y-327924342D02*
X118633905Y-328019580D01*
X118633905Y-328019580D02*
X118681524Y-328067200D01*
X118681524Y-328067200D02*
X118776762Y-328114819D01*
X118776762Y-328114819D02*
X118967238Y-328114819D01*
X118967238Y-328114819D02*
X119062476Y-328067200D01*
X119062476Y-328067200D02*
X119110095Y-328019580D01*
X119110095Y-328019580D02*
X119157714Y-327924342D01*
X119157714Y-327924342D02*
X119157714Y-327686247D01*
X119157714Y-327686247D02*
X119110095Y-327591009D01*
X119110095Y-327591009D02*
X119062476Y-327543390D01*
X119062476Y-327543390D02*
X118967238Y-327495771D01*
X118967238Y-327495771D02*
X118776762Y-327495771D01*
X118776762Y-327495771D02*
X118681524Y-327543390D01*
X118681524Y-327543390D02*
X118633905Y-327591009D01*
X118633905Y-327591009D02*
X118586286Y-327686247D01*
X119110095Y-324574819D02*
X118633905Y-324574819D01*
X118633905Y-324574819D02*
X118586286Y-325051009D01*
X118586286Y-325051009D02*
X118633905Y-325003390D01*
X118633905Y-325003390D02*
X118729143Y-324955771D01*
X118729143Y-324955771D02*
X118967238Y-324955771D01*
X118967238Y-324955771D02*
X119062476Y-325003390D01*
X119062476Y-325003390D02*
X119110095Y-325051009D01*
X119110095Y-325051009D02*
X119157714Y-325146247D01*
X119157714Y-325146247D02*
X119157714Y-325384342D01*
X119157714Y-325384342D02*
X119110095Y-325479580D01*
X119110095Y-325479580D02*
X119062476Y-325527200D01*
X119062476Y-325527200D02*
X118967238Y-325574819D01*
X118967238Y-325574819D02*
X118729143Y-325574819D01*
X118729143Y-325574819D02*
X118633905Y-325527200D01*
X118633905Y-325527200D02*
X118586286Y-325479580D01*
X119062476Y-322368152D02*
X119062476Y-323034819D01*
X118824381Y-321987200D02*
X118586286Y-322701485D01*
X118586286Y-322701485D02*
X119205333Y-322701485D01*
X118610095Y-310334819D02*
X118610095Y-309334819D01*
X118610095Y-309334819D02*
X118848190Y-309334819D01*
X118848190Y-309334819D02*
X118991047Y-309382438D01*
X118991047Y-309382438D02*
X119086285Y-309477676D01*
X119086285Y-309477676D02*
X119133904Y-309572914D01*
X119133904Y-309572914D02*
X119181523Y-309763390D01*
X119181523Y-309763390D02*
X119181523Y-309906247D01*
X119181523Y-309906247D02*
X119133904Y-310096723D01*
X119133904Y-310096723D02*
X119086285Y-310191961D01*
X119086285Y-310191961D02*
X118991047Y-310287200D01*
X118991047Y-310287200D02*
X118848190Y-310334819D01*
X118848190Y-310334819D02*
X118610095Y-310334819D01*
X118538667Y-319494819D02*
X119157714Y-319494819D01*
X119157714Y-319494819D02*
X118824381Y-319875771D01*
X118824381Y-319875771D02*
X118967238Y-319875771D01*
X118967238Y-319875771D02*
X119062476Y-319923390D01*
X119062476Y-319923390D02*
X119110095Y-319971009D01*
X119110095Y-319971009D02*
X119157714Y-320066247D01*
X119157714Y-320066247D02*
X119157714Y-320304342D01*
X119157714Y-320304342D02*
X119110095Y-320399580D01*
X119110095Y-320399580D02*
X119062476Y-320447200D01*
X119062476Y-320447200D02*
X118967238Y-320494819D01*
X118967238Y-320494819D02*
X118681524Y-320494819D01*
X118681524Y-320494819D02*
X118586286Y-320447200D01*
X118586286Y-320447200D02*
X118538667Y-320399580D01*
X118586286Y-317050057D02*
X118633905Y-317002438D01*
X118633905Y-317002438D02*
X118729143Y-316954819D01*
X118729143Y-316954819D02*
X118967238Y-316954819D01*
X118967238Y-316954819D02*
X119062476Y-317002438D01*
X119062476Y-317002438D02*
X119110095Y-317050057D01*
X119110095Y-317050057D02*
X119157714Y-317145295D01*
X119157714Y-317145295D02*
X119157714Y-317240533D01*
X119157714Y-317240533D02*
X119110095Y-317383390D01*
X119110095Y-317383390D02*
X118538667Y-317954819D01*
X118538667Y-317954819D02*
X119157714Y-317954819D01*
X119157714Y-315414819D02*
X118586286Y-315414819D01*
X118872000Y-315414819D02*
X118872000Y-314414819D01*
X118872000Y-314414819D02*
X118776762Y-314557676D01*
X118776762Y-314557676D02*
X118681524Y-314652914D01*
X118681524Y-314652914D02*
X118586286Y-314700533D01*
X118824381Y-311874819D02*
X118919619Y-311874819D01*
X118919619Y-311874819D02*
X119014857Y-311922438D01*
X119014857Y-311922438D02*
X119062476Y-311970057D01*
X119062476Y-311970057D02*
X119110095Y-312065295D01*
X119110095Y-312065295D02*
X119157714Y-312255771D01*
X119157714Y-312255771D02*
X119157714Y-312493866D01*
X119157714Y-312493866D02*
X119110095Y-312684342D01*
X119110095Y-312684342D02*
X119062476Y-312779580D01*
X119062476Y-312779580D02*
X119014857Y-312827200D01*
X119014857Y-312827200D02*
X118919619Y-312874819D01*
X118919619Y-312874819D02*
X118824381Y-312874819D01*
X118824381Y-312874819D02*
X118729143Y-312827200D01*
X118729143Y-312827200D02*
X118681524Y-312779580D01*
X118681524Y-312779580D02*
X118633905Y-312684342D01*
X118633905Y-312684342D02*
X118586286Y-312493866D01*
X118586286Y-312493866D02*
X118586286Y-312255771D01*
X118586286Y-312255771D02*
X118633905Y-312065295D01*
X118633905Y-312065295D02*
X118681524Y-311970057D01*
X118681524Y-311970057D02*
X118729143Y-311922438D01*
X118729143Y-311922438D02*
X118824381Y-311874819D01*
X117294819Y-355020380D02*
X116294819Y-355020380D01*
X116294819Y-355020380D02*
X116294819Y-354782285D01*
X116294819Y-354782285D02*
X116342438Y-354639428D01*
X116342438Y-354639428D02*
X116437676Y-354544190D01*
X116437676Y-354544190D02*
X116532914Y-354496571D01*
X116532914Y-354496571D02*
X116723390Y-354448952D01*
X116723390Y-354448952D02*
X116866247Y-354448952D01*
X116866247Y-354448952D02*
X117056723Y-354496571D01*
X117056723Y-354496571D02*
X117151961Y-354544190D01*
X117151961Y-354544190D02*
X117247200Y-354639428D01*
X117247200Y-354639428D02*
X117294819Y-354782285D01*
X117294819Y-354782285D02*
X117294819Y-355020380D01*
X117294819Y-353591809D02*
X116771009Y-353591809D01*
X116771009Y-353591809D02*
X116675771Y-353639428D01*
X116675771Y-353639428D02*
X116628152Y-353734666D01*
X116628152Y-353734666D02*
X116628152Y-353925142D01*
X116628152Y-353925142D02*
X116675771Y-354020380D01*
X117247200Y-353591809D02*
X117294819Y-353687047D01*
X117294819Y-353687047D02*
X117294819Y-353925142D01*
X117294819Y-353925142D02*
X117247200Y-354020380D01*
X117247200Y-354020380D02*
X117151961Y-354067999D01*
X117151961Y-354067999D02*
X117056723Y-354067999D01*
X117056723Y-354067999D02*
X116961485Y-354020380D01*
X116961485Y-354020380D02*
X116913866Y-353925142D01*
X116913866Y-353925142D02*
X116913866Y-353687047D01*
X116913866Y-353687047D02*
X116866247Y-353591809D01*
X116628152Y-353258475D02*
X116628152Y-352877523D01*
X116294819Y-353115618D02*
X117151961Y-353115618D01*
X117151961Y-353115618D02*
X117247200Y-353067999D01*
X117247200Y-353067999D02*
X117294819Y-352972761D01*
X117294819Y-352972761D02*
X117294819Y-352877523D01*
X117294819Y-352115618D02*
X116771009Y-352115618D01*
X116771009Y-352115618D02*
X116675771Y-352163237D01*
X116675771Y-352163237D02*
X116628152Y-352258475D01*
X116628152Y-352258475D02*
X116628152Y-352448951D01*
X116628152Y-352448951D02*
X116675771Y-352544189D01*
X117247200Y-352115618D02*
X117294819Y-352210856D01*
X117294819Y-352210856D02*
X117294819Y-352448951D01*
X117294819Y-352448951D02*
X117247200Y-352544189D01*
X117247200Y-352544189D02*
X117151961Y-352591808D01*
X117151961Y-352591808D02*
X117056723Y-352591808D01*
X117056723Y-352591808D02*
X116961485Y-352544189D01*
X116961485Y-352544189D02*
X116913866Y-352448951D01*
X116913866Y-352448951D02*
X116913866Y-352210856D01*
X116913866Y-352210856D02*
X116866247Y-352115618D01*
X113246819Y-354377523D02*
X113246819Y-354853713D01*
X113246819Y-354853713D02*
X113723009Y-354901332D01*
X113723009Y-354901332D02*
X113675390Y-354853713D01*
X113675390Y-354853713D02*
X113627771Y-354758475D01*
X113627771Y-354758475D02*
X113627771Y-354520380D01*
X113627771Y-354520380D02*
X113675390Y-354425142D01*
X113675390Y-354425142D02*
X113723009Y-354377523D01*
X113723009Y-354377523D02*
X113818247Y-354329904D01*
X113818247Y-354329904D02*
X114056342Y-354329904D01*
X114056342Y-354329904D02*
X114151580Y-354377523D01*
X114151580Y-354377523D02*
X114199200Y-354425142D01*
X114199200Y-354425142D02*
X114246819Y-354520380D01*
X114246819Y-354520380D02*
X114246819Y-354758475D01*
X114246819Y-354758475D02*
X114199200Y-354853713D01*
X114199200Y-354853713D02*
X114151580Y-354901332D01*
X113246819Y-354044189D02*
X114246819Y-353710856D01*
X114246819Y-353710856D02*
X113246819Y-353377523D01*
X113865866Y-353044189D02*
X113865866Y-352282285D01*
X114246819Y-352663237D02*
X113484914Y-352663237D01*
X110500438Y-354329904D02*
X110452819Y-354425142D01*
X110452819Y-354425142D02*
X110452819Y-354567999D01*
X110452819Y-354567999D02*
X110500438Y-354710856D01*
X110500438Y-354710856D02*
X110595676Y-354806094D01*
X110595676Y-354806094D02*
X110690914Y-354853713D01*
X110690914Y-354853713D02*
X110881390Y-354901332D01*
X110881390Y-354901332D02*
X111024247Y-354901332D01*
X111024247Y-354901332D02*
X111214723Y-354853713D01*
X111214723Y-354853713D02*
X111309961Y-354806094D01*
X111309961Y-354806094D02*
X111405200Y-354710856D01*
X111405200Y-354710856D02*
X111452819Y-354567999D01*
X111452819Y-354567999D02*
X111452819Y-354472761D01*
X111452819Y-354472761D02*
X111405200Y-354329904D01*
X111405200Y-354329904D02*
X111357580Y-354282285D01*
X111357580Y-354282285D02*
X111024247Y-354282285D01*
X111024247Y-354282285D02*
X111024247Y-354472761D01*
X111452819Y-353853713D02*
X110452819Y-353853713D01*
X110452819Y-353853713D02*
X111452819Y-353282285D01*
X111452819Y-353282285D02*
X110452819Y-353282285D01*
X111452819Y-352806094D02*
X110452819Y-352806094D01*
X110452819Y-352806094D02*
X110452819Y-352567999D01*
X110452819Y-352567999D02*
X110500438Y-352425142D01*
X110500438Y-352425142D02*
X110595676Y-352329904D01*
X110595676Y-352329904D02*
X110690914Y-352282285D01*
X110690914Y-352282285D02*
X110881390Y-352234666D01*
X110881390Y-352234666D02*
X111024247Y-352234666D01*
X111024247Y-352234666D02*
X111214723Y-352282285D01*
X111214723Y-352282285D02*
X111309961Y-352329904D01*
X111309961Y-352329904D02*
X111405200Y-352425142D01*
X111405200Y-352425142D02*
X111452819Y-352567999D01*
X111452819Y-352567999D02*
X111452819Y-352806094D01*
X115522476Y-358356819D02*
X115046286Y-358356819D01*
X115046286Y-358356819D02*
X114998667Y-358833009D01*
X114998667Y-358833009D02*
X115046286Y-358785390D01*
X115046286Y-358785390D02*
X115141524Y-358737771D01*
X115141524Y-358737771D02*
X115379619Y-358737771D01*
X115379619Y-358737771D02*
X115474857Y-358785390D01*
X115474857Y-358785390D02*
X115522476Y-358833009D01*
X115522476Y-358833009D02*
X115570095Y-358928247D01*
X115570095Y-358928247D02*
X115570095Y-359166342D01*
X115570095Y-359166342D02*
X115522476Y-359261580D01*
X115522476Y-359261580D02*
X115474857Y-359309200D01*
X115474857Y-359309200D02*
X115379619Y-359356819D01*
X115379619Y-359356819D02*
X115141524Y-359356819D01*
X115141524Y-359356819D02*
X115046286Y-359309200D01*
X115046286Y-359309200D02*
X114998667Y-359261580D01*
X115855810Y-358356819D02*
X116189143Y-359356819D01*
X116189143Y-359356819D02*
X116522476Y-358356819D01*
X116855810Y-358975866D02*
X117617715Y-358975866D01*
X117236762Y-359356819D02*
X117236762Y-358594914D01*
X123738285Y-359864819D02*
X123738285Y-358864819D01*
X124309713Y-359864819D02*
X123881142Y-359293390D01*
X124309713Y-358864819D02*
X123738285Y-359436247D01*
X124738285Y-359864819D02*
X124738285Y-358864819D01*
X124738285Y-359341009D02*
X125309713Y-359341009D01*
X125309713Y-359864819D02*
X125309713Y-358864819D01*
X126119237Y-359341009D02*
X125785904Y-359341009D01*
X125785904Y-359864819D02*
X125785904Y-358864819D01*
X125785904Y-358864819D02*
X126262094Y-358864819D01*
X127357333Y-358960057D02*
X127404952Y-358912438D01*
X127404952Y-358912438D02*
X127500190Y-358864819D01*
X127500190Y-358864819D02*
X127738285Y-358864819D01*
X127738285Y-358864819D02*
X127833523Y-358912438D01*
X127833523Y-358912438D02*
X127881142Y-358960057D01*
X127881142Y-358960057D02*
X127928761Y-359055295D01*
X127928761Y-359055295D02*
X127928761Y-359150533D01*
X127928761Y-359150533D02*
X127881142Y-359293390D01*
X127881142Y-359293390D02*
X127309714Y-359864819D01*
X127309714Y-359864819D02*
X127928761Y-359864819D01*
X128547809Y-358864819D02*
X128643047Y-358864819D01*
X128643047Y-358864819D02*
X128738285Y-358912438D01*
X128738285Y-358912438D02*
X128785904Y-358960057D01*
X128785904Y-358960057D02*
X128833523Y-359055295D01*
X128833523Y-359055295D02*
X128881142Y-359245771D01*
X128881142Y-359245771D02*
X128881142Y-359483866D01*
X128881142Y-359483866D02*
X128833523Y-359674342D01*
X128833523Y-359674342D02*
X128785904Y-359769580D01*
X128785904Y-359769580D02*
X128738285Y-359817200D01*
X128738285Y-359817200D02*
X128643047Y-359864819D01*
X128643047Y-359864819D02*
X128547809Y-359864819D01*
X128547809Y-359864819D02*
X128452571Y-359817200D01*
X128452571Y-359817200D02*
X128404952Y-359769580D01*
X128404952Y-359769580D02*
X128357333Y-359674342D01*
X128357333Y-359674342D02*
X128309714Y-359483866D01*
X128309714Y-359483866D02*
X128309714Y-359245771D01*
X128309714Y-359245771D02*
X128357333Y-359055295D01*
X128357333Y-359055295D02*
X128404952Y-358960057D01*
X128404952Y-358960057D02*
X128452571Y-358912438D01*
X128452571Y-358912438D02*
X128547809Y-358864819D01*
X129262095Y-358960057D02*
X129309714Y-358912438D01*
X129309714Y-358912438D02*
X129404952Y-358864819D01*
X129404952Y-358864819D02*
X129643047Y-358864819D01*
X129643047Y-358864819D02*
X129738285Y-358912438D01*
X129738285Y-358912438D02*
X129785904Y-358960057D01*
X129785904Y-358960057D02*
X129833523Y-359055295D01*
X129833523Y-359055295D02*
X129833523Y-359150533D01*
X129833523Y-359150533D02*
X129785904Y-359293390D01*
X129785904Y-359293390D02*
X129214476Y-359864819D01*
X129214476Y-359864819D02*
X129833523Y-359864819D01*
X130452571Y-358864819D02*
X130547809Y-358864819D01*
X130547809Y-358864819D02*
X130643047Y-358912438D01*
X130643047Y-358912438D02*
X130690666Y-358960057D01*
X130690666Y-358960057D02*
X130738285Y-359055295D01*
X130738285Y-359055295D02*
X130785904Y-359245771D01*
X130785904Y-359245771D02*
X130785904Y-359483866D01*
X130785904Y-359483866D02*
X130738285Y-359674342D01*
X130738285Y-359674342D02*
X130690666Y-359769580D01*
X130690666Y-359769580D02*
X130643047Y-359817200D01*
X130643047Y-359817200D02*
X130547809Y-359864819D01*
X130547809Y-359864819D02*
X130452571Y-359864819D01*
X130452571Y-359864819D02*
X130357333Y-359817200D01*
X130357333Y-359817200D02*
X130309714Y-359769580D01*
X130309714Y-359769580D02*
X130262095Y-359674342D01*
X130262095Y-359674342D02*
X130214476Y-359483866D01*
X130214476Y-359483866D02*
X130214476Y-359245771D01*
X130214476Y-359245771D02*
X130262095Y-359055295D01*
X130262095Y-359055295D02*
X130309714Y-358960057D01*
X130309714Y-358960057D02*
X130357333Y-358912438D01*
X130357333Y-358912438D02*
X130452571Y-358864819D01*
X131833524Y-358864819D02*
X132166857Y-359864819D01*
X132166857Y-359864819D02*
X132500190Y-358864819D01*
X133357333Y-359864819D02*
X132785905Y-359864819D01*
X133071619Y-359864819D02*
X133071619Y-358864819D01*
X133071619Y-358864819D02*
X132976381Y-359007676D01*
X132976381Y-359007676D02*
X132881143Y-359102914D01*
X132881143Y-359102914D02*
X132785905Y-359150533D01*
X128856715Y-307784105D02*
X129332905Y-307784105D01*
X128761477Y-308069820D02*
X129094810Y-307069820D01*
X129094810Y-307069820D02*
X129428143Y-308069820D01*
X130285286Y-308069820D02*
X129713858Y-308069820D01*
X129999572Y-308069820D02*
X129999572Y-307069820D01*
X129999572Y-307069820D02*
X129904334Y-307212677D01*
X129904334Y-307212677D02*
X129809096Y-307307915D01*
X129809096Y-307307915D02*
X129713858Y-307355534D01*
X110706819Y-309705333D02*
X111421104Y-309705333D01*
X111421104Y-309705333D02*
X111563961Y-309752952D01*
X111563961Y-309752952D02*
X111659200Y-309848190D01*
X111659200Y-309848190D02*
X111706819Y-309991047D01*
X111706819Y-309991047D02*
X111706819Y-310086285D01*
X111706819Y-308705333D02*
X111706819Y-309276761D01*
X111706819Y-308991047D02*
X110706819Y-308991047D01*
X110706819Y-308991047D02*
X110849676Y-309086285D01*
X110849676Y-309086285D02*
X110944914Y-309181523D01*
X110944914Y-309181523D02*
X110992533Y-309276761D01*
X113500819Y-309705333D02*
X114215104Y-309705333D01*
X114215104Y-309705333D02*
X114357961Y-309752952D01*
X114357961Y-309752952D02*
X114453200Y-309848190D01*
X114453200Y-309848190D02*
X114500819Y-309991047D01*
X114500819Y-309991047D02*
X114500819Y-310086285D01*
X113596057Y-309276761D02*
X113548438Y-309229142D01*
X113548438Y-309229142D02*
X113500819Y-309133904D01*
X113500819Y-309133904D02*
X113500819Y-308895809D01*
X113500819Y-308895809D02*
X113548438Y-308800571D01*
X113548438Y-308800571D02*
X113596057Y-308752952D01*
X113596057Y-308752952D02*
X113691295Y-308705333D01*
X113691295Y-308705333D02*
X113786533Y-308705333D01*
X113786533Y-308705333D02*
X113929390Y-308752952D01*
X113929390Y-308752952D02*
X114500819Y-309324380D01*
X114500819Y-309324380D02*
X114500819Y-308705333D01*
X116294819Y-309705333D02*
X117009104Y-309705333D01*
X117009104Y-309705333D02*
X117151961Y-309752952D01*
X117151961Y-309752952D02*
X117247200Y-309848190D01*
X117247200Y-309848190D02*
X117294819Y-309991047D01*
X117294819Y-309991047D02*
X117294819Y-310086285D01*
X116294819Y-309324380D02*
X116294819Y-308705333D01*
X116294819Y-308705333D02*
X116675771Y-309038666D01*
X116675771Y-309038666D02*
X116675771Y-308895809D01*
X116675771Y-308895809D02*
X116723390Y-308800571D01*
X116723390Y-308800571D02*
X116771009Y-308752952D01*
X116771009Y-308752952D02*
X116866247Y-308705333D01*
X116866247Y-308705333D02*
X117104342Y-308705333D01*
X117104342Y-308705333D02*
X117199580Y-308752952D01*
X117199580Y-308752952D02*
X117247200Y-308800571D01*
X117247200Y-308800571D02*
X117294819Y-308895809D01*
X117294819Y-308895809D02*
X117294819Y-309181523D01*
X117294819Y-309181523D02*
X117247200Y-309276761D01*
X117247200Y-309276761D02*
X117199580Y-309324380D01*
X142202819Y-307927333D02*
X142917104Y-307927333D01*
X142917104Y-307927333D02*
X143059961Y-307974952D01*
X143059961Y-307974952D02*
X143155200Y-308070190D01*
X143155200Y-308070190D02*
X143202819Y-308213047D01*
X143202819Y-308213047D02*
X143202819Y-308308285D01*
X142536152Y-307022571D02*
X143202819Y-307022571D01*
X142155200Y-307260666D02*
X142869485Y-307498761D01*
X142869485Y-307498761D02*
X142869485Y-306879714D01*
X140107200Y-360933904D02*
X140154819Y-360791047D01*
X140154819Y-360791047D02*
X140154819Y-360552952D01*
X140154819Y-360552952D02*
X140107200Y-360457714D01*
X140107200Y-360457714D02*
X140059580Y-360410095D01*
X140059580Y-360410095D02*
X139964342Y-360362476D01*
X139964342Y-360362476D02*
X139869104Y-360362476D01*
X139869104Y-360362476D02*
X139773866Y-360410095D01*
X139773866Y-360410095D02*
X139726247Y-360457714D01*
X139726247Y-360457714D02*
X139678628Y-360552952D01*
X139678628Y-360552952D02*
X139631009Y-360743428D01*
X139631009Y-360743428D02*
X139583390Y-360838666D01*
X139583390Y-360838666D02*
X139535771Y-360886285D01*
X139535771Y-360886285D02*
X139440533Y-360933904D01*
X139440533Y-360933904D02*
X139345295Y-360933904D01*
X139345295Y-360933904D02*
X139250057Y-360886285D01*
X139250057Y-360886285D02*
X139202438Y-360838666D01*
X139202438Y-360838666D02*
X139154819Y-360743428D01*
X139154819Y-360743428D02*
X139154819Y-360505333D01*
X139154819Y-360505333D02*
X139202438Y-360362476D01*
X140154819Y-359410095D02*
X140154819Y-359981523D01*
X140154819Y-359695809D02*
X139154819Y-359695809D01*
X139154819Y-359695809D02*
X139297676Y-359791047D01*
X139297676Y-359791047D02*
X139392914Y-359886285D01*
X139392914Y-359886285D02*
X139440533Y-359981523D01*
X110236095Y-358404438D02*
X110140857Y-358356819D01*
X110140857Y-358356819D02*
X109998000Y-358356819D01*
X109998000Y-358356819D02*
X109855143Y-358404438D01*
X109855143Y-358404438D02*
X109759905Y-358499676D01*
X109759905Y-358499676D02*
X109712286Y-358594914D01*
X109712286Y-358594914D02*
X109664667Y-358785390D01*
X109664667Y-358785390D02*
X109664667Y-358928247D01*
X109664667Y-358928247D02*
X109712286Y-359118723D01*
X109712286Y-359118723D02*
X109759905Y-359213961D01*
X109759905Y-359213961D02*
X109855143Y-359309200D01*
X109855143Y-359309200D02*
X109998000Y-359356819D01*
X109998000Y-359356819D02*
X110093238Y-359356819D01*
X110093238Y-359356819D02*
X110236095Y-359309200D01*
X110236095Y-359309200D02*
X110283714Y-359261580D01*
X110283714Y-359261580D02*
X110283714Y-358928247D01*
X110283714Y-358928247D02*
X110093238Y-358928247D01*
X110712286Y-359356819D02*
X110712286Y-358356819D01*
X110712286Y-358356819D02*
X111283714Y-359356819D01*
X111283714Y-359356819D02*
X111283714Y-358356819D01*
X111759905Y-359356819D02*
X111759905Y-358356819D01*
X111759905Y-358356819D02*
X111998000Y-358356819D01*
X111998000Y-358356819D02*
X112140857Y-358404438D01*
X112140857Y-358404438D02*
X112236095Y-358499676D01*
X112236095Y-358499676D02*
X112283714Y-358594914D01*
X112283714Y-358594914D02*
X112331333Y-358785390D01*
X112331333Y-358785390D02*
X112331333Y-358928247D01*
X112331333Y-358928247D02*
X112283714Y-359118723D01*
X112283714Y-359118723D02*
X112236095Y-359213961D01*
X112236095Y-359213961D02*
X112140857Y-359309200D01*
X112140857Y-359309200D02*
X111998000Y-359356819D01*
X111998000Y-359356819D02*
X111759905Y-359356819D01*
D11*
%TO.C,A1*%
X138591001Y-308755001D02*
X120551001Y-308755001D01*
X138591001Y-352195001D02*
X138591001Y-308755001D01*
X120551001Y-352195001D02*
X138591001Y-352195001D01*
X123221001Y-349525001D02*
X120551001Y-349525001D01*
X123221001Y-313965001D02*
X123221001Y-349525001D01*
X123221001Y-313965001D02*
X120551001Y-313965001D01*
X135921001Y-349525001D02*
X138591001Y-349525001D01*
X135921001Y-311425001D02*
X135921001Y-349525001D01*
X135921001Y-311425001D02*
X138591001Y-311425001D01*
X120551001Y-308755001D02*
X120551001Y-311425001D01*
X120551001Y-313965001D02*
X120551001Y-352195001D01*
X123221001Y-311425001D02*
X120551001Y-311425001D01*
X123221001Y-313965001D02*
X123221001Y-311425001D01*
%TO.C,S1*%
X140741400Y-361035600D02*
X140741400Y-351078800D01*
X140741400Y-351078800D02*
X144678400Y-351078800D01*
X144678400Y-351078800D02*
X144678400Y-361035600D01*
X144678400Y-361035600D02*
X140741400Y-361061000D01*
%TD*%
M02*
